<?xml version="1.0" encoding="UTF-8" standalone="no"?>
<!DOCTYPE svg PUBLIC "-//W3C//DTD SVG 1.1//EN" "http://www.w3.org/Graphics/SVG/1.1/DTD/svg11.dtd">
<svg xmlns="http://www.w3.org/2000/svg" version="1.1" viewBox="0.00 0.00 152.00 130.00">
<g stroke-width="2.00" fill="none" stroke-linecap="butt">
<path stroke="#828283" vector-effect="non-scaling-stroke" d="
  M 12.25 56.46
  L 6.02 57.27"
/>
<path stroke="#c2c3c5" vector-effect="non-scaling-stroke" d="
  M 6.02 57.27
  Q 3.36 57.54 1.46 58.93"
/>
<path stroke="#828283" vector-effect="non-scaling-stroke" d="
  M 1.46 58.93
  Q 0.28 60.20 1.36 62.41"
/>
<path stroke="#a3a3a3" vector-effect="non-scaling-stroke" d="
  M 1.36 62.41
  L 1.56 75.50"
/>
<path stroke="#b1b0b0" vector-effect="non-scaling-stroke" d="
  M 1.56 75.50
  Q 1.96 107.46 1.73 118.50
  Q 1.63 123.03 2.86 124.99"
/>
<path stroke="#9a999b" vector-effect="non-scaling-stroke" d="
  M 2.86 124.99
  Q 6.18 127.48 10.19 127.91"
/>
<path stroke="#909091" vector-effect="non-scaling-stroke" d="
  M 10.19 127.91
  Q 23.74 130.65 36.84 125.84"
/>
<path stroke="#9a999b" vector-effect="non-scaling-stroke" d="
  M 36.84 125.84
  Q 37.93 124.62 38.05 125.30"
/>
<path stroke="#f5f5f5" vector-effect="non-scaling-stroke" d="
  M 38.05 125.30
  Q 41.15 119.32 40.01 112.50
  C 39.56 109.83 39.95 108.70 39.99 106.42
  Q 40.24 91.78 39.49 77.16
  Q 39.48 77.07 39.42 77.00
  L 38.99 76.58
  Q 38.82 76.40 38.86 76.16
  Q 39.21 74.10 39.35 72.00
  C 39.57 68.88 38.09 66.09 38.44 62.64"
/>
<path stroke="#e0e1e2" vector-effect="non-scaling-stroke" d="
  M 38.44 62.64
  C 42.65 58.82 34.28 56.54 31.54 56.58"
/>
<path stroke="#828283" vector-effect="non-scaling-stroke" d="
  M 31.54 56.58
  Q 29.44 54.92 29.90 60.36"
/>
<path stroke="#e0e1e2" vector-effect="non-scaling-stroke" d="
  M 29.90 60.36
  Q 29.45 59.73 29.68 60.68"
/>
<path stroke="#828283" vector-effect="non-scaling-stroke" d="
  M 29.68 60.68
  Q 28.70 61.28 28.56 60.50
  Q 28.24 58.80 28.58 56.31
  Q 28.65 55.81 28.14 55.81
  L 14.22 55.80"
/>
<path stroke="#e0e1e2" vector-effect="non-scaling-stroke" d="
  M 14.22 55.80
  L 13.84 55.35
  A 1.36 1.35 -66.1 0 1 13.51 54.49
  Q 12.89 27.87 12.64 1.25
  Q 12.63 0.24 11.96 0.23
  A 0.39 0.38 -89.3 0 0 11.57 0.62
  L 12.25 56.46"
/>
<path stroke="#636465" vector-effect="non-scaling-stroke" d="
  M 14.22 55.80
  Q 13.44 56.88 13.82 58.91"
/>
<path stroke="#929293" vector-effect="non-scaling-stroke" d="
  M 13.82 58.91
  Q 13.05 60.42 12.21 60.05"
/>
<path stroke="#636465" vector-effect="non-scaling-stroke" d="
  M 12.21 60.05
  L 12.25 56.46"
/>
<path stroke="#636465" vector-effect="non-scaling-stroke" d="
  M 29.68 60.68
  Q 30.41 63.27 32.15 63.97"
/>
<path stroke="#131315" vector-effect="non-scaling-stroke" d="
  M 32.15 63.97
  L 30.30 63.34"
/>
<path stroke="#777878" vector-effect="non-scaling-stroke" d="
  M 30.30 63.34
  Q 29.66 62.65 29.59 62.98"
/>
<path stroke="#636465" vector-effect="non-scaling-stroke" d="
  M 29.59 62.98
  Q 28.68 62.63 28.54 61.80
  Q 28.46 61.33 28.00 61.22
  Q 27.04 61.00 26.15 61.22"
/>
<path stroke="#1c1c1f" vector-effect="non-scaling-stroke" d="
  M 26.15 61.22
  Q 25.15 59.89 26.74 59.41
  A 0.81 0.81 0.0 0 0 26.52 57.82
  L 15.76 57.69
  Q 14.95 57.68 15.02 58.48
  L 15.26 61.19"
/>
<path stroke="#333334" vector-effect="non-scaling-stroke" d="
  M 15.26 61.19
  Q 13.94 61.24 13.82 58.91"
/>
<path stroke="#333334" vector-effect="non-scaling-stroke" d="
  M 12.21 60.05
  Q 12.24 60.86 11.83 61.21"
/>
<path stroke="#444648" vector-effect="non-scaling-stroke" d="
  M 11.83 61.21
  C 9.51 60.40 6.29 60.25 6.02 57.27"
/>
<path stroke="#929293" vector-effect="non-scaling-stroke" d="
  M 24.44 61.69
  Q 24.29 61.70 24.14 61.76
  Q 23.82 61.87 23.86 62.20
  Q 23.98 63.04 25.75 62.92"
/>
<path stroke="#424142" vector-effect="non-scaling-stroke" d="
  M 25.75 62.92
  Q 23.35 62.82 23.94 63.77"
/>
<path stroke="#a6a6a6" vector-effect="non-scaling-stroke" d="
  M 23.94 63.77
  Q 23.47 63.17 22.93 62.84
  Q 22.39 62.51 22.05 62.82
  Q 21.73 63.12 21.68 63.85"
/>
<path stroke="#868687" vector-effect="non-scaling-stroke" d="
  M 37.75 63.23
  Q 37.10 63.77 37.08 64.08"
/>
<path stroke="#868687" vector-effect="non-scaling-stroke" d="
  M 36.51 64.64
  Q 32.62 63.77 30.80 66.79
  A 0.90 0.89 47.2 0 0 30.77 67.65
  L 31.52 69.14"
/>
<path stroke="#868687" vector-effect="non-scaling-stroke" d="
  M 29.01 69.85
  L 29.63 67.73
  Q 29.79 67.18 29.35 66.82
  Q 27.58 65.38 24.39 66.36"
/>
<path stroke="#868687" vector-effect="non-scaling-stroke" d="
  M 24.04 65.24
  Q 28.20 65.38 30.30 63.34"
/>
<path stroke="#d6d6d7" vector-effect="non-scaling-stroke" d="
  M 29.59 62.98
  L 28.52 63.08"
/>
<path stroke="#717274" vector-effect="non-scaling-stroke" d="
  M 28.52 63.08
  Q 27.85 61.94 25.75 62.92"
/>
<path stroke="#7b7b7e" vector-effect="non-scaling-stroke" d="
  M 26.15 61.22
  Q 25.46 61.97 24.44 61.69"
/>
<path stroke="#4b4a4c" vector-effect="non-scaling-stroke" d="
  M 24.44 61.69
  Q 22.87 61.09 21.41 61.74
  Q 20.94 61.95 20.44 61.88
  L 15.26 61.19"
/>
<path stroke="#717274" vector-effect="non-scaling-stroke" d="
  M 34.47 60.57
  Q 33.11 60.62 32.56 61.30
  A 1.01 1.01 0.0 0 0 33.65 62.90
  Q 34.70 62.56 35.16 61.45
  Q 35.47 60.69 35.87 61.40
  L 36.32 62.18
  A 0.59 0.59 0.0 0 1 36.13 62.96
  Q 34.31 64.14 32.15 63.97"
/>
<path stroke="#737476" vector-effect="non-scaling-stroke" d="
  M 11.83 61.21
  Q 12.32 62.43 9.69 62.09"
/>
<path stroke="#444648" vector-effect="non-scaling-stroke" d="
  M 9.69 62.09
  L 3.20 60.79
  Q 2.65 60.68 2.56 60.11
  Q 2.34 58.73 1.46 58.93"
/>
<path stroke="#868687" vector-effect="non-scaling-stroke" d="
  M 28.52 63.08
  Q 26.42 64.83 23.94 63.77"
/>
<path stroke="#333334" vector-effect="non-scaling-stroke" d="
  M 9.69 62.09
  Q 10.53 62.15 11.28 62.37
  Q 12.62 62.77 11.22 62.86
  L 9.04 62.99
  Q 8.64 63.02 8.64 63.41
  Q 8.65 63.95 9.00 63.97
  Q 13.38 64.13 21.68 63.85"
/>
<path stroke="#777878" vector-effect="non-scaling-stroke" d="
  M 21.68 63.85
  L 24.04 65.24"
/>
<path stroke="#131315" vector-effect="non-scaling-stroke" d="
  M 24.04 65.24
  Q 24.94 65.62 24.39 66.36"
/>
<path stroke="#777878" vector-effect="non-scaling-stroke" d="
  M 24.39 66.36
  Q 23.37 66.36 22.62 66.92
  A 1.93 1.93 0.0 0 0 22.97 70.24
  Q 26.07 71.64 29.01 69.85"
/>
<path stroke="#131315" vector-effect="non-scaling-stroke" d="
  M 29.01 69.85
  Q 30.36 70.01 31.52 69.14"
/>
<path stroke="#777878" vector-effect="non-scaling-stroke" d="
  M 31.52 69.14
  Q 36.93 69.57 36.51 64.64"
/>
<path stroke="#131315" vector-effect="non-scaling-stroke" d="
  M 36.51 64.64
  L 37.08 64.08"
/>
<path stroke="#777878" vector-effect="non-scaling-stroke" d="
  M 37.08 64.08
  Q 36.19 68.49 37.69 70.58"
/>
<path stroke="#1c1c1f" vector-effect="non-scaling-stroke" d="
  M 37.69 70.58
  Q 37.32 74.27 36.54 74.30"
/>
<path stroke="#777878" vector-effect="non-scaling-stroke" d="
  M 36.54 74.30
  Q 35.43 72.54 36.32 70.67
  Q 36.58 70.13 36.00 70.01
  L 35.05 69.82
  Q 34.46 69.70 34.08 70.17
  Q 33.05 71.43 31.23 71.10
  A 0.45 0.44 -22.2 0 0 30.89 71.90
  L 34.24 74.21"
/>
<path stroke="#1c1c1f" vector-effect="non-scaling-stroke" d="
  M 34.24 74.21
  Q 31.23 74.01 30.62 74.42"
/>
<path stroke="#131315" vector-effect="non-scaling-stroke" d="
  M 30.62 74.42
  L 26.88 75.46
  Q 26.37 75.60 26.12 76.07
  Q 25.59 77.07 24.60 77.25
  Q 24.09 77.35 23.68 77.03
  Q 22.22 75.88 20.27 75.77
  Q 20.23 75.76 20.22 75.80
  Q 20.19 75.94 20.15 76.05
  A 0.30 0.29 15.9 0 1 19.84 76.22
  L 12.45 75.23"
/>
<path stroke="#1c1c1f" vector-effect="non-scaling-stroke" d="
  M 12.45 75.23
  Q 12.05 74.91 12.13 74.20
  Q 12.19 73.69 12.63 73.42
  L 13.34 72.97
  A 0.48 0.47 42.4 0 0 13.30 72.15
  Q 10.02 70.42 7.24 72.56
  Q 6.83 72.89 6.30 72.88
  Q 4.81 72.87 3.27 72.18"
/>
<path stroke="#252627" vector-effect="non-scaling-stroke" d="
  M 3.27 72.18
  Q 1.81 71.82 2.13 69.82
  Q 2.19 69.42 2.60 69.45
  L 21.09 70.88
  Q 22.14 70.96 21.26 70.37
  L 20.69 69.99
  Q 20.36 69.76 20.53 69.39
  Q 21.30 67.74 21.71 65.89
  Q 21.84 65.30 21.24 65.35
  Q 12.62 66.13 9.99 65.29
  Q 5.69 63.93 1.36 62.41"
/>
<path stroke="#8f8f91" vector-effect="non-scaling-stroke" d="
  M 38.05 125.30
  L 37.69 70.58"
/>
<path stroke="#909091" vector-effect="non-scaling-stroke" d="
  M 36.58 60.67
  L 34.47 60.57"
/>
<path stroke="#e0e1e2" vector-effect="non-scaling-stroke" d="
  M 34.47 60.57
  L 33.71 60.58
  Q 33.16 60.59 33.10 60.04
  L 33.05 59.44"
/>
<path stroke="#d6d6d7" vector-effect="non-scaling-stroke" d="
  M 38.44 62.64
  L 37.75 63.23"
/>
<path stroke="#717274" vector-effect="non-scaling-stroke" d="
  M 37.75 63.23
  Q 37.79 61.06 36.58 60.67"
/>
<path stroke="#e0e1e2" vector-effect="non-scaling-stroke" d="
  M 36.58 60.67
  Q 40.22 59.57 33.78 58.24"
/>
<path stroke="#636465" vector-effect="non-scaling-stroke" d="
  M 31.54 56.58
  Q 34.47 57.53 33.78 58.24"
/>
<path stroke="#828283" vector-effect="non-scaling-stroke" d="
  M 33.78 58.24
  L 33.05 59.44"
/>
<path stroke="#636465" vector-effect="non-scaling-stroke" d="
  M 33.05 59.44
  Q 31.01 61.47 29.90 60.36"
/>
<path stroke="#8f8f91" vector-effect="non-scaling-stroke" d="
  M 36.54 74.30
  Q 36.40 74.15 36.38 74.63
  Q 36.36 75.01 36.02 74.84
  Q 34.73 74.17 34.24 74.21"
/>
<path stroke="#3d3d3f" vector-effect="non-scaling-stroke" d="
  M 3.27 72.18
  Q 3.61 74.50 4.18 76.60
  Q 4.91 79.30 4.94 80.98
  Q 5.00 84.02 4.60 87.02
  C 3.73 93.39 4.32 99.86 4.70 106.25
  Q 4.80 107.99 4.09 111.13
  C 3.25 114.88 3.70 118.50 3.30 122.29"
/>
<path stroke="#545454" vector-effect="non-scaling-stroke" d="
  M 3.30 122.29
  Q 3.25 114.09 3.17 105.89
  C 3.11 98.88 4.09 87.41 3.07 78.03
  Q 3.02 77.61 2.71 77.34
  Q 2.11 76.82 1.56 75.50"
/>
<path stroke="#2b2a2d" vector-effect="non-scaling-stroke" d="
  M 36.84 125.84
  L 35.81 125.45
  Q 35.52 125.34 35.82 125.25
  Q 35.99 125.19 36.13 125.09
  Q 36.44 124.85 36.07 124.96
  Q 35.63 125.08 35.11 125.15
  A 0.42 0.41 31.0 0 1 34.91 124.35
  L 36.96 123.59
  Q 37.37 123.44 37.37 123.00
  L 37.38 122.52
  Q 37.38 122.17 37.03 122.16
  Q 36.66 122.15 36.39 121.82"
/>
<path stroke="#8f8f91" vector-effect="non-scaling-stroke" d="
  M 36.39 121.82
  Q 37.22 121.22 37.42 120.37
  Q 37.54 119.86 37.05 119.68
  Q 34.75 118.88 32.22 119.30"
/>
<path stroke="#2b2a2d" vector-effect="non-scaling-stroke" d="
  M 32.22 119.30
  Q 32.01 118.21 31.08 118.51
  A 0.39 0.39 0.0 0 0 30.81 118.78
  L 30.66 119.26
  A 0.34 0.34 0.0 0 1 30.00 119.24
  L 29.65 117.77
  Q 29.60 117.57 29.40 117.66
  Q 29.26 117.74 29.09 117.82
  Q 28.64 118.05 28.48 117.57
  Q 27.42 114.26 28.43 111.00
  Q 28.59 110.49 28.06 110.50
  Q 27.16 110.51 26.61 109.31"
/>
<path stroke="#9a999b" vector-effect="non-scaling-stroke" d="
  M 26.61 109.31
  Q 30.28 109.43 29.99 107.94"
/>
<path stroke="#2b2a2d" vector-effect="non-scaling-stroke" d="
  M 29.99 107.94
  Q 32.48 109.40 35.48 110.80
  Q 35.90 111.00 35.99 110.82
  Q 36.10 110.62 35.89 110.07"
/>
<path stroke="#8f8f91" vector-effect="non-scaling-stroke" d="
  M 35.89 110.07
  Q 36.35 109.46 35.94 108.95"
/>
<path stroke="#7b7b7e" vector-effect="non-scaling-stroke" d="
  M 35.94 108.95
  Q 35.75 107.94 36.49 106.70"
/>
<path stroke="#8f8f91" vector-effect="non-scaling-stroke" d="
  M 36.49 106.70
  Q 37.28 105.99 36.96 105.33
  Q 36.82 105.03 36.46 104.90
  Q 36.16 104.79 35.86 104.78
  Q 35.42 104.78 35.27 105.20
  L 35.07 105.77"
/>
<path stroke="#2b2a2d" vector-effect="non-scaling-stroke" d="
  M 35.07 105.77
  Q 35.22 104.71 34.88 104.24
  Q 34.63 103.90 33.97 103.91"
/>
<path stroke="#8f8f91" vector-effect="non-scaling-stroke" d="
  M 33.97 103.91
  Q 37.84 103.12 36.99 99.34
  Q 36.88 98.83 36.50 98.57
  Q 36.15 98.32 35.64 98.10"
/>
<path stroke="#2b2a2d" vector-effect="non-scaling-stroke" d="
  M 35.64 98.10
  L 37.00 97.81
  Q 37.53 97.69 37.37 97.17
  Q 37.24 96.79 36.54 96.51"
/>
<path stroke="#8f8f91" vector-effect="non-scaling-stroke" d="
  M 36.54 96.51
  Q 36.99 95.79 36.96 95.50
  Q 36.88 94.44 36.25 94.70"
/>
<path stroke="#1c1c1f" vector-effect="non-scaling-stroke" d="
  M 36.25 94.70
  L 36.03 93.63"
/>
<path stroke="#8f8f91" vector-effect="non-scaling-stroke" d="
  M 36.03 93.63
  Q 36.75 94.33 37.06 93.01
  A 0.82 0.82 0.0 0 0 36.30 92.00
  Q 31.78 91.81 31.32 95.80"
/>
<path stroke="#2b2a2d" vector-effect="non-scaling-stroke" d="
  M 31.32 95.80
  Q 31.54 94.01 30.63 93.72
  Q 30.22 93.60 30.07 93.20
  L 29.74 92.34"
/>
<path stroke="#8f8f91" vector-effect="non-scaling-stroke" d="
  M 29.74 92.34
  Q 29.98 91.38 29.02 90.81
  Q 28.63 90.57 28.80 90.15
  Q 29.17 89.22 28.92 88.11"
/>
<path stroke="#4b4a4c" vector-effect="non-scaling-stroke" d="
  M 28.92 88.11
  Q 29.93 86.12 29.27 83.73"
/>
<path stroke="#1c1c1f" vector-effect="non-scaling-stroke" d="
  M 29.27 83.73
  L 29.94 83.27
  A 0.30 0.30 0.0 0 0 29.74 82.72
  Q 28.11 82.89 27.83 81.78"
/>
<path stroke="#2b2a2d" vector-effect="non-scaling-stroke" d="
  M 27.83 81.78
  Q 28.47 79.96 29.78 78.67
  Q 30.34 78.12 29.56 78.12
  L 28.79 78.12
  Q 28.30 78.12 28.09 78.57
  Q 27.94 78.92 27.58 79.09
  A 0.54 0.54 0.0 0 1 26.90 78.30
  Q 28.05 76.69 29.97 76.87
  A 0.33 0.33 0.0 0 0 30.23 76.31
  L 29.81 75.90
  Q 29.42 75.52 29.82 75.15
  L 30.62 74.42"
/>
<path stroke="#2b2a2d" vector-effect="non-scaling-stroke" d="
  M 12.45 75.23
  Q 12.87 76.09 13.35 76.92
  Q 13.84 77.79 13.92 78.71
  Q 14.64 86.48 14.14 94.25
  Q 13.90 97.93 14.50 101.20
  Q 16.19 110.44 17.42 119.76
  Q 17.71 121.99 17.57 124.26
  Q 17.46 125.99 16.21 126.67
  C 14.08 127.82 11.40 125.68 10.19 127.91"
/>
<path stroke="#4b4a4c" vector-effect="non-scaling-stroke" d="
  M 2.86 124.99
  Q 3.41 123.57 3.30 122.29"
/>
<path stroke="#131315" vector-effect="non-scaling-stroke" d="
  M 27.83 81.78
  Q 27.57 81.65 27.37 81.66
  Q 27.12 81.67 27.10 81.93
  Q 27.09 82.11 26.95 82.27"
/>
<path stroke="#717274" vector-effect="non-scaling-stroke" d="
  M 26.95 82.27
  Q 26.51 81.63 25.63 81.77
  Q 25.15 81.85 25.12 82.34
  L 25.04 84.20
  Q 25.01 84.92 24.29 84.78
  L 23.42 84.60
  A 0.69 0.68 -71.9 0 1 22.94 83.64
  Q 23.29 82.88 23.26 82.09
  A 0.63 0.63 0.0 0 0 22.00 82.11
  L 21.99 84.97
  Q 21.99 85.69 22.71 85.69
  L 28.01 85.67"
/>
<path stroke="#424142" vector-effect="non-scaling-stroke" d="
  M 28.01 85.67
  Q 28.39 85.50 28.62 86.71"
/>
<path stroke="#868687" vector-effect="non-scaling-stroke" d="
  M 28.62 86.71
  Q 26.76 87.61 24.58 87.56
  A 0.48 0.48 0.0 0 0 24.49 88.51
  Q 26.01 88.78 27.54 88.48
  A 0.34 0.33 -5.9 0 1 27.94 88.80
  L 27.96 89.15
  Q 27.98 89.78 27.35 89.80
  L 24.69 89.89
  Q 24.39 89.90 24.36 90.19
  L 24.33 90.46
  A 0.36 0.35 2.7 0 0 24.70 90.86
  Q 27.44 90.69 29.74 92.34"
/>
<path stroke="#868687" vector-effect="non-scaling-stroke" d="
  M 31.32 95.80
  Q 32.96 98.69 36.54 96.51"
/>
<path stroke="#868687" vector-effect="non-scaling-stroke" d="
  M 35.64 98.10
  Q 33.20 99.09 32.33 99.85
  C 30.72 101.24 31.52 104.23 33.97 103.91"
/>
<path stroke="#868687" vector-effect="non-scaling-stroke" d="
  M 35.07 105.77
  L 31.75 106.66
  Q 30.89 106.89 31.64 107.37
  L 35.89 110.07"
/>
<path stroke="#909091" vector-effect="non-scaling-stroke" d="
  M 29.99 107.94
  L 22.66 108.60
  A 0.42 0.42 0.0 0 0 22.39 109.31
  L 24.48 111.57
  A 0.33 0.33 0.0 0 0 25.04 111.23
  L 24.60 109.94
  Q 24.41 109.42 24.97 109.39
  L 26.61 109.31"
/>
<path stroke="#868687" vector-effect="non-scaling-stroke" d="
  M 32.22 119.30
  Q 32.14 119.47 32.13 119.61
  Q 32.09 119.97 32.45 120.04
  L 35.19 120.56
  A 0.35 0.35 0.0 0 1 35.31 121.20
  L 32.59 122.90
  A 0.49 0.48 -65.4 0 0 32.92 123.79
  Q 34.76 123.51 36.39 121.82"
/>
<path stroke="#d6d6d7" vector-effect="non-scaling-stroke" d="
  M 36.49 106.70
  Q 36.11 106.56 35.82 106.67"
/>
<path stroke="#8f8f91" vector-effect="non-scaling-stroke" d="
  M 35.82 106.67
  Q 34.63 106.58 33.83 107.19
  Q 33.25 107.63 33.92 107.90
  L 35.25 108.44"
/>
<path stroke="#d6d6d7" vector-effect="non-scaling-stroke" d="
  M 35.25 108.44
  Q 35.49 108.78 35.94 108.95"
/>
<path stroke="#777878" vector-effect="non-scaling-stroke" d="
  M 36.03 93.63
  Q 33.73 93.25 32.72 94.81
  A 1.07 1.07 0.0 0 0 33.94 96.41
  Q 35.72 95.84 36.25 94.70"
/>
<path stroke="#a6a6a6" vector-effect="non-scaling-stroke" d="
  M 28.92 88.11
  Q 28.98 86.10 28.62 86.71"
/>
<path stroke="#333334" vector-effect="non-scaling-stroke" d="
  M 29.27 83.73
  Q 29.23 84.01 28.53 84.14"
/>
<path stroke="#636465" vector-effect="non-scaling-stroke" d="
  M 26.95 82.27
  L 26.91 83.70
  Q 26.89 84.27 27.46 84.36
  Q 27.97 84.43 28.53 84.14"
/>
<path stroke="#929293" vector-effect="non-scaling-stroke" d="
  M 28.53 84.14
  Q 29.22 83.99 29.27 84.50
  Q 29.35 85.25 28.01 85.67"
/>
<path stroke="#7b7b7e" vector-effect="non-scaling-stroke" d="
  M 35.82 106.67
  Q 34.93 107.06 35.25 108.44"
/>
<path stroke="#e0e1e2" vector-effect="non-scaling-stroke" d="
  M 28.52 53.99
  L 29.52 53.98
  A 0.21 0.21 0.0 0 0 29.73 53.77
  L 29.73 53.59
  A 41.73 0.68 89.2 0 0 28.47 11.87
  L 28.41 11.87
  A 41.73 0.68 89.2 0 0 28.31 53.61
  L 28.31 53.79
  A 0.21 0.21 0.0 0 0 28.52 53.99"
/>
<path stroke="#909091" vector-effect="non-scaling-stroke" d="
  M 99.16 69.55
  Q 98.45 70.16 98.19 69.52"
/>
<path stroke="#c2c3c5" vector-effect="non-scaling-stroke" d="
  M 98.19 69.52
  L 92.24 72.72"
/>
<path stroke="#b1b0b0" vector-effect="non-scaling-stroke" d="
  M 92.24 72.72
  L 68.02 81.83"
/>
<path stroke="#909091" vector-effect="non-scaling-stroke" d="
  M 68.02 81.83
  L 56.11 86.31"
/>
<path stroke="#b1b0b0" vector-effect="non-scaling-stroke" d="
  M 56.11 86.31
  L 51.96 87.78"
/>
<path stroke="#909091" vector-effect="non-scaling-stroke" d="
  M 51.96 87.78
  L 48.90 88.49"
/>
<path stroke="#a3a3a3" vector-effect="non-scaling-stroke" d="
  M 48.90 88.49
  Q 43.46 91.27 43.15 97.98"
/>
<path stroke="#e0e1e2" vector-effect="non-scaling-stroke" d="
  M 43.15 97.98
  Q 42.35 104.16 44.82 110.10"
/>
<path stroke="#a3a3a3" vector-effect="non-scaling-stroke" d="
  M 44.82 110.10
  Q 45.13 112.52 45.82 112.02"
/>
<path stroke="#e0e1e2" vector-effect="non-scaling-stroke" d="
  M 45.82 112.02
  Q 45.72 112.25 45.62 112.49"
/>
<path stroke="#b1b0b0" vector-effect="non-scaling-stroke" d="
  M 45.62 112.49
  Q 48.21 118.98 53.65 123.15"
/>
<path stroke="#a3a3a3" vector-effect="non-scaling-stroke" d="
  M 53.65 123.15
  Q 59.33 127.76 66.06 124.07"
/>
<path stroke="#c2c3c5" vector-effect="non-scaling-stroke" d="
  M 66.06 124.07
  Q 84.83 116.49 103.46 108.46
  C 104.78 107.89 105.93 106.84 107.35 106.20
  Q 107.82 105.99 108.32 106.11
  Q 110.58 106.62 111.96 105.01"
/>
<path stroke="#b1b0b0" vector-effect="non-scaling-stroke" d="
  M 111.96 105.01
  L 115.25 101.98"
/>
<path stroke="#a3a3a3" vector-effect="non-scaling-stroke" d="
  M 115.25 101.98
  Q 118.32 96.12 116.70 89.17"
/>
<path stroke="#e0e1e2" vector-effect="non-scaling-stroke" d="
  M 116.70 89.17
  Q 116.99 88.57 116.78 87.34
  A 0.86 0.85 -14.6 0 1 117.35 86.38
  L 151.25 74.41
  A 0.35 0.35 0.0 0 0 151.20 73.73
  Q 150.69 73.63 149.99 73.87
  Q 133.70 79.47 117.27 84.68
  Q 117.12 84.72 117.12 84.75
  Q 117.11 84.90 117.10 85.05
  Q 117.09 85.27 116.87 85.23
  L 115.73 85.04"
/>
<path stroke="#b1b0b0" vector-effect="non-scaling-stroke" d="
  M 115.73 85.04
  L 114.71 82.11
  A 0.52 0.51 69.0 0 0 114.02 81.80
  L 109.29 83.79"
/>
<path stroke="#828283" vector-effect="non-scaling-stroke" d="
  M 109.29 83.79
  L 98.82 88.07
  A 1.12 1.11 -27.5 0 1 97.47 87.65
  L 93.75 81.95
  A 1.07 1.06 63.3 0 1 94.27 80.37
  L 98.34 78.89
  Q 98.82 78.72 99.21 79.05
  Q 100.30 79.98 102.23 79.25"
/>
<path stroke="#e0e1e2" vector-effect="non-scaling-stroke" d="
  M 102.23 79.25
  Q 102.74 80.94 104.21 81.69
  Q 104.57 81.87 104.61 82.28
  Q 104.64 82.53 104.75 82.73"
/>
<path stroke="#828283" vector-effect="non-scaling-stroke" d="
  M 104.75 82.73
  Q 104.81 83.05 104.50 83.32
  Q 104.15 83.61 103.88 83.25
  L 101.83 80.51
  A 0.33 0.33 0.0 0 0 101.36 80.45
  Q 101.22 80.55 101.11 80.65
  Q 100.83 80.87 101.03 81.17
  L 102.52 83.50
  A 0.64 0.64 0.0 0 1 101.47 84.22
  L 99.03 80.87
  Q 98.73 80.46 98.24 80.63
  L 96.14 81.35
  Q 95.51 81.57 95.85 82.15
  L 98.20 86.00
  Q 98.47 86.45 98.97 86.26
  L 109.11 82.35"
/>
<path stroke="#e0e1e2" vector-effect="non-scaling-stroke" d="
  M 109.11 82.35
  Q 109.31 82.27 109.37 82.13"
/>
<path stroke="#828283" vector-effect="non-scaling-stroke" d="
  M 109.37 82.13
  L 113.86 80.36"
/>
<path stroke="#e0e1e2" vector-effect="non-scaling-stroke" d="
  M 113.86 80.36
  Q 123.38 76.96 133.15 73.76
  Q 133.93 73.51 134.21 72.86
  A 0.47 0.46 -86.9 0 0 133.65 72.23
  Q 124.30 75.13 115.19 78.38
  C 114.00 78.81 113.35 78.46 112.37 77.83"
/>
<path stroke="#a3a3a3" vector-effect="non-scaling-stroke" d="
  M 112.37 77.83
  L 111.66 76.71
  Q 111.31 76.16 111.14 76.79
  L 110.93 77.59
  Q 110.73 78.36 110.12 77.85
  Q 109.65 77.46 109.53 76.47"
/>
<path stroke="#828283" vector-effect="non-scaling-stroke" d="
  M 109.53 76.47
  L 110.03 76.07
  Q 110.44 75.73 110.14 75.29
  Q 105.89 69.16 99.16 69.55"
/>
<path stroke="#252627" vector-effect="non-scaling-stroke" d="
  M 109.53 76.47
  Q 108.73 76.69 109.23 76.35"
/>
<path stroke="#444648" vector-effect="non-scaling-stroke" d="
  M 109.23 76.35
  Q 108.30 74.76 106.18 74.05
  Q 105.73 73.90 105.60 74.36
  Q 104.95 76.64 106.48 77.69"
/>
<path stroke="#636465" vector-effect="non-scaling-stroke" d="
  M 106.48 77.69
  Q 105.90 78.55 104.52 78.34
  Q 103.99 78.26 103.60 78.62
  Q 102.87 79.29 102.23 79.25"
/>
<path stroke="#333334" vector-effect="non-scaling-stroke" d="
  M 109.29 83.79
  Q 109.81 83.74 109.89 84.68"
/>
<path stroke="#636465" vector-effect="non-scaling-stroke" d="
  M 109.89 84.68
  Q 109.65 85.72 110.20 84.99"
/>
<path stroke="#333334" vector-effect="non-scaling-stroke" d="
  M 110.20 84.99
  Q 109.08 86.94 109.12 87.86"
/>
<path stroke="#636465" vector-effect="non-scaling-stroke" d="
  M 109.12 87.86
  Q 108.61 89.43 110.03 90.22"
/>
<path stroke="#333334" vector-effect="non-scaling-stroke" d="
  M 110.03 90.22
  Q 110.25 90.80 110.13 91.25
  Q 110.05 91.54 109.54 91.29"
/>
<path stroke="#777878" vector-effect="non-scaling-stroke" d="
  M 109.54 91.29
  L 108.50 90.43"
/>
<path stroke="#333334" vector-effect="non-scaling-stroke" d="
  M 108.50 90.43
  L 107.94 87.28
  A 1.46 1.45 -20.9 0 0 105.74 86.30
  Q 102.49 88.30 98.72 89.08
  A 1.79 1.76 -39.9 0 1 97.71 89.00
  C 93.39 87.41 92.23 90.48 88.85 91.54
  Q 88.40 91.68 88.20 92.11
  Q 87.59 93.36 86.73 92.88"
/>
<path stroke="#777878" vector-effect="non-scaling-stroke" d="
  M 86.73 92.88
  Q 87.90 91.37 86.11 89.47"
/>
<path stroke="#636465" vector-effect="non-scaling-stroke" d="
  M 86.11 89.47
  Q 86.60 88.81 87.82 89.27
  A 2.03 2.03 0.0 0 0 90.46 86.72
  Q 90.22 86.02 89.13 84.92"
/>
<path stroke="#777878" vector-effect="non-scaling-stroke" d="
  M 89.13 84.92
  L 86.87 84.04
  A 0.75 0.74 -61.9 0 0 85.98 84.32
  L 84.57 86.40
  Q 84.33 86.74 83.91 86.73
  Q 82.19 86.66 81.00 87.88
  Q 80.69 88.19 80.26 88.11
  C 78.96 87.88 78.27 88.36 77.27 89.32
  Q 76.58 90.00 75.60 89.54
  Q 75.09 89.31 74.73 89.73
  L 73.60 91.05
  Q 73.37 91.32 73.04 91.18
  Q 72.03 90.75 70.93 91.36
  Q 70.54 91.57 70.24 91.23
  L 69.80 90.73
  A 0.63 0.63 0.0 0 0 69.12 90.55
  L 64.01 92.28
  Q 63.17 92.57 63.61 93.33
  L 67.38 99.83"
/>
<path stroke="#333334" vector-effect="non-scaling-stroke" d="
  M 67.38 99.83
  Q 67.41 100.35 67.23 100.78
  Q 66.99 101.34 66.50 100.99
  L 66.10 100.71"
/>
<path stroke="#131315" vector-effect="non-scaling-stroke" d="
  M 66.10 100.71
  Q 65.42 98.29 63.96 97.99"
/>
<path stroke="#444648" vector-effect="non-scaling-stroke" d="
  M 63.96 97.99
  Q 63.36 95.14 60.77 93.19"
/>
<path stroke="#131315" vector-effect="non-scaling-stroke" d="
  M 60.77 93.19
  Q 60.87 92.85 60.25 92.93
  A 0.26 0.26 0.0 0 1 60.11 92.43
  L 70.03 88.25
  Q 70.48 88.06 70.96 88.14
  Q 72.05 88.32 72.78 87.50
  Q 73.04 87.20 73.43 87.11
  Q 75.56 86.65 77.36 85.50
  Q 77.81 85.21 78.33 85.36
  Q 79.58 85.71 80.11 84.70
  A 0.92 0.91 -76.4 0 1 80.87 84.23
  Q 82.39 84.18 83.49 83.46
  Q 85.12 82.40 85.75 82.24
  Q 87.20 81.89 88.69 81.92
  Q 89.15 81.93 89.56 81.70
  L 99.17 76.29
  Q 99.71 75.99 100.00 76.53
  Q 101.15 78.69 103.17 76.83
  Q 103.51 76.52 103.51 76.06
  Q 103.50 71.60 99.11 70.92
  Q 98.49 70.82 98.78 70.27
  L 99.16 69.55"
/>
<path stroke="#636465" vector-effect="non-scaling-stroke" d="
  M 113.86 80.36
  L 111.76 79.79
  Q 111.22 79.64 111.10 80.20
  L 110.99 80.74
  Q 110.79 81.66 110.33 80.85
  Q 109.58 79.54 108.28 78.58
  Q 107.76 78.20 108.00 78.80
  L 109.37 82.13"
/>
<path stroke="#636465" vector-effect="non-scaling-stroke" d="
  M 109.11 82.35
  Q 108.22 81.81 107.78 80.88
  Q 107.29 79.86 107.14 80.98
  L 106.99 82.05
  Q 106.90 82.68 106.30 82.47
  Q 104.98 82.01 104.75 82.73"
/>
<path stroke="#a3a4a7" vector-effect="non-scaling-stroke" d="
  M 106.48 77.69
  Q 107.84 76.74 108.91 76.68"
/>
<path stroke="#848486" vector-effect="non-scaling-stroke" d="
  M 108.91 76.68
  Q 109.19 77.71 110.01 78.39
  Q 110.34 78.67 110.73 78.50
  L 112.37 77.83"
/>
<path stroke="#d6d6d7" vector-effect="non-scaling-stroke" d="
  M 89.13 84.92
  Q 87.51 85.69 88.03 85.08"
/>
<path stroke="#989899" vector-effect="non-scaling-stroke" d="
  M 88.03 85.08
  Q 85.22 85.78 85.43 88.96"
/>
<path stroke="#d6d6d7" vector-effect="non-scaling-stroke" d="
  M 85.43 88.96
  Q 85.86 89.07 86.11 89.47"
/>
<path stroke="#a6a6a6" vector-effect="non-scaling-stroke" d="
  M 86.73 92.88
  Q 78.11 96.40 69.51 99.83
  Q 67.99 100.44 67.38 99.83"
/>
<path stroke="#848486" vector-effect="non-scaling-stroke" d="
  M 116.70 89.17
  Q 115.37 88.80 113.97 89.33
  A 0.38 0.38 0.0 0 0 114.08 90.07
  L 115.56 90.15
  A 0.63 0.63 0.0 0 1 116.16 90.81
  L 116.12 91.72
  Q 116.05 93.12 115.22 91.99
  L 114.59 91.12
  A 0.43 0.43 0.0 0 0 113.84 91.23
  Q 113.42 92.42 112.50 92.54"
/>
<path stroke="#929293" vector-effect="non-scaling-stroke" d="
  M 112.50 92.54
  Q 111.36 92.13 113.10 89.08
  Q 113.22 88.86 113.01 88.76
  Q 112.87 88.69 112.73 88.62
  A 0.50 0.49 16.5 0 0 112.02 89.00
  L 111.88 90.22
  Q 111.81 90.84 111.19 90.82
  Q 110.66 90.80 110.03 90.22"
/>
<path stroke="#929293" vector-effect="non-scaling-stroke" d="
  M 109.12 87.86
  Q 112.47 90.49 110.20 84.99"
/>
<path stroke="#929293" vector-effect="non-scaling-stroke" d="
  M 109.89 84.68
  Q 111.66 83.49 112.42 86.66
  Q 112.46 86.79 112.59 86.81
  Q 112.77 86.83 112.93 86.81
  Q 113.49 86.77 113.30 86.25
  L 112.57 84.25
  Q 112.43 83.87 112.84 83.87
  L 113.70 83.87
  Q 114.29 83.87 114.47 84.44
  Q 114.95 85.95 115.21 87.50
  Q 115.29 87.96 115.93 87.93
  Q 116.41 87.90 116.30 87.44
  L 115.73 85.04"
/>
<path stroke="#535457" vector-effect="non-scaling-stroke" d="
  M 60.77 93.19
  Q 60.54 93.13 60.31 93.26
  Q 59.86 93.52 60.21 93.91
  L 63.96 97.99"
/>
<path stroke="#424142" vector-effect="non-scaling-stroke" d="
  M 66.10 100.71
  Q 65.61 101.19 66.05 101.36"
/>
<path stroke="#535457" vector-effect="non-scaling-stroke" d="
  M 66.05 101.36
  Q 65.82 101.58 65.35 101.67"
/>
<path stroke="#131315" vector-effect="non-scaling-stroke" d="
  M 65.35 101.67
  Q 65.12 98.94 61.94 98.43"
/>
<path stroke="#717274" vector-effect="non-scaling-stroke" d="
  M 61.94 98.43
  Q 60.96 94.34 57.78 92.70
  Q 57.15 92.37 57.52 92.98
  L 58.55 94.60"
/>
<path stroke="#131315" vector-effect="non-scaling-stroke" d="
  M 58.55 94.60
  Q 58.11 95.01 58.53 96.48"
/>
<path stroke="#343435" vector-effect="non-scaling-stroke" d="
  M 58.53 96.48
  Q 55.66 90.80 49.25 89.59
  Q 48.74 89.50 48.90 88.49"
/>
<path stroke="#424142" vector-effect="non-scaling-stroke" d="
  M 51.96 87.78
  Q 55.60 88.18 56.11 86.31"
/>
<path stroke="#424142" vector-effect="non-scaling-stroke" d="
  M 68.02 81.83
  Q 71.58 81.49 74.94 80.14
  Q 79.30 78.39 81.32 77.82
  Q 84.73 76.85 88.03 75.57
  C 89.40 75.04 91.47 74.80 93.08 73.62
  Q 93.45 73.35 93.91 73.32
  L 95.97 73.18"
/>
<path stroke="#656669" vector-effect="non-scaling-stroke" d="
  M 109.23 76.35
  Q 109.07 76.52 108.91 76.68"
/>
<path stroke="#a6a6a6" vector-effect="non-scaling-stroke" d="
  M 108.50 90.43
  Q 108.13 90.24 107.84 90.78"
/>
<path stroke="#545454" vector-effect="non-scaling-stroke" d="
  M 107.84 90.78
  Q 107.78 90.65 107.68 90.55
  A 0.35 0.33 51.4 0 0 107.32 90.50
  Q 107.01 90.63 106.90 91.00"
/>
<path stroke="#929293" vector-effect="non-scaling-stroke" d="
  M 106.90 91.00
  Q 106.65 89.72 105.36 89.54
  Q 104.66 89.44 104.39 90.10
  L 103.71 91.76
  A 0.32 0.32 0.0 0 1 103.15 91.83
  Q 102.37 90.78 101.93 91.13"
/>
<path stroke="#545454" vector-effect="non-scaling-stroke" d="
  M 101.93 91.13
  Q 101.30 91.08 100.73 91.50
  Q 100.50 91.68 100.74 91.86
  Q 101.17 92.18 100.91 92.82
  A 0.70 0.69 -86.5 0 1 100.44 93.24
  Q 99.83 93.40 99.68 92.91
  A 0.50 0.50 0.0 0 0 98.81 92.74
  Q 97.71 94.08 95.83 94.16
  Q 95.29 94.19 95.04 94.65
  L 94.84 95.01
  Q 94.51 95.61 94.01 95.15
  Q 92.94 94.17 92.40 95.97"
/>
<path stroke="#929293" vector-effect="non-scaling-stroke" d="
  M 92.40 95.97
  L 91.74 95.97"
/>
<path stroke="#737476" vector-effect="non-scaling-stroke" d="
  M 91.74 95.97
  Q 91.80 94.42 91.06 94.26
  Q 87.52 93.48 85.39 96.25
  Q 85.26 96.42 85.07 96.31
  Q 84.95 96.24 84.90 96.08
  Q 84.80 95.78 84.55 95.99
  L 82.67 97.61
  Q 82.31 97.92 81.83 97.92
  Q 77.93 97.90 74.31 99.20
  C 72.81 99.73 71.63 100.98 70.07 101.71
  Q 69.62 101.92 69.20 101.64
  Q 68.19 100.98 67.11 101.68
  Q 66.70 101.95 66.33 101.62
  L 66.05 101.36"
/>
<path stroke="#a6a6a6" vector-effect="non-scaling-stroke" d="
  M 109.34 91.87
  Q 109.53 91.60 109.54 91.29"
/>
<path stroke="#848486" vector-effect="non-scaling-stroke" d="
  M 88.03 85.08
  L 85.43 88.96"
/>
<path stroke="#848486" vector-effect="non-scaling-stroke" d="
  M 58.53 96.48
  Q 57.99 97.41 57.93 99.20"
/>
<path stroke="#989899" vector-effect="non-scaling-stroke" d="
  M 57.93 99.20
  C 55.76 96.65 49.88 92.25 47.54 96.77
  Q 45.98 99.77 46.17 101.01
  Q 46.72 104.64 47.41 108.18
  Q 48.70 114.77 53.76 118.71
  C 55.51 120.07 58.00 120.57 59.92 119.64
  C 62.80 118.25 62.84 113.90 62.39 111.13"
/>
<path stroke="#656669" vector-effect="non-scaling-stroke" d="
  M 62.39 111.13
  Q 62.59 110.76 63.74 110.78
  A 0.56 0.56 0.0 0 0 64.29 110.10
  Q 64.04 109.03 62.19 108.14"
/>
<path stroke="#989899" vector-effect="non-scaling-stroke" d="
  M 62.19 108.14
  L 58.49 99.52"
/>
<path stroke="#848486" vector-effect="non-scaling-stroke" d="
  M 58.49 99.52
  Q 59.88 99.86 60.39 101.16
  Q 60.63 101.77 60.85 101.16
  L 61.48 99.41"
/>
<path stroke="#252627" vector-effect="non-scaling-stroke" d="
  M 61.48 99.41
  Q 67.53 109.15 66.18 120.01
  A 0.36 0.36 0.0 0 0 66.83 120.26
  Q 68.98 117.19 67.63 113.52
  Q 67.05 111.94 68.47 110.75
  A 0.56 0.56 0.0 0 0 68.53 109.95
  L 68.06 109.43"
/>
<path stroke="#656669" vector-effect="non-scaling-stroke" d="
  M 68.06 109.43
  Q 69.05 108.24 68.65 106.46
  A 0.60 0.59 75.8 0 1 69.07 105.75
  L 70.70 105.30
  Q 71.11 105.18 71.27 104.78
  L 71.45 104.28
  A 0.43 0.43 0.0 0 1 72.28 104.43
  L 72.29 105.90"
/>
<path stroke="#848486" vector-effect="non-scaling-stroke" d="
  M 72.29 105.90
  Q 72.30 107.17 70.35 107.78
  A 0.68 0.56 -55.8 0 0 70.46 109.02
  Q 71.41 108.75 72.17 108.34
  A 0.77 0.77 0.0 0 1 72.93 108.37
  Q 73.63 108.80 74.31 108.50
  Q 74.82 108.27 75.01 107.76
  L 77.19 101.80"
/>
<path stroke="#656669" vector-effect="non-scaling-stroke" d="
  M 77.19 101.80
  Q 78.15 100.45 79.10 102.48"
/>
<path stroke="#848486" vector-effect="non-scaling-stroke" d="
  M 79.10 102.48
  L 78.82 103.22
  Q 78.46 104.14 78.15 103.20
  L 78.02 102.82
  A 0.31 0.31 0.0 0 0 77.43 102.82
  L 76.04 107.30
  A 0.38 0.37 -0.9 0 0 76.52 107.76
  L 77.47 107.45
  Q 78.13 107.23 77.95 106.55
  Q 77.68 105.54 78.09 104.68
  Q 78.38 104.06 78.72 104.67
  Q 79.60 106.25 79.87 105.20"
/>
<path stroke="#252627" vector-effect="non-scaling-stroke" d="
  M 79.87 105.20
  Q 81.59 106.21 81.92 105.01"
/>
<path stroke="#848486" vector-effect="non-scaling-stroke" d="
  M 81.92 105.01
  Q 81.90 105.27 82.05 105.42
  A 0.30 0.29 36.0 0 0 82.52 105.35
  L 83.91 102.61"
/>
<path stroke="#3d3d3f" vector-effect="non-scaling-stroke" d="
  M 83.91 102.61
  L 84.25 103.04"
/>
<path stroke="#848486" vector-effect="non-scaling-stroke" d="
  M 84.25 103.04
  Q 83.69 103.73 84.04 104.36
  Q 84.33 104.86 84.72 104.45
  L 85.93 103.17
  Q 86.30 102.78 86.78 103.02
  Q 87.98 103.63 88.28 102.40"
/>
<path stroke="#545454" vector-effect="non-scaling-stroke" d="
  M 88.28 102.40
  Q 89.28 100.01 88.01 99.65"
/>
<path stroke="#848486" vector-effect="non-scaling-stroke" d="
  M 88.01 99.65
  Q 87.10 98.78 86.25 99.05
  A 0.51 0.51 0.0 0 0 85.90 99.52
  Q 85.89 99.91 85.56 100.00
  Q 85.13 100.11 85.25 99.68
  Q 85.58 98.54 87.34 97.53"
/>
<path stroke="#656669" vector-effect="non-scaling-stroke" d="
  M 87.34 97.53
  Q 88.00 98.52 89.45 98.25
  A 0.57 0.56 67.8 0 1 90.03 98.50
  L 91.74 101.20
  A 0.69 0.69 0.0 0 0 92.85 101.27
  L 94.11 99.79
  A 0.38 0.37 -83.1 0 0 93.66 99.21
  L 92.96 99.57
  Q 92.45 99.83 92.14 99.34
  L 90.87 97.30"
/>
<path stroke="#848486" vector-effect="non-scaling-stroke" d="
  M 90.87 97.30
  L 92.32 97.39
  Q 92.86 97.42 92.88 96.87
  Q 92.90 96.42 92.40 95.97"
/>
<path stroke="#848486" vector-effect="non-scaling-stroke" d="
  M 101.93 91.13
  Q 102.56 93.17 102.16 94.84
  A 0.54 0.54 0.0 0 1 101.47 95.24
  Q 100.31 94.87 99.85 95.80
  Q 99.54 96.41 100.22 96.32
  L 106.20 95.58
  Q 106.81 95.51 106.83 94.89
  L 106.90 91.00"
/>
<path stroke="#989899" vector-effect="non-scaling-stroke" d="
  M 107.84 90.78
  Q 107.69 91.83 108.14 92.55
  Q 108.43 93.02 108.78 92.58
  L 109.34 91.87"
/>
<path stroke="#545454" vector-effect="non-scaling-stroke" d="
  M 109.34 91.87
  Q 111.16 93.29 112.50 92.54"
/>
<path stroke="#545454" vector-effect="non-scaling-stroke" d="
  M 115.25 101.98
  L 113.01 103.43
  Q 112.67 103.65 112.55 103.26
  L 110.71 96.78
  Q 110.50 96.05 110.27 96.78
  Q 109.43 99.46 107.37 101.44
  Q 107.00 101.79 106.52 101.99
  Q 96.71 105.88 86.93 109.88
  Q 86.71 109.97 85.91 110.07
  Q 85.28 110.15 85.08 110.70
  Q 84.91 111.18 84.46 111.41
  Q 80.56 113.43 76.52 115.10
  C 74.38 115.99 72.18 118.16 69.02 118.19
  A 0.96 0.95 14.8 0 0 68.22 118.65
  Q 67.49 119.83 67.87 121.24"
/>
<path stroke="#656669" vector-effect="non-scaling-stroke" d="
  M 67.87 121.24
  Q 65.99 122.43 66.06 124.07"
/>
<path stroke="#545454" vector-effect="non-scaling-stroke" d="
  M 53.65 123.15
  L 54.01 121.99"
/>
<path stroke="#848486" vector-effect="non-scaling-stroke" d="
  M 54.01 121.99
  Q 53.70 118.87 50.18 117.88"
/>
<path stroke="#545454" vector-effect="non-scaling-stroke" d="
  M 50.18 117.88
  Q 49.77 116.33 49.06 115.83"
/>
<path stroke="#848486" vector-effect="non-scaling-stroke" d="
  M 49.06 115.83
  Q 47.99 111.75 45.82 112.02"
/>
<path stroke="#848486" vector-effect="non-scaling-stroke" d="
  M 44.82 110.10
  L 46.49 109.84
  Q 47.18 109.74 46.84 109.13
  L 46.14 107.88
  Q 45.92 107.49 45.96 107.05
  Q 46.11 105.22 45.55 103.45
  Q 45.39 102.95 45.56 102.44
  Q 46.69 99.30 43.15 97.98"
/>
<path stroke="#636465" vector-effect="non-scaling-stroke" d="
  M 61.94 98.43
  L 58.55 94.60"
/>
<path stroke="#535457" vector-effect="non-scaling-stroke" d="
  M 98.19 69.52
  Q 97.50 71.29 99.00 73.03
  A 0.53 0.52 77.6 0 1 98.46 73.88
  L 95.97 73.18"
/>
<path stroke="#737476" vector-effect="non-scaling-stroke" d="
  M 95.97 73.18
  L 92.24 72.72"
/>
<path stroke="#636465" vector-effect="non-scaling-stroke" d="
  M 61.48 99.41
  Q 60.42 97.48 58.53 96.48"
/>
<path stroke="#a3a4a7" vector-effect="non-scaling-stroke" d="
  M 91.74 95.97
  Q 91.38 96.07 91.11 96.33
  Q 90.86 96.57 90.86 96.92
  L 90.87 97.30"
/>
<path stroke="#a3a4a7" vector-effect="non-scaling-stroke" d="
  M 87.34 97.53
  L 87.51 97.05
  Q 87.84 96.11 86.98 96.62
  L 80.51 100.45
  Q 80.31 100.57 80.37 100.79
  Q 80.45 101.11 80.15 101.33"
/>
<path stroke="#444648" vector-effect="non-scaling-stroke" d="
  M 80.15 101.33
  Q 79.79 101.59 79.66 102.33"
/>
<path stroke="#a3a4a7" vector-effect="non-scaling-stroke" d="
  M 79.66 102.33
  L 79.10 102.48"
/>
<path stroke="#a3a4a7" vector-effect="non-scaling-stroke" d="
  M 77.19 101.80
  Q 76.35 100.96 75.23 102.02
  Q 74.89 102.34 74.96 102.81
  Q 75.38 105.47 73.62 107.37
  A 0.37 0.37 0.0 0 1 73.01 107.27
  Q 72.95 107.14 72.89 107.02
  Q 72.65 106.52 73.04 106.14
  Q 74.28 104.93 73.89 103.23
  A 0.53 0.53 0.0 0 0 72.85 103.24
  L 72.29 105.90"
/>
<path stroke="#444648" vector-effect="non-scaling-stroke" d="
  M 68.06 109.43
  L 65.35 101.67"
/>
<path stroke="#929293" vector-effect="non-scaling-stroke" d="
  M 50.18 117.88
  Q 49.77 118.14 49.97 118.59
  Q 50.16 119.01 50.62 119.05
  Q 52.53 119.22 54.01 121.99"
/>
<path stroke="#636465" vector-effect="non-scaling-stroke" d="
  M 79.87 105.20
  Q 81.45 103.10 79.66 102.33"
/>
<path stroke="#929293" vector-effect="non-scaling-stroke" d="
  M 49.06 115.83
  Q 48.01 115.95 47.59 114.00
  Q 47.40 113.08 45.62 112.49"
/>
<path stroke="#929293" vector-effect="non-scaling-stroke" d="
  M 88.01 99.65
  Q 87.81 100.62 86.47 100.66
  A 0.62 0.62 0.0 0 0 85.88 101.22
  L 85.84 101.75
  A 0.46 0.46 0.0 0 0 86.48 102.21
  Q 88.32 101.39 88.28 102.40"
/>
<path stroke="#7b7b7e" vector-effect="non-scaling-stroke" d="
  M 84.25 103.04
  Q 84.71 103.02 84.95 102.80
  Q 85.17 102.58 85.08 102.16
  Q 84.98 101.70 84.71 101.24
  Q 84.44 100.76 84.13 101.22
  Q 83.76 101.79 83.91 102.61"
/>
<path stroke="#636465" vector-effect="non-scaling-stroke" d="
  M 81.92 105.01
  Q 82.42 102.94 80.15 101.33"
/>
<path stroke="#737476" vector-effect="non-scaling-stroke" d="
  M 111.96 105.01
  Q 111.06 105.31 110.42 104.75
  Q 110.00 104.38 110.11 103.84
  Q 110.35 102.56 109.57 101.58
  A 0.50 0.50 0.0 0 0 108.72 101.69
  C 106.81 106.07 104.62 106.36 100.92 108.58
  Q 99.46 109.46 97.62 109.91
  Q 95.13 110.52 92.84 111.62
  Q 90.13 112.93 88.15 113.41
  Q 81.32 115.07 78.73 116.61
  Q 75.60 118.47 73.71 118.92
  Q 73.23 119.03 72.84 119.32
  Q 70.63 120.97 67.87 121.24"
/>
<path stroke="#d6d6d7" vector-effect="non-scaling-stroke" d="
  M 57.93 99.20
  Q 58.14 99.48 58.49 99.52"
/>
<path stroke="#b7b8ba" vector-effect="non-scaling-stroke" d="
  M 62.19 108.14
  L 62.39 111.13"
/>
<path stroke="#777878" vector-effect="non-scaling-stroke" d="
  M 24.50 73.94
  L 29.14 73.93
  A 0.79 0.79 0.0 0 0 29.93 73.11
  L 29.90 72.41
  Q 29.89 72.21 29.69 72.23
  L 22.32 73.04
  A 0.47 0.47 0.0 0 0 22.04 73.84
  L 24.08 75.90
  A 0.64 0.64 0.0 0 0 25.02 75.04
  Q 24.71 74.68 24.35 74.44
  Q 23.62 73.94 24.50 73.94"
/>
<path stroke="#777878" vector-effect="non-scaling-stroke" d="
  M 35.2822 66.2531
  A 1.94 0.78 -17.3 0 0 33.1980 66.0853
  A 1.94 0.78 -17.3 0 0 31.5778 67.4069
  A 1.94 0.78 -17.3 0 0 33.6620 67.5747
  A 1.94 0.78 -17.3 0 0 35.2822 66.2531"
/>
<path stroke="#777878" vector-effect="non-scaling-stroke" d="
  M 28.4454 68.2300
  A 2.78 1.00 -3.3 0 0 25.6124 67.3917
  A 2.78 1.00 -3.3 0 0 22.8946 68.5500
  A 2.78 1.00 -3.3 0 0 25.7276 69.3883
  A 2.78 1.00 -3.3 0 0 28.4454 68.2300"
/>
<path stroke="#777878" vector-effect="non-scaling-stroke" d="
  M 34.9757 73.0220
  A 0.81 0.57 38.3 0 0 34.6933 72.0727
  A 0.81 0.57 38.3 0 0 33.7043 72.0180
  A 0.81 0.57 38.3 0 0 33.9867 72.9673
  A 0.81 0.57 38.3 0 0 34.9757 73.0220"
/>
<path stroke="#8f8f91" vector-effect="non-scaling-stroke" d="
  M 35.32 84.90
  A 0.38 0.38 0.0 0 1 35.51 85.60
  Q 33.55 86.87 31.90 88.49
  A 0.22 0.22 0.0 0 0 32.15 88.85
  Q 35.11 87.55 37.30 85.29
  A 0.63 0.63 0.0 0 0 36.95 84.23
  L 32.89 83.59
  A 0.44 0.44 0.0 0 0 32.41 84.18
  L 32.50 84.42
  A 0.52 0.50 80.5 0 0 32.96 84.76
  L 35.32 84.90"
/>
<path stroke="#929293" vector-effect="non-scaling-stroke" d="
  M 106.33 79.56
  Q 105.46 79.78 104.91 80.43
  A 0.44 0.44 0.0 0 0 105.55 81.03
  L 106.59 80.02
  Q 107.31 79.32 106.33 79.56"
/>
<path stroke="#868687" vector-effect="non-scaling-stroke" d="
  M 30.3448 95.7117
  A 4.21 2.65 -10.1 0 0 25.7353 93.8411
  A 4.21 2.65 -10.1 0 0 22.0552 97.1883
  A 4.21 2.65 -10.1 0 0 26.6647 99.0589
  A 4.21 2.65 -10.1 0 0 30.3448 95.7117"
/>
<path stroke="#868687" vector-effect="non-scaling-stroke" d="
  M 30.1165 102.5119
  A 2.38 2.38 0.0 0 0 27.5306 100.3574
  L 24.3836 100.6438
  A 2.38 2.38 0.0 0 0 22.2291 103.2297
  L 22.2635 103.6081
  A 2.38 2.38 0.0 0 0 24.8494 105.7626
  L 27.9964 105.4762
  A 2.38 2.38 0.0 0 0 30.1509 102.8903
  L 30.1165 102.5119"
/>
<path stroke="#717274" vector-effect="non-scaling-stroke" d="
  M 26.86 119.71
  L 26.43 117.61
  A 0.43 0.43 0.0 0 0 25.58 117.62
  L 25.21 119.76
  Q 25.10 120.38 24.47 120.33
  L 23.91 120.29
  A 0.57 0.56 -88.9 0 1 23.38 119.73
  L 23.35 117.00
  A 0.51 0.50 -44.4 0 0 22.34 116.99
  L 22.21 120.56
  Q 22.18 121.36 22.99 121.34
  Q 26.81 121.26 29.42 120.92
  Q 29.87 120.87 29.92 120.43
  Q 29.97 120.01 29.54 120.04
  L 27.49 120.19
  Q 26.97 120.23 26.86 119.71"
/>
<path stroke="#868687" vector-effect="non-scaling-stroke" d="
  M 28.78 123.21
  L 29.41 122.73
  A 0.28 0.28 0.0 0 0 29.18 122.24
  L 24.73 123.24
  A 0.33 0.33 0.0 0 0 24.80 123.90
  L 27.73 123.88
  Q 28.06 123.88 28.14 124.20
  Q 28.19 124.37 28.15 124.54
  Q 28.03 125.05 27.51 125.10
  L 24.69 125.37
  Q 24.13 125.42 24.31 125.96
  Q 24.36 126.10 24.49 126.21
  Q 24.68 126.37 25.09 126.33
  Q 27.38 126.09 29.56 126.89
  A 0.30 0.30 0.0 0 0 29.83 126.36
  L 28.81 125.66
  A 0.40 0.40 0.0 0 1 28.75 125.05
  L 29.04 124.76
  Q 29.29 124.50 29.03 124.25
  L 28.73 123.96
  Q 28.32 123.56 28.78 123.21"
/>
<path stroke="#777878" vector-effect="non-scaling-stroke" d="
  M 84.13 88.38
  Q 83.50 87.46 82.80 88.47
  A 0.67 0.67 0.0 0 0 83.05 89.46
  L 84.28 90.06
  A 0.34 0.33 7.8 0 0 84.76 89.70
  L 84.69 89.28
  A 1.19 0.06 55.4 0 0 84.13 88.38"
/>
<path stroke="#777878" vector-effect="non-scaling-stroke" d="
  M 74.01 94.81
  Q 73.59 93.24 72.27 92.30
  A 0.45 0.44 -87.6 0 0 71.63 92.89
  L 73.05 95.34
  A 0.48 0.47 -20.6 0 1 72.73 96.04
  Q 72.05 96.19 71.51 95.47
  Q 70.56 94.21 69.88 92.73
  Q 69.67 92.28 69.20 92.40
  L 66.43 93.09
  A 0.50 0.50 0.0 0 0 66.12 93.83
  L 68.52 97.89
  Q 68.84 98.43 69.41 98.20
  L 85.53 91.87
  Q 85.63 91.83 85.66 91.73
  Q 85.71 91.57 85.76 91.42
  A 0.22 0.22 0.0 0 0 85.41 91.19
  L 84.86 91.61
  Q 84.46 91.93 84.05 91.61
  Q 83.27 91.01 82.42 91.88
  A 0.62 0.61 -40.3 0 1 81.48 91.81
  L 79.87 89.57
  Q 79.61 89.20 79.28 89.51
  Q 79.13 89.66 79.11 89.90
  Q 79.09 90.18 79.34 90.56
  Q 79.92 91.46 80.52 92.38
  Q 80.91 92.96 80.21 92.94
  L 79.68 92.92
  Q 79.06 92.90 78.86 92.31
  L 78.60 91.54
  A 0.21 0.21 0.0 0 0 78.20 91.61
  L 78.22 93.32
  A 0.70 0.70 0.0 0 1 77.51 94.03
  Q 75.92 93.99 74.82 95.03
  Q 74.23 95.60 74.01 94.81"
/>
<path stroke="#a6a6a6" vector-effect="non-scaling-stroke" d="
  M 75.82 92.28
  L 75.96 92.90
  A 0.36 0.36 0.0 0 0 76.65 92.93
  L 77.02 91.71
  Q 77.27 90.89 76.44 91.08
  L 75.41 91.32
  Q 75.13 91.39 75.33 91.59
  L 75.58 91.84
  Q 75.77 92.02 75.82 92.28"
/>
<path stroke="#848486" vector-effect="non-scaling-stroke" d="
  M 87.88 87.61
  L 87.56 88.04
  Q 86.78 89.10 87.91 88.42
  L 88.82 87.87
  A 0.62 0.61 48.5 0 0 88.88 86.86
  Q 88.22 86.35 87.98 87.39
  Q 87.95 87.51 87.88 87.61"
/>
<path stroke="#929293" vector-effect="non-scaling-stroke" d="
  M 103.70 94.60
  L 104.77 95.06
  A 0.21 0.21 0.0 0 0 105.04 94.95
  L 105.50 93.89
  A 2.95 0.64 -66.7 0 0 106.08 90.93
  L 105.81 90.81
  A 2.95 0.64 -66.7 0 0 104.05 93.26
  L 103.59 94.33
  A 0.21 0.21 0.0 0 0 103.70 94.60"
/>
<path stroke="#777878" vector-effect="non-scaling-stroke" d="
  M 29.3039 96.1569
  A 3.13 1.59 -7.4 0 0 25.9952 94.9832
  A 3.13 1.59 -7.4 0 0 23.0961 96.9631
  A 3.13 1.59 -7.4 0 0 26.4048 98.1368
  A 3.13 1.59 -7.4 0 0 29.3039 96.1569"
/>
<path stroke="#929293" vector-effect="non-scaling-stroke" d="
  M 82.81 102.24
  Q 83.49 101.29 82.93 100.28
  A 0.45 0.44 -59.6 0 0 82.10 100.50
  L 82.10 102.02
  A 0.39 0.39 0.0 0 0 82.81 102.24"
/>
<path stroke="#777878" vector-effect="non-scaling-stroke" d="
  M 36.0566 100.1578
  A 0.96 0.96 0.0 0 0 34.7753 99.7091
  L 33.0813 100.5244
  A 0.96 0.96 0.0 0 0 32.6325 101.8057
  L 32.8234 102.2022
  A 0.96 0.96 0.0 0 0 34.1047 102.6509
  L 35.7987 101.8356
  A 0.96 0.96 0.0 0 0 36.2475 100.5543
  L 36.0566 100.1578"
/>
<path stroke="#777878" vector-effect="non-scaling-stroke" d="
  M 29.3316 102.6079
  A 3.15 1.52 -7.7 0 0 26.0063 101.5237
  A 3.15 1.52 -7.7 0 0 23.0884 103.4521
  A 3.15 1.52 -7.7 0 0 26.4137 104.5363
  A 3.15 1.52 -7.7 0 0 29.3316 102.6079"
/>
</g>
<path fill="#ffffff" d="
  M 0.00 0.00
  L 152.00 0.00
  L 152.00 130.00
  L 0.00 130.00
  L 0.00 0.00
  Z
  M 12.25 56.46
  L 6.02 57.27
  Q 3.36 57.54 1.46 58.93
  Q 0.28 60.20 1.36 62.41
  L 1.56 75.50
  Q 1.96 107.46 1.73 118.50
  Q 1.63 123.03 2.86 124.99
  Q 6.18 127.48 10.19 127.91
  Q 23.74 130.65 36.84 125.84
  Q 37.93 124.62 38.05 125.30
  Q 41.15 119.32 40.01 112.50
  C 39.56 109.83 39.95 108.70 39.99 106.42
  Q 40.24 91.78 39.49 77.16
  Q 39.48 77.07 39.42 77.00
  L 38.99 76.58
  Q 38.82 76.40 38.86 76.16
  Q 39.21 74.10 39.35 72.00
  C 39.57 68.88 38.09 66.09 38.44 62.64
  C 42.65 58.82 34.28 56.54 31.54 56.58
  Q 29.44 54.92 29.90 60.36
  Q 29.45 59.73 29.68 60.68
  Q 28.70 61.28 28.56 60.50
  Q 28.24 58.80 28.58 56.31
  Q 28.65 55.81 28.14 55.81
  L 14.22 55.80
  L 13.84 55.35
  A 1.36 1.35 -66.1 0 1 13.51 54.49
  Q 12.89 27.87 12.64 1.25
  Q 12.63 0.24 11.96 0.23
  A 0.39 0.38 -89.3 0 0 11.57 0.62
  L 12.25 56.46
  Z
  M 28.52 53.99
  L 29.52 53.98
  A 0.21 0.21 0.0 0 0 29.73 53.77
  L 29.73 53.59
  A 41.73 0.68 89.2 0 0 28.47 11.87
  L 28.41 11.87
  A 41.73 0.68 89.2 0 0 28.31 53.61
  L 28.31 53.79
  A 0.21 0.21 0.0 0 0 28.52 53.99
  Z
  M 99.16 69.55
  Q 98.45 70.16 98.19 69.52
  L 92.24 72.72
  L 68.02 81.83
  L 56.11 86.31
  L 51.96 87.78
  L 48.90 88.49
  Q 43.46 91.27 43.15 97.98
  Q 42.35 104.16 44.82 110.10
  Q 45.13 112.52 45.82 112.02
  Q 45.72 112.25 45.62 112.49
  Q 48.21 118.98 53.65 123.15
  Q 59.33 127.76 66.06 124.07
  Q 84.83 116.49 103.46 108.46
  C 104.78 107.89 105.93 106.84 107.35 106.20
  Q 107.82 105.99 108.32 106.11
  Q 110.58 106.62 111.96 105.01
  L 115.25 101.98
  Q 118.32 96.12 116.70 89.17
  Q 116.99 88.57 116.78 87.34
  A 0.86 0.85 -14.6 0 1 117.35 86.38
  L 151.25 74.41
  A 0.35 0.35 0.0 0 0 151.20 73.73
  Q 150.69 73.63 149.99 73.87
  Q 133.70 79.47 117.27 84.68
  Q 117.12 84.72 117.12 84.75
  Q 117.11 84.90 117.10 85.05
  Q 117.09 85.27 116.87 85.23
  L 115.73 85.04
  L 114.71 82.11
  A 0.52 0.51 69.0 0 0 114.02 81.80
  L 109.29 83.79
  L 98.82 88.07
  A 1.12 1.11 -27.5 0 1 97.47 87.65
  L 93.75 81.95
  A 1.07 1.06 63.3 0 1 94.27 80.37
  L 98.34 78.89
  Q 98.82 78.72 99.21 79.05
  Q 100.30 79.98 102.23 79.25
  Q 102.74 80.94 104.21 81.69
  Q 104.57 81.87 104.61 82.28
  Q 104.64 82.53 104.75 82.73
  Q 104.81 83.05 104.50 83.32
  Q 104.15 83.61 103.88 83.25
  L 101.83 80.51
  A 0.33 0.33 0.0 0 0 101.36 80.45
  Q 101.22 80.55 101.11 80.65
  Q 100.83 80.87 101.03 81.17
  L 102.52 83.50
  A 0.64 0.64 0.0 0 1 101.47 84.22
  L 99.03 80.87
  Q 98.73 80.46 98.24 80.63
  L 96.14 81.35
  Q 95.51 81.57 95.85 82.15
  L 98.20 86.00
  Q 98.47 86.45 98.97 86.26
  L 109.11 82.35
  Q 109.31 82.27 109.37 82.13
  L 113.86 80.36
  Q 123.38 76.96 133.15 73.76
  Q 133.93 73.51 134.21 72.86
  A 0.47 0.46 -86.9 0 0 133.65 72.23
  Q 124.30 75.13 115.19 78.38
  C 114.00 78.81 113.35 78.46 112.37 77.83
  L 111.66 76.71
  Q 111.31 76.16 111.14 76.79
  L 110.93 77.59
  Q 110.73 78.36 110.12 77.85
  Q 109.65 77.46 109.53 76.47
  L 110.03 76.07
  Q 110.44 75.73 110.14 75.29
  Q 105.89 69.16 99.16 69.55
  Z"
/>
<path fill="#c1c2c4" d="
  M 14.22 55.80
  Q 13.44 56.88 13.82 58.91
  Q 13.05 60.42 12.21 60.05
  L 12.25 56.46
  L 11.57 0.62
  A 0.39 0.38 -89.3 0 1 11.96 0.23
  Q 12.63 0.24 12.64 1.25
  Q 12.89 27.87 13.51 54.49
  A 1.36 1.35 -66.1 0 0 13.84 55.35
  L 14.22 55.80
  Z"
/>
<path fill="#c1c2c4" d="
  M 28.52 53.99
  A 0.21 0.21 0.0 0 1 28.31 53.79
  L 28.31 53.61
  A 41.73 0.68 89.2 0 1 28.41 11.87
  L 28.47 11.87
  A 41.73 0.68 89.2 0 1 29.73 53.59
  L 29.73 53.77
  A 0.21 0.21 0.0 0 1 29.52 53.98
  L 28.52 53.99
  Z"
/>
<path fill="#040506" d="
  M 29.68 60.68
  Q 30.41 63.27 32.15 63.97
  L 30.30 63.34
  Q 29.66 62.65 29.59 62.98
  Q 28.68 62.63 28.54 61.80
  Q 28.46 61.33 28.00 61.22
  Q 27.04 61.00 26.15 61.22
  Q 25.15 59.89 26.74 59.41
  A 0.81 0.81 0.0 0 0 26.52 57.82
  L 15.76 57.69
  Q 14.95 57.68 15.02 58.48
  L 15.26 61.19
  Q 13.94 61.24 13.82 58.91
  Q 13.44 56.88 14.22 55.80
  L 28.14 55.81
  Q 28.65 55.81 28.58 56.31
  Q 28.24 58.80 28.56 60.50
  Q 28.70 61.28 29.68 60.68
  Z"
/>
<path fill="#040506" d="
  M 31.54 56.58
  Q 34.47 57.53 33.78 58.24
  L 33.05 59.44
  Q 31.01 61.47 29.90 60.36
  Q 29.44 54.92 31.54 56.58
  Z"
/>
<path fill="#040506" d="
  M 12.25 56.46
  L 12.21 60.05
  Q 12.24 60.86 11.83 61.21
  C 9.51 60.40 6.29 60.25 6.02 57.27
  L 12.25 56.46
  Z"
/>
<path fill="#c1c2c4" d="
  M 31.54 56.58
  C 34.28 56.54 42.65 58.82 38.44 62.64
  L 37.75 63.23
  Q 37.79 61.06 36.58 60.67
  Q 40.22 59.57 33.78 58.24
  Q 34.47 57.53 31.54 56.58
  Z"
/>
<path fill="#84868a" d="
  M 6.02 57.27
  C 6.29 60.25 9.51 60.40 11.83 61.21
  Q 12.32 62.43 9.69 62.09
  L 3.20 60.79
  Q 2.65 60.68 2.56 60.11
  Q 2.34 58.73 1.46 58.93
  Q 3.36 57.54 6.02 57.27
  Z"
/>
<path fill="#343337" d="
  M 26.15 61.22
  Q 25.46 61.97 24.44 61.69
  Q 22.87 61.09 21.41 61.74
  Q 20.94 61.95 20.44 61.88
  L 15.26 61.19
  L 15.02 58.48
  Q 14.95 57.68 15.76 57.69
  L 26.52 57.82
  A 0.81 0.81 0.0 0 1 26.74 59.41
  Q 25.15 59.89 26.15 61.22
  Z"
/>
<path fill="#ffffff" d="
  M 36.58 60.67
  L 34.47 60.57
  L 33.71 60.58
  Q 33.16 60.59 33.10 60.04
  L 33.05 59.44
  L 33.78 58.24
  Q 40.22 59.57 36.58 60.67
  Z"
/>
<path fill="#040506" d="
  M 1.46 58.93
  Q 2.34 58.73 2.56 60.11
  Q 2.65 60.68 3.20 60.79
  L 9.69 62.09
  Q 10.53 62.15 11.28 62.37
  Q 12.62 62.77 11.22 62.86
  L 9.04 62.99
  Q 8.64 63.02 8.64 63.41
  Q 8.65 63.95 9.00 63.97
  Q 13.38 64.13 21.68 63.85
  L 24.04 65.24
  Q 24.94 65.62 24.39 66.36
  Q 23.37 66.36 22.62 66.92
  A 1.93 1.93 0.0 0 0 22.97 70.24
  Q 26.07 71.64 29.01 69.85
  Q 30.36 70.01 31.52 69.14
  Q 36.93 69.57 36.51 64.64
  L 37.08 64.08
  Q 36.19 68.49 37.69 70.58
  Q 37.32 74.27 36.54 74.30
  Q 35.43 72.54 36.32 70.67
  Q 36.58 70.13 36.00 70.01
  L 35.05 69.82
  Q 34.46 69.70 34.08 70.17
  Q 33.05 71.43 31.23 71.10
  A 0.45 0.44 -22.2 0 0 30.89 71.90
  L 34.24 74.21
  Q 31.23 74.01 30.62 74.42
  L 26.88 75.46
  Q 26.37 75.60 26.12 76.07
  Q 25.59 77.07 24.60 77.25
  Q 24.09 77.35 23.68 77.03
  Q 22.22 75.88 20.27 75.77
  Q 20.23 75.76 20.22 75.80
  Q 20.19 75.94 20.15 76.05
  A 0.30 0.29 15.9 0 1 19.84 76.22
  L 12.45 75.23
  Q 12.05 74.91 12.13 74.20
  Q 12.19 73.69 12.63 73.42
  L 13.34 72.97
  A 0.48 0.47 42.4 0 0 13.30 72.15
  Q 10.02 70.42 7.24 72.56
  Q 6.83 72.89 6.30 72.88
  Q 4.81 72.87 3.27 72.18
  Q 1.81 71.82 2.13 69.82
  Q 2.19 69.42 2.60 69.45
  L 21.09 70.88
  Q 22.14 70.96 21.26 70.37
  L 20.69 69.99
  Q 20.36 69.76 20.53 69.39
  Q 21.30 67.74 21.71 65.89
  Q 21.84 65.30 21.24 65.35
  Q 12.62 66.13 9.99 65.29
  Q 5.69 63.93 1.36 62.41
  Q 0.28 60.20 1.46 58.93
  Z
  M 24.50 73.94
  L 29.14 73.93
  A 0.79 0.79 0.0 0 0 29.93 73.11
  L 29.90 72.41
  Q 29.89 72.21 29.69 72.23
  L 22.32 73.04
  A 0.47 0.47 0.0 0 0 22.04 73.84
  L 24.08 75.90
  A 0.64 0.64 0.0 0 0 25.02 75.04
  Q 24.71 74.68 24.35 74.44
  Q 23.62 73.94 24.50 73.94
  Z"
/>
<path fill="#626161" d="
  M 13.82 58.91
  Q 13.94 61.24 15.26 61.19
  L 20.44 61.88
  Q 20.94 61.95 21.41 61.74
  Q 22.87 61.09 24.44 61.69
  Q 24.29 61.70 24.14 61.76
  Q 23.82 61.87 23.86 62.20
  Q 23.98 63.04 25.75 62.92
  Q 23.35 62.82 23.94 63.77
  Q 23.47 63.17 22.93 62.84
  Q 22.39 62.51 22.05 62.82
  Q 21.73 63.12 21.68 63.85
  Q 13.38 64.13 9.00 63.97
  Q 8.65 63.95 8.64 63.41
  Q 8.64 63.02 9.04 62.99
  L 11.22 62.86
  Q 12.62 62.77 11.28 62.37
  Q 10.53 62.15 9.69 62.09
  Q 12.32 62.43 11.83 61.21
  Q 12.24 60.86 12.21 60.05
  Q 13.05 60.42 13.82 58.91
  Z"
/>
<path fill="#c1c2c4" d="
  M 33.05 59.44
  L 33.10 60.04
  Q 33.16 60.59 33.71 60.58
  L 34.47 60.57
  Q 33.11 60.62 32.56 61.30
  A 1.01 1.01 0.0 0 0 33.65 62.90
  Q 34.70 62.56 35.16 61.45
  Q 35.47 60.69 35.87 61.40
  L 36.32 62.18
  A 0.59 0.59 0.0 0 1 36.13 62.96
  Q 34.31 64.14 32.15 63.97
  Q 30.41 63.27 29.68 60.68
  Q 29.45 59.73 29.90 60.36
  Q 31.01 61.47 33.05 59.44
  Z"
/>
<path fill="#212123" d="
  M 34.47 60.57
  L 36.58 60.67
  Q 37.79 61.06 37.75 63.23
  Q 37.10 63.77 37.08 64.08
  L 36.51 64.64
  Q 32.62 63.77 30.80 66.79
  A 0.90 0.89 47.2 0 0 30.77 67.65
  L 31.52 69.14
  Q 30.36 70.01 29.01 69.85
  L 29.63 67.73
  Q 29.79 67.18 29.35 66.82
  Q 27.58 65.38 24.39 66.36
  Q 24.94 65.62 24.04 65.24
  Q 28.20 65.38 30.30 63.34
  L 32.15 63.97
  Q 34.31 64.14 36.13 62.96
  A 0.59 0.59 0.0 0 0 36.32 62.18
  L 35.87 61.40
  Q 35.47 60.69 35.16 61.45
  Q 34.70 62.56 33.65 62.90
  A 1.01 1.01 0.0 0 1 32.56 61.30
  Q 33.11 60.62 34.47 60.57
  Z"
/>
<path fill="#c1c2c4" d="
  M 29.59 62.98
  L 28.52 63.08
  Q 27.85 61.94 25.75 62.92
  Q 23.98 63.04 23.86 62.20
  Q 23.82 61.87 24.14 61.76
  Q 24.29 61.70 24.44 61.69
  Q 25.46 61.97 26.15 61.22
  Q 27.04 61.00 28.00 61.22
  Q 28.46 61.33 28.54 61.80
  Q 28.68 62.63 29.59 62.98
  Z"
/>
<path fill="#464647" d="
  M 1.36 62.41
  Q 5.69 63.93 9.99 65.29
  Q 12.62 66.13 21.24 65.35
  Q 21.84 65.30 21.71 65.89
  Q 21.30 67.74 20.53 69.39
  Q 20.36 69.76 20.69 69.99
  L 21.26 70.37
  Q 22.14 70.96 21.09 70.88
  L 2.60 69.45
  Q 2.19 69.42 2.13 69.82
  Q 1.81 71.82 3.27 72.18
  Q 3.61 74.50 4.18 76.60
  Q 4.91 79.30 4.94 80.98
  Q 5.00 84.02 4.60 87.02
  C 3.73 93.39 4.32 99.86 4.70 106.25
  Q 4.80 107.99 4.09 111.13
  C 3.25 114.88 3.70 118.50 3.30 122.29
  Q 3.25 114.09 3.17 105.89
  C 3.11 98.88 4.09 87.41 3.07 78.03
  Q 3.02 77.61 2.71 77.34
  Q 2.11 76.82 1.56 75.50
  L 1.36 62.41
  Z"
/>
<path fill="#212123" d="
  M 28.52 63.08
  Q 26.42 64.83 23.94 63.77
  Q 23.35 62.82 25.75 62.92
  Q 27.85 61.94 28.52 63.08
  Z"
/>
<path fill="#eaeaea" d="
  M 38.44 62.64
  C 38.09 66.09 39.57 68.88 39.35 72.00
  Q 39.21 74.10 38.86 76.16
  Q 38.82 76.40 38.99 76.58
  L 39.42 77.00
  Q 39.48 77.07 39.49 77.16
  Q 40.24 91.78 39.99 106.42
  C 39.95 108.70 39.56 109.83 40.01 112.50
  Q 41.15 119.32 38.05 125.30
  L 37.69 70.58
  Q 36.19 68.49 37.08 64.08
  Q 37.10 63.77 37.75 63.23
  L 38.44 62.64
  Z"
/>
<path fill="#eaeaea" d="
  M 23.94 63.77
  Q 26.42 64.83 28.52 63.08
  L 29.59 62.98
  Q 29.66 62.65 30.30 63.34
  Q 28.20 65.38 24.04 65.24
  L 21.68 63.85
  Q 21.73 63.12 22.05 62.82
  Q 22.39 62.51 22.93 62.84
  Q 23.47 63.17 23.94 63.77
  Z"
/>
<path fill="#eaeaea" d="
  M 36.51 64.64
  Q 36.93 69.57 31.52 69.14
  L 30.77 67.65
  A 0.90 0.89 47.2 0 1 30.80 66.79
  Q 32.62 63.77 36.51 64.64
  Z
  M 35.2822 66.2531
  A 1.94 0.78 -17.3 0 0 33.1980 66.0853
  A 1.94 0.78 -17.3 0 0 31.5778 67.4069
  A 1.94 0.78 -17.3 0 0 33.6620 67.5747
  A 1.94 0.78 -17.3 0 0 35.2822 66.2531
  Z"
/>
<path fill="#eaeaea" d="
  M 29.01 69.85
  Q 26.07 71.64 22.97 70.24
  A 1.93 1.93 0.0 0 1 22.62 66.92
  Q 23.37 66.36 24.39 66.36
  Q 27.58 65.38 29.35 66.82
  Q 29.79 67.18 29.63 67.73
  L 29.01 69.85
  Z
  M 28.4454 68.2300
  A 2.78 1.00 -3.3 0 0 25.6124 67.3917
  A 2.78 1.00 -3.3 0 0 22.8946 68.5500
  A 2.78 1.00 -3.3 0 0 25.7276 69.3883
  A 2.78 1.00 -3.3 0 0 28.4454 68.2300
  Z"
/>
<ellipse fill="#040506" cx="0.00" cy="0.00" transform="translate(33.43,66.83) rotate(-17.3)" rx="1.94" ry="0.78"/>
<ellipse fill="#040506" cx="0.00" cy="0.00" transform="translate(25.67,68.39) rotate(-3.3)" rx="2.78" ry="1.00"/>
<path fill="#eaeaea" d="
  M 36.54 74.30
  Q 36.40 74.15 36.38 74.63
  Q 36.36 75.01 36.02 74.84
  Q 34.73 74.17 34.24 74.21
  L 30.89 71.90
  A 0.45 0.44 -22.2 0 1 31.23 71.10
  Q 33.05 71.43 34.08 70.17
  Q 34.46 69.70 35.05 69.82
  L 36.00 70.01
  Q 36.58 70.13 36.32 70.67
  Q 35.43 72.54 36.54 74.30
  Z
  M 34.9757 73.0220
  A 0.81 0.57 38.3 0 0 34.6933 72.0727
  A 0.81 0.57 38.3 0 0 33.7043 72.0180
  A 0.81 0.57 38.3 0 0 33.9867 72.9673
  A 0.81 0.57 38.3 0 0 34.9757 73.0220
  Z"
/>
<path fill="#040506" d="
  M 109.53 76.47
  Q 108.73 76.69 109.23 76.35
  Q 108.30 74.76 106.18 74.05
  Q 105.73 73.90 105.60 74.36
  Q 104.95 76.64 106.48 77.69
  Q 105.90 78.55 104.52 78.34
  Q 103.99 78.26 103.60 78.62
  Q 102.87 79.29 102.23 79.25
  Q 100.30 79.98 99.21 79.05
  Q 98.82 78.72 98.34 78.89
  L 94.27 80.37
  A 1.07 1.06 63.3 0 0 93.75 81.95
  L 97.47 87.65
  A 1.12 1.11 -27.5 0 0 98.82 88.07
  L 109.29 83.79
  Q 109.81 83.74 109.89 84.68
  Q 109.65 85.72 110.20 84.99
  Q 109.08 86.94 109.12 87.86
  Q 108.61 89.43 110.03 90.22
  Q 110.25 90.80 110.13 91.25
  Q 110.05 91.54 109.54 91.29
  L 108.50 90.43
  L 107.94 87.28
  A 1.46 1.45 -20.9 0 0 105.74 86.30
  Q 102.49 88.30 98.72 89.08
  A 1.79 1.76 -39.9 0 1 97.71 89.00
  C 93.39 87.41 92.23 90.48 88.85 91.54
  Q 88.40 91.68 88.20 92.11
  Q 87.59 93.36 86.73 92.88
  Q 87.90 91.37 86.11 89.47
  Q 86.60 88.81 87.82 89.27
  A 2.03 2.03 0.0 0 0 90.46 86.72
  Q 90.22 86.02 89.13 84.92
  L 86.87 84.04
  A 0.75 0.74 -61.9 0 0 85.98 84.32
  L 84.57 86.40
  Q 84.33 86.74 83.91 86.73
  Q 82.19 86.66 81.00 87.88
  Q 80.69 88.19 80.26 88.11
  C 78.96 87.88 78.27 88.36 77.27 89.32
  Q 76.58 90.00 75.60 89.54
  Q 75.09 89.31 74.73 89.73
  L 73.60 91.05
  Q 73.37 91.32 73.04 91.18
  Q 72.03 90.75 70.93 91.36
  Q 70.54 91.57 70.24 91.23
  L 69.80 90.73
  A 0.63 0.63 0.0 0 0 69.12 90.55
  L 64.01 92.28
  Q 63.17 92.57 63.61 93.33
  L 67.38 99.83
  Q 67.41 100.35 67.23 100.78
  Q 66.99 101.34 66.50 100.99
  L 66.10 100.71
  Q 65.42 98.29 63.96 97.99
  Q 63.36 95.14 60.77 93.19
  Q 60.87 92.85 60.25 92.93
  A 0.26 0.26 0.0 0 1 60.11 92.43
  L 70.03 88.25
  Q 70.48 88.06 70.96 88.14
  Q 72.05 88.32 72.78 87.50
  Q 73.04 87.20 73.43 87.11
  Q 75.56 86.65 77.36 85.50
  Q 77.81 85.21 78.33 85.36
  Q 79.58 85.71 80.11 84.70
  A 0.92 0.91 -76.4 0 1 80.87 84.23
  Q 82.39 84.18 83.49 83.46
  Q 85.12 82.40 85.75 82.24
  Q 87.20 81.89 88.69 81.92
  Q 89.15 81.93 89.56 81.70
  L 99.17 76.29
  Q 99.71 75.99 100.00 76.53
  Q 101.15 78.69 103.17 76.83
  Q 103.51 76.52 103.51 76.06
  Q 103.50 71.60 99.11 70.92
  Q 98.49 70.82 98.78 70.27
  L 99.16 69.55
  Q 105.89 69.16 110.14 75.29
  Q 110.44 75.73 110.03 76.07
  L 109.53 76.47
  Z"
/>
<path fill="#84868a" d="
  M 98.19 69.52
  Q 97.50 71.29 99.00 73.03
  A 0.53 0.52 77.6 0 1 98.46 73.88
  L 95.97 73.18
  L 92.24 72.72
  L 98.19 69.52
  Z"
/>
<path fill="#212123" d="
  M 98.19 69.52
  Q 98.45 70.16 99.16 69.55
  L 98.78 70.27
  Q 98.49 70.82 99.11 70.92
  Q 103.50 71.60 103.51 76.06
  Q 103.51 76.52 103.17 76.83
  Q 101.15 78.69 100.00 76.53
  Q 99.71 75.99 99.17 76.29
  L 89.56 81.70
  Q 89.15 81.93 88.69 81.92
  Q 87.20 81.89 85.75 82.24
  Q 85.12 82.40 83.49 83.46
  Q 82.39 84.18 80.87 84.23
  A 0.92 0.91 -76.4 0 0 80.11 84.70
  Q 79.58 85.71 78.33 85.36
  Q 77.81 85.21 77.36 85.50
  Q 75.56 86.65 73.43 87.11
  Q 73.04 87.20 72.78 87.50
  Q 72.05 88.32 70.96 88.14
  Q 70.48 88.06 70.03 88.25
  L 60.11 92.43
  A 0.26 0.26 0.0 0 0 60.25 92.93
  Q 60.87 92.85 60.77 93.19
  Q 60.54 93.13 60.31 93.26
  Q 59.86 93.52 60.21 93.91
  L 63.96 97.99
  Q 65.42 98.29 66.10 100.71
  Q 65.61 101.19 66.05 101.36
  Q 65.82 101.58 65.35 101.67
  Q 65.12 98.94 61.94 98.43
  Q 60.96 94.34 57.78 92.70
  Q 57.15 92.37 57.52 92.98
  L 58.55 94.60
  Q 58.11 95.01 58.53 96.48
  Q 55.66 90.80 49.25 89.59
  Q 48.74 89.50 48.90 88.49
  L 51.96 87.78
  Q 55.60 88.18 56.11 86.31
  L 68.02 81.83
  Q 71.58 81.49 74.94 80.14
  Q 79.30 78.39 81.32 77.82
  Q 84.73 76.85 88.03 75.57
  C 89.40 75.04 91.47 74.80 93.08 73.62
  Q 93.45 73.35 93.91 73.32
  L 95.97 73.18
  L 98.46 73.88
  A 0.53 0.52 77.6 0 0 99.00 73.03
  Q 97.50 71.29 98.19 69.52
  Z"
/>
<path fill="#343337" d="
  M 37.69 70.58
  L 38.05 125.30
  Q 37.93 124.62 36.84 125.84
  L 35.81 125.45
  Q 35.52 125.34 35.82 125.25
  Q 35.99 125.19 36.13 125.09
  Q 36.44 124.85 36.07 124.96
  Q 35.63 125.08 35.11 125.15
  A 0.42 0.41 31.0 0 1 34.91 124.35
  L 36.96 123.59
  Q 37.37 123.44 37.37 123.00
  L 37.38 122.52
  Q 37.38 122.17 37.03 122.16
  Q 36.66 122.15 36.39 121.82
  Q 37.22 121.22 37.42 120.37
  Q 37.54 119.86 37.05 119.68
  Q 34.75 118.88 32.22 119.30
  Q 32.01 118.21 31.08 118.51
  A 0.39 0.39 0.0 0 0 30.81 118.78
  L 30.66 119.26
  A 0.34 0.34 0.0 0 1 30.00 119.24
  L 29.65 117.77
  Q 29.60 117.57 29.40 117.66
  Q 29.26 117.74 29.09 117.82
  Q 28.64 118.05 28.48 117.57
  Q 27.42 114.26 28.43 111.00
  Q 28.59 110.49 28.06 110.50
  Q 27.16 110.51 26.61 109.31
  Q 30.28 109.43 29.99 107.94
  Q 32.48 109.40 35.48 110.80
  Q 35.90 111.00 35.99 110.82
  Q 36.10 110.62 35.89 110.07
  Q 36.35 109.46 35.94 108.95
  Q 35.75 107.94 36.49 106.70
  Q 37.28 105.99 36.96 105.33
  Q 36.82 105.03 36.46 104.90
  Q 36.16 104.79 35.86 104.78
  Q 35.42 104.78 35.27 105.20
  L 35.07 105.77
  Q 35.22 104.71 34.88 104.24
  Q 34.63 103.90 33.97 103.91
  Q 37.84 103.12 36.99 99.34
  Q 36.88 98.83 36.50 98.57
  Q 36.15 98.32 35.64 98.10
  L 37.00 97.81
  Q 37.53 97.69 37.37 97.17
  Q 37.24 96.79 36.54 96.51
  Q 36.99 95.79 36.96 95.50
  Q 36.88 94.44 36.25 94.70
  L 36.03 93.63
  Q 36.75 94.33 37.06 93.01
  A 0.82 0.82 0.0 0 0 36.30 92.00
  Q 31.78 91.81 31.32 95.80
  Q 31.54 94.01 30.63 93.72
  Q 30.22 93.60 30.07 93.20
  L 29.74 92.34
  Q 29.98 91.38 29.02 90.81
  Q 28.63 90.57 28.80 90.15
  Q 29.17 89.22 28.92 88.11
  Q 29.93 86.12 29.27 83.73
  L 29.94 83.27
  A 0.30 0.30 0.0 0 0 29.74 82.72
  Q 28.11 82.89 27.83 81.78
  Q 28.47 79.96 29.78 78.67
  Q 30.34 78.12 29.56 78.12
  L 28.79 78.12
  Q 28.30 78.12 28.09 78.57
  Q 27.94 78.92 27.58 79.09
  A 0.54 0.54 0.0 0 1 26.90 78.30
  Q 28.05 76.69 29.97 76.87
  A 0.33 0.33 0.0 0 0 30.23 76.31
  L 29.81 75.90
  Q 29.42 75.52 29.82 75.15
  L 30.62 74.42
  Q 31.23 74.01 34.24 74.21
  Q 34.73 74.17 36.02 74.84
  Q 36.36 75.01 36.38 74.63
  Q 36.40 74.15 36.54 74.30
  Q 37.32 74.27 37.69 70.58
  Z
  M 35.32 84.90
  A 0.38 0.38 0.0 0 1 35.51 85.60
  Q 33.55 86.87 31.90 88.49
  A 0.22 0.22 0.0 0 0 32.15 88.85
  Q 35.11 87.55 37.30 85.29
  A 0.63 0.63 0.0 0 0 36.95 84.23
  L 32.89 83.59
  A 0.44 0.44 0.0 0 0 32.41 84.18
  L 32.50 84.42
  A 0.52 0.50 80.5 0 0 32.96 84.76
  L 35.32 84.90
  Z"
/>
<path fill="#343337" d="
  M 12.45 75.23
  Q 12.87 76.09 13.35 76.92
  Q 13.84 77.79 13.92 78.71
  Q 14.64 86.48 14.14 94.25
  Q 13.90 97.93 14.50 101.20
  Q 16.19 110.44 17.42 119.76
  Q 17.71 121.99 17.57 124.26
  Q 17.46 125.99 16.21 126.67
  C 14.08 127.82 11.40 125.68 10.19 127.91
  Q 6.18 127.48 2.86 124.99
  Q 3.41 123.57 3.30 122.29
  C 3.70 118.50 3.25 114.88 4.09 111.13
  Q 4.80 107.99 4.70 106.25
  C 4.32 99.86 3.73 93.39 4.60 87.02
  Q 5.00 84.02 4.94 80.98
  Q 4.91 79.30 4.18 76.60
  Q 3.61 74.50 3.27 72.18
  Q 4.81 72.87 6.30 72.88
  Q 6.83 72.89 7.24 72.56
  Q 10.02 70.42 13.30 72.15
  A 0.48 0.47 42.4 0 1 13.34 72.97
  L 12.63 73.42
  Q 12.19 73.69 12.13 74.20
  Q 12.05 74.91 12.45 75.23
  Z"
/>
<path fill="#eaeaea" d="
  M 24.35 74.44
  Q 24.71 74.68 25.02 75.04
  A 0.64 0.64 0.0 0 1 24.08 75.90
  L 22.04 73.84
  A 0.47 0.47 0.0 0 1 22.32 73.04
  L 29.69 72.23
  Q 29.89 72.21 29.90 72.41
  L 29.93 73.11
  A 0.79 0.79 0.0 0 1 29.14 73.93
  L 24.50 73.94
  Q 23.62 73.94 24.35 74.44
  Z"
/>
<ellipse fill="#040506" cx="0.00" cy="0.00" transform="translate(34.34,72.52) rotate(38.3)" rx="0.81" ry="0.57"/>
<path fill="#c1c2c4" d="
  M 113.86 80.36
  L 111.76 79.79
  Q 111.22 79.64 111.10 80.20
  L 110.99 80.74
  Q 110.79 81.66 110.33 80.85
  Q 109.58 79.54 108.28 78.58
  Q 107.76 78.20 108.00 78.80
  L 109.37 82.13
  Q 109.31 82.27 109.11 82.35
  Q 108.22 81.81 107.78 80.88
  Q 107.29 79.86 107.14 80.98
  L 106.99 82.05
  Q 106.90 82.68 106.30 82.47
  Q 104.98 82.01 104.75 82.73
  Q 104.64 82.53 104.61 82.28
  Q 104.57 81.87 104.21 81.69
  Q 102.74 80.94 102.23 79.25
  Q 102.87 79.29 103.60 78.62
  Q 103.99 78.26 104.52 78.34
  Q 105.90 78.55 106.48 77.69
  Q 107.84 76.74 108.91 76.68
  Q 109.19 77.71 110.01 78.39
  Q 110.34 78.67 110.73 78.50
  L 112.37 77.83
  C 113.35 78.46 114.00 78.81 115.19 78.38
  Q 124.30 75.13 133.65 72.23
  A 0.47 0.46 -86.9 0 1 134.21 72.86
  Q 133.93 73.51 133.15 73.76
  Q 123.38 76.96 113.86 80.36
  Z
  M 106.33 79.56
  Q 105.46 79.78 104.91 80.43
  A 0.44 0.44 0.0 0 0 105.55 81.03
  L 106.59 80.02
  Q 107.31 79.32 106.33 79.56
  Z"
/>
<path fill="#626161" d="
  M 92.24 72.72
  L 95.97 73.18
  L 93.91 73.32
  Q 93.45 73.35 93.08 73.62
  C 91.47 74.80 89.40 75.04 88.03 75.57
  Q 84.73 76.85 81.32 77.82
  Q 79.30 78.39 74.94 80.14
  Q 71.58 81.49 68.02 81.83
  L 92.24 72.72
  Z"
/>
<path fill="#84868a" d="
  M 109.23 76.35
  Q 109.07 76.52 108.91 76.68
  Q 107.84 76.74 106.48 77.69
  Q 104.95 76.64 105.60 74.36
  Q 105.73 73.90 106.18 74.05
  Q 108.30 74.76 109.23 76.35
  Z"
/>
<path fill="#c1c2c4" d="
  M 116.70 89.17
  Q 115.37 88.80 113.97 89.33
  A 0.38 0.38 0.0 0 0 114.08 90.07
  L 115.56 90.15
  A 0.63 0.63 0.0 0 1 116.16 90.81
  L 116.12 91.72
  Q 116.05 93.12 115.22 91.99
  L 114.59 91.12
  A 0.43 0.43 0.0 0 0 113.84 91.23
  Q 113.42 92.42 112.50 92.54
  Q 111.36 92.13 113.10 89.08
  Q 113.22 88.86 113.01 88.76
  Q 112.87 88.69 112.73 88.62
  A 0.50 0.49 16.5 0 0 112.02 89.00
  L 111.88 90.22
  Q 111.81 90.84 111.19 90.82
  Q 110.66 90.80 110.03 90.22
  Q 108.61 89.43 109.12 87.86
  Q 112.47 90.49 110.20 84.99
  Q 109.65 85.72 109.89 84.68
  Q 111.66 83.49 112.42 86.66
  Q 112.46 86.79 112.59 86.81
  Q 112.77 86.83 112.93 86.81
  Q 113.49 86.77 113.30 86.25
  L 112.57 84.25
  Q 112.43 83.87 112.84 83.87
  L 113.70 83.87
  Q 114.29 83.87 114.47 84.44
  Q 114.95 85.95 115.21 87.50
  Q 115.29 87.96 115.93 87.93
  Q 116.41 87.90 116.30 87.44
  L 115.73 85.04
  L 116.87 85.23
  Q 117.09 85.27 117.10 85.05
  Q 117.11 84.90 117.12 84.75
  Q 117.12 84.72 117.27 84.68
  Q 133.70 79.47 149.99 73.87
  Q 150.69 73.63 151.20 73.73
  A 0.35 0.35 0.0 0 1 151.25 74.41
  L 117.35 86.38
  A 0.86 0.85 -14.6 0 0 116.78 87.34
  Q 116.99 88.57 116.70 89.17
  Z"
/>
<path fill="#212123" d="
  M 30.62 74.42
  L 29.82 75.15
  Q 29.42 75.52 29.81 75.90
  L 30.23 76.31
  A 0.33 0.33 0.0 0 1 29.97 76.87
  Q 28.05 76.69 26.90 78.30
  A 0.54 0.54 0.0 0 0 27.58 79.09
  Q 27.94 78.92 28.09 78.57
  Q 28.30 78.12 28.79 78.12
  L 29.56 78.12
  Q 30.34 78.12 29.78 78.67
  Q 28.47 79.96 27.83 81.78
  Q 27.57 81.65 27.37 81.66
  Q 27.12 81.67 27.10 81.93
  Q 27.09 82.11 26.95 82.27
  Q 26.51 81.63 25.63 81.77
  Q 25.15 81.85 25.12 82.34
  L 25.04 84.20
  Q 25.01 84.92 24.29 84.78
  L 23.42 84.60
  A 0.69 0.68 -71.9 0 1 22.94 83.64
  Q 23.29 82.88 23.26 82.09
  A 0.63 0.63 0.0 0 0 22.00 82.11
  L 21.99 84.97
  Q 21.99 85.69 22.71 85.69
  L 28.01 85.67
  Q 28.39 85.50 28.62 86.71
  Q 26.76 87.61 24.58 87.56
  A 0.48 0.48 0.0 0 0 24.49 88.51
  Q 26.01 88.78 27.54 88.48
  A 0.34 0.33 -5.9 0 1 27.94 88.80
  L 27.96 89.15
  Q 27.98 89.78 27.35 89.80
  L 24.69 89.89
  Q 24.39 89.90 24.36 90.19
  L 24.33 90.46
  A 0.36 0.35 2.7 0 0 24.70 90.86
  Q 27.44 90.69 29.74 92.34
  L 30.07 93.20
  Q 30.22 93.60 30.63 93.72
  Q 31.54 94.01 31.32 95.80
  Q 32.96 98.69 36.54 96.51
  Q 37.24 96.79 37.37 97.17
  Q 37.53 97.69 37.00 97.81
  L 35.64 98.10
  Q 33.20 99.09 32.33 99.85
  C 30.72 101.24 31.52 104.23 33.97 103.91
  Q 34.63 103.90 34.88 104.24
  Q 35.22 104.71 35.07 105.77
  L 31.75 106.66
  Q 30.89 106.89 31.64 107.37
  L 35.89 110.07
  Q 36.10 110.62 35.99 110.82
  Q 35.90 111.00 35.48 110.80
  Q 32.48 109.40 29.99 107.94
  L 22.66 108.60
  A 0.42 0.42 0.0 0 0 22.39 109.31
  L 24.48 111.57
  A 0.33 0.33 0.0 0 0 25.04 111.23
  L 24.60 109.94
  Q 24.41 109.42 24.97 109.39
  L 26.61 109.31
  Q 27.16 110.51 28.06 110.50
  Q 28.59 110.49 28.43 111.00
  Q 27.42 114.26 28.48 117.57
  Q 28.64 118.05 29.09 117.82
  Q 29.26 117.74 29.40 117.66
  Q 29.60 117.57 29.65 117.77
  L 30.00 119.24
  A 0.34 0.34 0.0 0 0 30.66 119.26
  L 30.81 118.78
  A 0.39 0.39 0.0 0 1 31.08 118.51
  Q 32.01 118.21 32.22 119.30
  Q 32.14 119.47 32.13 119.61
  Q 32.09 119.97 32.45 120.04
  L 35.19 120.56
  A 0.35 0.35 0.0 0 1 35.31 121.20
  L 32.59 122.90
  A 0.49 0.48 -65.4 0 0 32.92 123.79
  Q 34.76 123.51 36.39 121.82
  Q 36.66 122.15 37.03 122.16
  Q 37.38 122.17 37.38 122.52
  L 37.37 123.00
  Q 37.37 123.44 36.96 123.59
  L 34.91 124.35
  A 0.42 0.41 31.0 0 0 35.11 125.15
  Q 35.63 125.08 36.07 124.96
  Q 36.44 124.85 36.13 125.09
  Q 35.99 125.19 35.82 125.25
  Q 35.52 125.34 35.81 125.45
  L 36.84 125.84
  Q 23.74 130.65 10.19 127.91
  C 11.40 125.68 14.08 127.82 16.21 126.67
  Q 17.46 125.99 17.57 124.26
  Q 17.71 121.99 17.42 119.76
  Q 16.19 110.44 14.50 101.20
  Q 13.90 97.93 14.14 94.25
  Q 14.64 86.48 13.92 78.71
  Q 13.84 77.79 13.35 76.92
  Q 12.87 76.09 12.45 75.23
  L 19.84 76.22
  A 0.30 0.29 15.9 0 0 20.15 76.05
  Q 20.19 75.94 20.22 75.80
  Q 20.23 75.76 20.27 75.77
  Q 22.22 75.88 23.68 77.03
  Q 24.09 77.35 24.60 77.25
  Q 25.59 77.07 26.12 76.07
  Q 26.37 75.60 26.88 75.46
  L 30.62 74.42
  Z
  M 30.3448 95.7117
  A 4.21 2.65 -10.1 0 0 25.7353 93.8411
  A 4.21 2.65 -10.1 0 0 22.0552 97.1883
  A 4.21 2.65 -10.1 0 0 26.6647 99.0589
  A 4.21 2.65 -10.1 0 0 30.3448 95.7117
  Z
  M 30.1165 102.5119
  A 2.38 2.38 0.0 0 0 27.5306 100.3574
  L 24.3836 100.6438
  A 2.38 2.38 0.0 0 0 22.2291 103.2297
  L 22.2635 103.6081
  A 2.38 2.38 0.0 0 0 24.8494 105.7626
  L 27.9964 105.4762
  A 2.38 2.38 0.0 0 0 30.1509 102.8903
  L 30.1165 102.5119
  Z
  M 26.86 119.71
  L 26.43 117.61
  A 0.43 0.43 0.0 0 0 25.58 117.62
  L 25.21 119.76
  Q 25.10 120.38 24.47 120.33
  L 23.91 120.29
  A 0.57 0.56 -88.9 0 1 23.38 119.73
  L 23.35 117.00
  A 0.51 0.50 -44.4 0 0 22.34 116.99
  L 22.21 120.56
  Q 22.18 121.36 22.99 121.34
  Q 26.81 121.26 29.42 120.92
  Q 29.87 120.87 29.92 120.43
  Q 29.97 120.01 29.54 120.04
  L 27.49 120.19
  Q 26.97 120.23 26.86 119.71
  Z
  M 28.78 123.21
  L 29.41 122.73
  A 0.28 0.28 0.0 0 0 29.18 122.24
  L 24.73 123.24
  A 0.33 0.33 0.0 0 0 24.80 123.90
  L 27.73 123.88
  Q 28.06 123.88 28.14 124.20
  Q 28.19 124.37 28.15 124.54
  Q 28.03 125.05 27.51 125.10
  L 24.69 125.37
  Q 24.13 125.42 24.31 125.96
  Q 24.36 126.10 24.49 126.21
  Q 24.68 126.37 25.09 126.33
  Q 27.38 126.09 29.56 126.89
  A 0.30 0.30 0.0 0 0 29.83 126.36
  L 28.81 125.66
  A 0.40 0.40 0.0 0 1 28.75 125.05
  L 29.04 124.76
  Q 29.29 124.50 29.03 124.25
  L 28.73 123.96
  Q 28.32 123.56 28.78 123.21
  Z"
/>
<path fill="#626161" d="
  M 1.56 75.50
  Q 2.11 76.82 2.71 77.34
  Q 3.02 77.61 3.07 78.03
  C 4.09 87.41 3.11 98.88 3.17 105.89
  Q 3.25 114.09 3.30 122.29
  Q 3.41 123.57 2.86 124.99
  Q 1.63 123.03 1.73 118.50
  Q 1.96 107.46 1.56 75.50
  Z"
/>
<path fill="#464647" d="
  M 112.37 77.83
  L 110.73 78.50
  Q 110.34 78.67 110.01 78.39
  Q 109.19 77.71 108.91 76.68
  Q 109.07 76.52 109.23 76.35
  Q 108.73 76.69 109.53 76.47
  Q 109.65 77.46 110.12 77.85
  Q 110.73 78.36 110.93 77.59
  L 111.14 76.79
  Q 111.31 76.16 111.66 76.71
  L 112.37 77.83
  Z"
/>
<path fill="#040506" d="
  M 113.86 80.36
  L 109.37 82.13
  L 108.00 78.80
  Q 107.76 78.20 108.28 78.58
  Q 109.58 79.54 110.33 80.85
  Q 110.79 81.66 110.99 80.74
  L 111.10 80.20
  Q 111.22 79.64 111.76 79.79
  L 113.86 80.36
  Z"
/>
<path fill="#626161" d="
  M 106.33 79.56
  Q 107.31 79.32 106.59 80.02
  L 105.55 81.03
  A 0.44 0.44 0.0 0 1 104.91 80.43
  Q 105.46 79.78 106.33 79.56
  Z"
/>
<path fill="#040506" d="
  M 104.75 82.73
  Q 104.98 82.01 106.30 82.47
  Q 106.90 82.68 106.99 82.05
  L 107.14 80.98
  Q 107.29 79.86 107.78 80.88
  Q 108.22 81.81 109.11 82.35
  L 98.97 86.26
  Q 98.47 86.45 98.20 86.00
  L 95.85 82.15
  Q 95.51 81.57 96.14 81.35
  L 98.24 80.63
  Q 98.73 80.46 99.03 80.87
  L 101.47 84.22
  A 0.64 0.64 0.0 0 0 102.52 83.50
  L 101.03 81.17
  Q 100.83 80.87 101.11 80.65
  Q 101.22 80.55 101.36 80.45
  A 0.33 0.33 0.0 0 1 101.83 80.51
  L 103.88 83.25
  Q 104.15 83.61 104.50 83.32
  Q 104.81 83.05 104.75 82.73
  Z"
/>
<path fill="#c1c2c4" d="
  M 26.95 82.27
  L 26.91 83.70
  Q 26.89 84.27 27.46 84.36
  Q 27.97 84.43 28.53 84.14
  Q 29.22 83.99 29.27 84.50
  Q 29.35 85.25 28.01 85.67
  L 22.71 85.69
  Q 21.99 85.69 21.99 84.97
  L 22.00 82.11
  A 0.63 0.63 0.0 0 1 23.26 82.09
  Q 23.29 82.88 22.94 83.64
  A 0.69 0.68 -71.9 0 0 23.42 84.60
  L 24.29 84.78
  Q 25.01 84.92 25.04 84.20
  L 25.12 82.34
  Q 25.15 81.85 25.63 81.77
  Q 26.51 81.63 26.95 82.27
  Z"
/>
<path fill="#626161" d="
  M 115.73 85.04
  L 116.30 87.44
  Q 116.41 87.90 115.93 87.93
  Q 115.29 87.96 115.21 87.50
  Q 114.95 85.95 114.47 84.44
  Q 114.29 83.87 113.70 83.87
  L 112.84 83.87
  Q 112.43 83.87 112.57 84.25
  L 113.30 86.25
  Q 113.49 86.77 112.93 86.81
  Q 112.77 86.83 112.59 86.81
  Q 112.46 86.79 112.42 86.66
  Q 111.66 83.49 109.89 84.68
  Q 109.81 83.74 109.29 83.79
  L 114.02 81.80
  A 0.52 0.51 69.0 0 1 114.71 82.11
  L 115.73 85.04
  Z"
/>
<path fill="#040506" d="
  M 27.83 81.78
  Q 28.11 82.89 29.74 82.72
  A 0.30 0.30 0.0 0 1 29.94 83.27
  L 29.27 83.73
  Q 29.23 84.01 28.53 84.14
  Q 27.97 84.43 27.46 84.36
  Q 26.89 84.27 26.91 83.70
  L 26.95 82.27
  Q 27.09 82.11 27.10 81.93
  Q 27.12 81.67 27.37 81.66
  Q 27.57 81.65 27.83 81.78
  Z"
/>
<path fill="#eaeaea" d="
  M 35.32 84.90
  L 32.96 84.76
  A 0.52 0.50 80.5 0 1 32.50 84.42
  L 32.41 84.18
  A 0.44 0.44 0.0 0 1 32.89 83.59
  L 36.95 84.23
  A 0.63 0.63 0.0 0 1 37.30 85.29
  Q 35.11 87.55 32.15 88.85
  A 0.22 0.22 0.0 0 1 31.90 88.49
  Q 33.55 86.87 35.51 85.60
  A 0.38 0.38 0.0 0 0 35.32 84.90
  Z"
/>
<path fill="#626161" d="
  M 29.27 83.73
  Q 29.93 86.12 28.92 88.11
  Q 28.98 86.10 28.62 86.71
  Q 28.39 85.50 28.01 85.67
  Q 29.35 85.25 29.27 84.50
  Q 29.22 83.99 28.53 84.14
  Q 29.23 84.01 29.27 83.73
  Z"
/>
<path fill="#eaeaea" d="
  M 89.13 84.92
  Q 87.51 85.69 88.03 85.08
  Q 85.22 85.78 85.43 88.96
  Q 85.86 89.07 86.11 89.47
  Q 87.90 91.37 86.73 92.88
  Q 78.11 96.40 69.51 99.83
  Q 67.99 100.44 67.38 99.83
  L 63.61 93.33
  Q 63.17 92.57 64.01 92.28
  L 69.12 90.55
  A 0.63 0.63 0.0 0 1 69.80 90.73
  L 70.24 91.23
  Q 70.54 91.57 70.93 91.36
  Q 72.03 90.75 73.04 91.18
  Q 73.37 91.32 73.60 91.05
  L 74.73 89.73
  Q 75.09 89.31 75.60 89.54
  Q 76.58 90.00 77.27 89.32
  C 78.27 88.36 78.96 87.88 80.26 88.11
  Q 80.69 88.19 81.00 87.88
  Q 82.19 86.66 83.91 86.73
  Q 84.33 86.74 84.57 86.40
  L 85.98 84.32
  A 0.75 0.74 -61.9 0 1 86.87 84.04
  L 89.13 84.92
  Z
  M 84.13 88.38
  Q 83.50 87.46 82.80 88.47
  A 0.67 0.67 0.0 0 0 83.05 89.46
  L 84.28 90.06
  A 0.34 0.33 7.8 0 0 84.76 89.70
  L 84.69 89.28
  A 1.19 0.06 55.4 0 0 84.13 88.38
  Z
  M 74.01 94.81
  Q 73.59 93.24 72.27 92.30
  A 0.45 0.44 -87.6 0 0 71.63 92.89
  L 73.05 95.34
  A 0.48 0.47 -20.6 0 1 72.73 96.04
  Q 72.05 96.19 71.51 95.47
  Q 70.56 94.21 69.88 92.73
  Q 69.67 92.28 69.20 92.40
  L 66.43 93.09
  A 0.50 0.50 0.0 0 0 66.12 93.83
  L 68.52 97.89
  Q 68.84 98.43 69.41 98.20
  L 85.53 91.87
  Q 85.63 91.83 85.66 91.73
  Q 85.71 91.57 85.76 91.42
  A 0.22 0.22 0.0 0 0 85.41 91.19
  L 84.86 91.61
  Q 84.46 91.93 84.05 91.61
  Q 83.27 91.01 82.42 91.88
  A 0.62 0.61 -40.3 0 1 81.48 91.81
  L 79.87 89.57
  Q 79.61 89.20 79.28 89.51
  Q 79.13 89.66 79.11 89.90
  Q 79.09 90.18 79.34 90.56
  Q 79.92 91.46 80.52 92.38
  Q 80.91 92.96 80.21 92.94
  L 79.68 92.92
  Q 79.06 92.90 78.86 92.31
  L 78.60 91.54
  A 0.21 0.21 0.0 0 0 78.20 91.61
  L 78.22 93.32
  A 0.70 0.70 0.0 0 1 77.51 94.03
  Q 75.92 93.99 74.82 95.03
  Q 74.23 95.60 74.01 94.81
  Z
  M 75.82 92.28
  L 75.96 92.90
  A 0.36 0.36 0.0 0 0 76.65 92.93
  L 77.02 91.71
  Q 77.27 90.89 76.44 91.08
  L 75.41 91.32
  Q 75.13 91.39 75.33 91.59
  L 75.58 91.84
  Q 75.77 92.02 75.82 92.28
  Z"
/>
<path fill="#464647" d="
  M 88.03 85.08
  L 85.43 88.96
  Q 85.22 85.78 88.03 85.08
  Z"
/>
<path fill="#c1c2c4" d="
  M 89.13 84.92
  Q 90.22 86.02 90.46 86.72
  A 2.03 2.03 0.0 0 1 87.82 89.27
  Q 86.60 88.81 86.11 89.47
  Q 85.86 89.07 85.43 88.96
  L 88.03 85.08
  Q 87.51 85.69 89.13 84.92
  Z
  M 87.88 87.61
  L 87.56 88.04
  Q 86.78 89.10 87.91 88.42
  L 88.82 87.87
  A 0.62 0.61 48.5 0 0 88.88 86.86
  Q 88.22 86.35 87.98 87.39
  Q 87.95 87.51 87.88 87.61
  Z"
/>
<path fill="#626161" d="
  M 110.20 84.99
  Q 112.47 90.49 109.12 87.86
  Q 109.08 86.94 110.20 84.99
  Z"
/>
<path fill="#626161" d="
  M 56.11 86.31
  Q 55.60 88.18 51.96 87.78
  L 56.11 86.31
  Z"
/>
<path fill="#626161" d="
  M 108.50 90.43
  Q 108.13 90.24 107.84 90.78
  Q 107.78 90.65 107.68 90.55
  A 0.35 0.33 51.4 0 0 107.32 90.50
  Q 107.01 90.63 106.90 91.00
  Q 106.65 89.72 105.36 89.54
  Q 104.66 89.44 104.39 90.10
  L 103.71 91.76
  A 0.32 0.32 0.0 0 1 103.15 91.83
  Q 102.37 90.78 101.93 91.13
  Q 101.30 91.08 100.73 91.50
  Q 100.50 91.68 100.74 91.86
  Q 101.17 92.18 100.91 92.82
  A 0.70 0.69 -86.5 0 1 100.44 93.24
  Q 99.83 93.40 99.68 92.91
  A 0.50 0.50 0.0 0 0 98.81 92.74
  Q 97.71 94.08 95.83 94.16
  Q 95.29 94.19 95.04 94.65
  L 94.84 95.01
  Q 94.51 95.61 94.01 95.15
  Q 92.94 94.17 92.40 95.97
  L 91.74 95.97
  Q 91.80 94.42 91.06 94.26
  Q 87.52 93.48 85.39 96.25
  Q 85.26 96.42 85.07 96.31
  Q 84.95 96.24 84.90 96.08
  Q 84.80 95.78 84.55 95.99
  L 82.67 97.61
  Q 82.31 97.92 81.83 97.92
  Q 77.93 97.90 74.31 99.20
  C 72.81 99.73 71.63 100.98 70.07 101.71
  Q 69.62 101.92 69.20 101.64
  Q 68.19 100.98 67.11 101.68
  Q 66.70 101.95 66.33 101.62
  L 66.05 101.36
  Q 65.61 101.19 66.10 100.71
  L 66.50 100.99
  Q 66.99 101.34 67.23 100.78
  Q 67.41 100.35 67.38 99.83
  Q 67.99 100.44 69.51 99.83
  Q 78.11 96.40 86.73 92.88
  Q 87.59 93.36 88.20 92.11
  Q 88.40 91.68 88.85 91.54
  C 92.23 90.48 93.39 87.41 97.71 89.00
  A 1.79 1.76 -39.9 0 0 98.72 89.08
  Q 102.49 88.30 105.74 86.30
  A 1.46 1.45 -20.9 0 1 107.94 87.28
  L 108.50 90.43
  Z"
/>
<path fill="#eaeaea" d="
  M 28.62 86.71
  Q 28.98 86.10 28.92 88.11
  Q 29.17 89.22 28.80 90.15
  Q 28.63 90.57 29.02 90.81
  Q 29.98 91.38 29.74 92.34
  Q 27.44 90.69 24.70 90.86
  A 0.36 0.35 2.7 0 1 24.33 90.46
  L 24.36 90.19
  Q 24.39 89.90 24.69 89.89
  L 27.35 89.80
  Q 27.98 89.78 27.96 89.15
  L 27.94 88.80
  A 0.34 0.33 -5.9 0 0 27.54 88.48
  Q 26.01 88.78 24.49 88.51
  A 0.48 0.48 0.0 0 1 24.58 87.56
  Q 26.76 87.61 28.62 86.71
  Z"
/>
<path fill="#464647" d="
  M 87.98 87.39
  Q 88.22 86.35 88.88 86.86
  A 0.62 0.61 48.5 0 1 88.82 87.87
  L 87.91 88.42
  Q 86.78 89.10 87.56 88.04
  L 87.88 87.61
  Q 87.95 87.51 87.98 87.39
  Z"
/>
<path fill="#040506" d="
  M 84.69 89.28
  L 84.76 89.70
  A 0.34 0.33 7.8 0 1 84.28 90.06
  L 83.05 89.46
  A 0.67 0.67 0.0 0 1 82.80 88.47
  Q 83.50 87.46 84.13 88.38
  A 1.19 0.06 55.4 0 1 84.69 89.28
  Z"
/>
<path fill="#464647" d="
  M 48.90 88.49
  Q 48.74 89.50 49.25 89.59
  Q 55.66 90.80 58.53 96.48
  Q 57.99 97.41 57.93 99.20
  C 55.76 96.65 49.88 92.25 47.54 96.77
  Q 45.98 99.77 46.17 101.01
  Q 46.72 104.64 47.41 108.18
  Q 48.70 114.77 53.76 118.71
  C 55.51 120.07 58.00 120.57 59.92 119.64
  C 62.80 118.25 62.84 113.90 62.39 111.13
  Q 62.59 110.76 63.74 110.78
  A 0.56 0.56 0.0 0 0 64.29 110.10
  Q 64.04 109.03 62.19 108.14
  L 58.49 99.52
  Q 59.88 99.86 60.39 101.16
  Q 60.63 101.77 60.85 101.16
  L 61.48 99.41
  Q 67.53 109.15 66.18 120.01
  A 0.36 0.36 0.0 0 0 66.83 120.26
  Q 68.98 117.19 67.63 113.52
  Q 67.05 111.94 68.47 110.75
  A 0.56 0.56 0.0 0 0 68.53 109.95
  L 68.06 109.43
  Q 69.05 108.24 68.65 106.46
  A 0.60 0.59 75.8 0 1 69.07 105.75
  L 70.70 105.30
  Q 71.11 105.18 71.27 104.78
  L 71.45 104.28
  A 0.43 0.43 0.0 0 1 72.28 104.43
  L 72.29 105.90
  Q 72.30 107.17 70.35 107.78
  A 0.68 0.56 -55.8 0 0 70.46 109.02
  Q 71.41 108.75 72.17 108.34
  A 0.77 0.77 0.0 0 1 72.93 108.37
  Q 73.63 108.80 74.31 108.50
  Q 74.82 108.27 75.01 107.76
  L 77.19 101.80
  Q 78.15 100.45 79.10 102.48
  L 78.82 103.22
  Q 78.46 104.14 78.15 103.20
  L 78.02 102.82
  A 0.31 0.31 0.0 0 0 77.43 102.82
  L 76.04 107.30
  A 0.38 0.37 -0.9 0 0 76.52 107.76
  L 77.47 107.45
  Q 78.13 107.23 77.95 106.55
  Q 77.68 105.54 78.09 104.68
  Q 78.38 104.06 78.72 104.67
  Q 79.60 106.25 79.87 105.20
  Q 81.59 106.21 81.92 105.01
  Q 81.90 105.27 82.05 105.42
  A 0.30 0.29 36.0 0 0 82.52 105.35
  L 83.91 102.61
  L 84.25 103.04
  Q 83.69 103.73 84.04 104.36
  Q 84.33 104.86 84.72 104.45
  L 85.93 103.17
  Q 86.30 102.78 86.78 103.02
  Q 87.98 103.63 88.28 102.40
  Q 89.28 100.01 88.01 99.65
  Q 87.10 98.78 86.25 99.05
  A 0.51 0.51 0.0 0 0 85.90 99.52
  Q 85.89 99.91 85.56 100.00
  Q 85.13 100.11 85.25 99.68
  Q 85.58 98.54 87.34 97.53
  Q 88.00 98.52 89.45 98.25
  A 0.57 0.56 67.8 0 1 90.03 98.50
  L 91.74 101.20
  A 0.69 0.69 0.0 0 0 92.85 101.27
  L 94.11 99.79
  A 0.38 0.37 -83.1 0 0 93.66 99.21
  L 92.96 99.57
  Q 92.45 99.83 92.14 99.34
  L 90.87 97.30
  L 92.32 97.39
  Q 92.86 97.42 92.88 96.87
  Q 92.90 96.42 92.40 95.97
  Q 92.94 94.17 94.01 95.15
  Q 94.51 95.61 94.84 95.01
  L 95.04 94.65
  Q 95.29 94.19 95.83 94.16
  Q 97.71 94.08 98.81 92.74
  A 0.50 0.50 0.0 0 1 99.68 92.91
  Q 99.83 93.40 100.44 93.24
  A 0.70 0.69 -86.5 0 0 100.91 92.82
  Q 101.17 92.18 100.74 91.86
  Q 100.50 91.68 100.73 91.50
  Q 101.30 91.08 101.93 91.13
  Q 102.56 93.17 102.16 94.84
  A 0.54 0.54 0.0 0 1 101.47 95.24
  Q 100.31 94.87 99.85 95.80
  Q 99.54 96.41 100.22 96.32
  L 106.20 95.58
  Q 106.81 95.51 106.83 94.89
  L 106.90 91.00
  Q 107.01 90.63 107.32 90.50
  A 0.35 0.33 51.4 0 1 107.68 90.55
  Q 107.78 90.65 107.84 90.78
  Q 107.69 91.83 108.14 92.55
  Q 108.43 93.02 108.78 92.58
  L 109.34 91.87
  Q 111.16 93.29 112.50 92.54
  Q 113.42 92.42 113.84 91.23
  A 0.43 0.43 0.0 0 1 114.59 91.12
  L 115.22 91.99
  Q 116.05 93.12 116.12 91.72
  L 116.16 90.81
  A 0.63 0.63 0.0 0 0 115.56 90.15
  L 114.08 90.07
  A 0.38 0.38 0.0 0 1 113.97 89.33
  Q 115.37 88.80 116.70 89.17
  Q 118.32 96.12 115.25 101.98
  L 113.01 103.43
  Q 112.67 103.65 112.55 103.26
  L 110.71 96.78
  Q 110.50 96.05 110.27 96.78
  Q 109.43 99.46 107.37 101.44
  Q 107.00 101.79 106.52 101.99
  Q 96.71 105.88 86.93 109.88
  Q 86.71 109.97 85.91 110.07
  Q 85.28 110.15 85.08 110.70
  Q 84.91 111.18 84.46 111.41
  Q 80.56 113.43 76.52 115.10
  C 74.38 115.99 72.18 118.16 69.02 118.19
  A 0.96 0.95 14.8 0 0 68.22 118.65
  Q 67.49 119.83 67.87 121.24
  Q 65.99 122.43 66.06 124.07
  Q 59.33 127.76 53.65 123.15
  L 54.01 121.99
  Q 53.70 118.87 50.18 117.88
  Q 49.77 116.33 49.06 115.83
  Q 47.99 111.75 45.82 112.02
  Q 45.13 112.52 44.82 110.10
  L 46.49 109.84
  Q 47.18 109.74 46.84 109.13
  L 46.14 107.88
  Q 45.92 107.49 45.96 107.05
  Q 46.11 105.22 45.55 103.45
  Q 45.39 102.95 45.56 102.44
  Q 46.69 99.30 43.15 97.98
  Q 43.46 91.27 48.90 88.49
  Z"
/>
<path fill="#626161" d="
  M 112.50 92.54
  Q 111.16 93.29 109.34 91.87
  Q 109.53 91.60 109.54 91.29
  Q 110.05 91.54 110.13 91.25
  Q 110.25 90.80 110.03 90.22
  Q 110.66 90.80 111.19 90.82
  Q 111.81 90.84 111.88 90.22
  L 112.02 89.00
  A 0.50 0.49 16.5 0 1 112.73 88.62
  Q 112.87 88.69 113.01 88.76
  Q 113.22 88.86 113.10 89.08
  Q 111.36 92.13 112.50 92.54
  Z"
/>
<path fill="#040506" d="
  M 74.82 95.03
  Q 75.92 93.99 77.51 94.03
  A 0.70 0.70 0.0 0 0 78.22 93.32
  L 78.20 91.61
  A 0.21 0.21 0.0 0 1 78.60 91.54
  L 78.86 92.31
  Q 79.06 92.90 79.68 92.92
  L 80.21 92.94
  Q 80.91 92.96 80.52 92.38
  Q 79.92 91.46 79.34 90.56
  Q 79.09 90.18 79.11 89.90
  Q 79.13 89.66 79.28 89.51
  Q 79.61 89.20 79.87 89.57
  L 81.48 91.81
  A 0.62 0.61 -40.3 0 0 82.42 91.88
  Q 83.27 91.01 84.05 91.61
  Q 84.46 91.93 84.86 91.61
  L 85.41 91.19
  A 0.22 0.22 0.0 0 1 85.76 91.42
  Q 85.71 91.57 85.66 91.73
  Q 85.63 91.83 85.53 91.87
  L 69.41 98.20
  Q 68.84 98.43 68.52 97.89
  L 66.12 93.83
  A 0.50 0.50 0.0 0 1 66.43 93.09
  L 69.20 92.40
  Q 69.67 92.28 69.88 92.73
  Q 70.56 94.21 71.51 95.47
  Q 72.05 96.19 72.73 96.04
  A 0.48 0.47 -20.6 0 0 73.05 95.34
  L 71.63 92.89
  A 0.45 0.44 -87.6 0 1 72.27 92.30
  Q 73.59 93.24 74.01 94.81
  Q 74.23 95.60 74.82 95.03
  Z"
/>
<path fill="#c1c2c4" d="
  M 106.90 91.00
  L 106.83 94.89
  Q 106.81 95.51 106.20 95.58
  L 100.22 96.32
  Q 99.54 96.41 99.85 95.80
  Q 100.31 94.87 101.47 95.24
  A 0.54 0.54 0.0 0 0 102.16 94.84
  Q 102.56 93.17 101.93 91.13
  Q 102.37 90.78 103.15 91.83
  A 0.32 0.32 0.0 0 0 103.71 91.76
  L 104.39 90.10
  Q 104.66 89.44 105.36 89.54
  Q 106.65 89.72 106.90 91.00
  Z
  M 103.70 94.60
  L 104.77 95.06
  A 0.21 0.21 0.0 0 0 105.04 94.95
  L 105.50 93.89
  A 2.95 0.64 -66.7 0 0 106.08 90.93
  L 105.81 90.81
  A 2.95 0.64 -66.7 0 0 104.05 93.26
  L 103.59 94.33
  A 0.21 0.21 0.0 0 0 103.70 94.60
  Z"
/>
<path fill="#eaeaea" d="
  M 108.50 90.43
  L 109.54 91.29
  Q 109.53 91.60 109.34 91.87
  L 108.78 92.58
  Q 108.43 93.02 108.14 92.55
  Q 107.69 91.83 107.84 90.78
  Q 108.13 90.24 108.50 90.43
  Z"
/>
<path fill="#626161" d="
  M 103.70 94.60
  A 0.21 0.21 0.0 0 1 103.59 94.33
  L 104.05 93.26
  A 2.95 0.64 -66.7 0 1 105.81 90.81
  L 106.08 90.93
  A 2.95 0.64 -66.7 0 1 105.50 93.89
  L 105.04 94.95
  A 0.21 0.21 0.0 0 1 104.77 95.06
  L 103.70 94.60
  Z"
/>
<path fill="#626161" d="
  M 75.58 91.84
  L 75.33 91.59
  Q 75.13 91.39 75.41 91.32
  L 76.44 91.08
  Q 77.27 90.89 77.02 91.71
  L 76.65 92.93
  A 0.36 0.36 0.0 0 1 75.96 92.90
  L 75.82 92.28
  Q 75.77 92.02 75.58 91.84
  Z"
/>
<path fill="#eaeaea" d="
  M 36.03 93.63
  Q 33.73 93.25 32.72 94.81
  A 1.07 1.07 0.0 0 0 33.94 96.41
  Q 35.72 95.84 36.25 94.70
  Q 36.88 94.44 36.96 95.50
  Q 36.99 95.79 36.54 96.51
  Q 32.96 98.69 31.32 95.80
  Q 31.78 91.81 36.30 92.00
  A 0.82 0.82 0.0 0 1 37.06 93.01
  Q 36.75 94.33 36.03 93.63
  Z"
/>
<path fill="#c1c2c4" d="
  M 61.94 98.43
  L 58.55 94.60
  L 57.52 92.98
  Q 57.15 92.37 57.78 92.70
  Q 60.96 94.34 61.94 98.43
  Z"
/>
<path fill="#84868a" d="
  M 60.77 93.19
  Q 63.36 95.14 63.96 97.99
  L 60.21 93.91
  Q 59.86 93.52 60.31 93.26
  Q 60.54 93.13 60.77 93.19
  Z"
/>
<path fill="#040506" d="
  M 36.03 93.63
  L 36.25 94.70
  Q 35.72 95.84 33.94 96.41
  A 1.07 1.07 0.0 0 1 32.72 94.81
  Q 33.73 93.25 36.03 93.63
  Z"
/>
<path fill="#eaeaea" d="
  M 30.3448 95.7117
  A 4.21 2.65 -10.1 0 1 26.6647 99.0589
  A 4.21 2.65 -10.1 0 1 22.0552 97.1883
  A 4.21 2.65 -10.1 0 1 25.7353 93.8411
  A 4.21 2.65 -10.1 0 1 30.3448 95.7117
  Z
  M 29.3039 96.1569
  A 3.13 1.59 -7.4 0 0 25.9952 94.9832
  A 3.13 1.59 -7.4 0 0 23.0961 96.9631
  A 3.13 1.59 -7.4 0 0 26.4048 98.1368
  A 3.13 1.59 -7.4 0 0 29.3039 96.1569
  Z"
/>
<path fill="#84868a" d="
  M 91.74 95.97
  Q 91.38 96.07 91.11 96.33
  Q 90.86 96.57 90.86 96.92
  L 90.87 97.30
  L 92.14 99.34
  Q 92.45 99.83 92.96 99.57
  L 93.66 99.21
  A 0.38 0.37 -83.1 0 1 94.11 99.79
  L 92.85 101.27
  A 0.69 0.69 0.0 0 1 91.74 101.20
  L 90.03 98.50
  A 0.57 0.56 67.8 0 0 89.45 98.25
  Q 88.00 98.52 87.34 97.53
  L 87.51 97.05
  Q 87.84 96.11 86.98 96.62
  L 80.51 100.45
  Q 80.31 100.57 80.37 100.79
  Q 80.45 101.11 80.15 101.33
  Q 79.79 101.59 79.66 102.33
  L 79.10 102.48
  Q 78.15 100.45 77.19 101.80
  Q 76.35 100.96 75.23 102.02
  Q 74.89 102.34 74.96 102.81
  Q 75.38 105.47 73.62 107.37
  A 0.37 0.37 0.0 0 1 73.01 107.27
  Q 72.95 107.14 72.89 107.02
  Q 72.65 106.52 73.04 106.14
  Q 74.28 104.93 73.89 103.23
  A 0.53 0.53 0.0 0 0 72.85 103.24
  L 72.29 105.90
  L 72.28 104.43
  A 0.43 0.43 0.0 0 0 71.45 104.28
  L 71.27 104.78
  Q 71.11 105.18 70.70 105.30
  L 69.07 105.75
  A 0.60 0.59 75.8 0 0 68.65 106.46
  Q 69.05 108.24 68.06 109.43
  L 65.35 101.67
  Q 65.82 101.58 66.05 101.36
  L 66.33 101.62
  Q 66.70 101.95 67.11 101.68
  Q 68.19 100.98 69.20 101.64
  Q 69.62 101.92 70.07 101.71
  C 71.63 100.98 72.81 99.73 74.31 99.20
  Q 77.93 97.90 81.83 97.92
  Q 82.31 97.92 82.67 97.61
  L 84.55 95.99
  Q 84.80 95.78 84.90 96.08
  Q 84.95 96.24 85.07 96.31
  Q 85.26 96.42 85.39 96.25
  Q 87.52 93.48 91.06 94.26
  Q 91.80 94.42 91.74 95.97
  Z"
/>
<path fill="#eaeaea" d="
  M 57.93 99.20
  Q 58.14 99.48 58.49 99.52
  L 62.19 108.14
  L 62.39 111.13
  C 62.84 113.90 62.80 118.25 59.92 119.64
  C 58.00 120.57 55.51 120.07 53.76 118.71
  Q 48.70 114.77 47.41 108.18
  Q 46.72 104.64 46.17 101.01
  Q 45.98 99.77 47.54 96.77
  C 49.88 92.25 55.76 96.65 57.93 99.20
  Z"
/>
<path fill="#040506" d="
  M 58.55 94.60
  L 61.94 98.43
  Q 65.12 98.94 65.35 101.67
  L 68.06 109.43
  L 68.53 109.95
  A 0.56 0.56 0.0 0 1 68.47 110.75
  Q 67.05 111.94 67.63 113.52
  Q 68.98 117.19 66.83 120.26
  A 0.36 0.36 0.0 0 1 66.18 120.01
  Q 67.53 109.15 61.48 99.41
  Q 60.42 97.48 58.53 96.48
  Q 58.11 95.01 58.55 94.60
  Z"
/>
<ellipse fill="#040506" cx="0.00" cy="0.00" transform="translate(26.20,96.56) rotate(-7.4)" rx="3.13" ry="1.59"/>
<path fill="#c1c2c4" d="
  M 91.74 95.97
  L 92.40 95.97
  Q 92.90 96.42 92.88 96.87
  Q 92.86 97.42 92.32 97.39
  L 90.87 97.30
  L 90.86 96.92
  Q 90.86 96.57 91.11 96.33
  Q 91.38 96.07 91.74 95.97
  Z"
/>
<path fill="#c1c2c4" d="
  M 58.53 96.48
  Q 60.42 97.48 61.48 99.41
  L 60.85 101.16
  Q 60.63 101.77 60.39 101.16
  Q 59.88 99.86 58.49 99.52
  Q 58.14 99.48 57.93 99.20
  Q 57.99 97.41 58.53 96.48
  Z"
/>
<path fill="#c1c2c4" d="
  M 87.34 97.53
  Q 85.58 98.54 85.25 99.68
  Q 85.13 100.11 85.56 100.00
  Q 85.89 99.91 85.90 99.52
  A 0.51 0.51 0.0 0 1 86.25 99.05
  Q 87.10 98.78 88.01 99.65
  Q 87.81 100.62 86.47 100.66
  A 0.62 0.62 0.0 0 0 85.88 101.22
  L 85.84 101.75
  A 0.46 0.46 0.0 0 0 86.48 102.21
  Q 88.32 101.39 88.28 102.40
  Q 87.98 103.63 86.78 103.02
  Q 86.30 102.78 85.93 103.17
  L 84.72 104.45
  Q 84.33 104.86 84.04 104.36
  Q 83.69 103.73 84.25 103.04
  Q 84.71 103.02 84.95 102.80
  Q 85.17 102.58 85.08 102.16
  Q 84.98 101.70 84.71 101.24
  Q 84.44 100.76 84.13 101.22
  Q 83.76 101.79 83.91 102.61
  L 82.52 105.35
  A 0.30 0.29 36.0 0 1 82.05 105.42
  Q 81.90 105.27 81.92 105.01
  Q 82.42 102.94 80.15 101.33
  Q 80.45 101.11 80.37 100.79
  Q 80.31 100.57 80.51 100.45
  L 86.98 96.62
  Q 87.84 96.11 87.51 97.05
  L 87.34 97.53
  Z
  M 82.81 102.24
  Q 83.49 101.29 82.93 100.28
  A 0.45 0.44 -59.6 0 0 82.10 100.50
  L 82.10 102.02
  A 0.39 0.39 0.0 0 0 82.81 102.24
  Z"
/>
<path fill="#626161" d="
  M 115.25 101.98
  L 111.96 105.01
  Q 111.06 105.31 110.42 104.75
  Q 110.00 104.38 110.11 103.84
  Q 110.35 102.56 109.57 101.58
  A 0.50 0.50 0.0 0 0 108.72 101.69
  C 106.81 106.07 104.62 106.36 100.92 108.58
  Q 99.46 109.46 97.62 109.91
  Q 95.13 110.52 92.84 111.62
  Q 90.13 112.93 88.15 113.41
  Q 81.32 115.07 78.73 116.61
  Q 75.60 118.47 73.71 118.92
  Q 73.23 119.03 72.84 119.32
  Q 70.63 120.97 67.87 121.24
  Q 67.49 119.83 68.22 118.65
  A 0.96 0.95 14.8 0 1 69.02 118.19
  C 72.18 118.16 74.38 115.99 76.52 115.10
  Q 80.56 113.43 84.46 111.41
  Q 84.91 111.18 85.08 110.70
  Q 85.28 110.15 85.91 110.07
  Q 86.71 109.97 86.93 109.88
  Q 96.71 105.88 106.52 101.99
  Q 107.00 101.79 107.37 101.44
  Q 109.43 99.46 110.27 96.78
  Q 110.50 96.05 110.71 96.78
  L 112.55 103.26
  Q 112.67 103.65 113.01 103.43
  L 115.25 101.98
  Z"
/>
<path fill="#c1c2c4" d="
  M 43.15 97.98
  Q 46.69 99.30 45.56 102.44
  Q 45.39 102.95 45.55 103.45
  Q 46.11 105.22 45.96 107.05
  Q 45.92 107.49 46.14 107.88
  L 46.84 109.13
  Q 47.18 109.74 46.49 109.84
  L 44.82 110.10
  Q 42.35 104.16 43.15 97.98
  Z"
/>
<path fill="#eaeaea" d="
  M 35.64 98.10
  Q 36.15 98.32 36.50 98.57
  Q 36.88 98.83 36.99 99.34
  Q 37.84 103.12 33.97 103.91
  C 31.52 104.23 30.72 101.24 32.33 99.85
  Q 33.20 99.09 35.64 98.10
  Z
  M 36.0566 100.1578
  A 0.96 0.96 0.0 0 0 34.7753 99.7091
  L 33.0813 100.5244
  A 0.96 0.96 0.0 0 0 32.6325 101.8057
  L 32.8234 102.2022
  A 0.96 0.96 0.0 0 0 34.1047 102.6509
  L 35.7987 101.8356
  A 0.96 0.96 0.0 0 0 36.2475 100.5543
  L 36.0566 100.1578
  Z"
/>
<rect fill="#040506" x="-1.90" y="-1.18" transform="translate(34.44,101.18) rotate(-25.7)" width="3.80" height="2.36" rx="0.96"/>
<path fill="#626161" d="
  M 88.01 99.65
  Q 89.28 100.01 88.28 102.40
  Q 88.32 101.39 86.48 102.21
  A 0.46 0.46 0.0 0 1 85.84 101.75
  L 85.88 101.22
  A 0.62 0.62 0.0 0 1 86.47 100.66
  Q 87.81 100.62 88.01 99.65
  Z"
/>
<path fill="#626161" d="
  M 82.81 102.24
  A 0.39 0.39 0.0 0 1 82.10 102.02
  L 82.10 100.50
  A 0.45 0.44 -59.6 0 1 82.93 100.28
  Q 83.49 101.29 82.81 102.24
  Z"
/>
<path fill="#eaeaea" d="
  M 30.1509 102.8903
  A 2.38 2.38 0.0 0 1 27.9964 105.4762
  L 24.8494 105.7626
  A 2.38 2.38 0.0 0 1 22.2635 103.6081
  L 22.2291 103.2297
  A 2.38 2.38 0.0 0 1 24.3836 100.6438
  L 27.5306 100.3574
  A 2.38 2.38 0.0 0 1 30.1165 102.5119
  L 30.1509 102.8903
  Z
  M 29.3316 102.6079
  A 3.15 1.52 -7.7 0 0 26.0063 101.5237
  A 3.15 1.52 -7.7 0 0 23.0884 103.4521
  A 3.15 1.52 -7.7 0 0 26.4137 104.5363
  A 3.15 1.52 -7.7 0 0 29.3316 102.6079
  Z"
/>
<path fill="#343337" d="
  M 84.25 103.04
  L 83.91 102.61
  Q 83.76 101.79 84.13 101.22
  Q 84.44 100.76 84.71 101.24
  Q 84.98 101.70 85.08 102.16
  Q 85.17 102.58 84.95 102.80
  Q 84.71 103.02 84.25 103.04
  Z"
/>
<path fill="#c1c2c4" d="
  M 77.19 101.80
  L 75.01 107.76
  Q 74.82 108.27 74.31 108.50
  Q 73.63 108.80 72.93 108.37
  A 0.77 0.77 0.0 0 0 72.17 108.34
  Q 71.41 108.75 70.46 109.02
  A 0.68 0.56 -55.8 0 1 70.35 107.78
  Q 72.30 107.17 72.29 105.90
  L 72.85 103.24
  A 0.53 0.53 0.0 0 1 73.89 103.23
  Q 74.28 104.93 73.04 106.14
  Q 72.65 106.52 72.89 107.02
  Q 72.95 107.14 73.01 107.27
  A 0.37 0.37 0.0 0 0 73.62 107.37
  Q 75.38 105.47 74.96 102.81
  Q 74.89 102.34 75.23 102.02
  Q 76.35 100.96 77.19 101.80
  Z"
/>
<path fill="#040506" d="
  M 80.15 101.33
  Q 82.42 102.94 81.92 105.01
  Q 81.59 106.21 79.87 105.20
  Q 81.45 103.10 79.66 102.33
  Q 79.79 101.59 80.15 101.33
  Z"
/>
<ellipse fill="#040506" cx="0.00" cy="0.00" transform="translate(26.21,103.03) rotate(-7.7)" rx="3.15" ry="1.52"/>
<path fill="#84868a" d="
  M 111.96 105.01
  Q 110.58 106.62 108.32 106.11
  Q 107.82 105.99 107.35 106.20
  C 105.93 106.84 104.78 107.89 103.46 108.46
  Q 84.83 116.49 66.06 124.07
  Q 65.99 122.43 67.87 121.24
  Q 70.63 120.97 72.84 119.32
  Q 73.23 119.03 73.71 118.92
  Q 75.60 118.47 78.73 116.61
  Q 81.32 115.07 88.15 113.41
  Q 90.13 112.93 92.84 111.62
  Q 95.13 110.52 97.62 109.91
  Q 99.46 109.46 100.92 108.58
  C 104.62 106.36 106.81 106.07 108.72 101.69
  A 0.50 0.50 0.0 0 1 109.57 101.58
  Q 110.35 102.56 110.11 103.84
  Q 110.00 104.38 110.42 104.75
  Q 111.06 105.31 111.96 105.01
  Z"
/>
<path fill="#c1c2c4" d="
  M 79.66 102.33
  Q 81.45 103.10 79.87 105.20
  Q 79.60 106.25 78.72 104.67
  Q 78.38 104.06 78.09 104.68
  Q 77.68 105.54 77.95 106.55
  Q 78.13 107.23 77.47 107.45
  L 76.52 107.76
  A 0.38 0.37 -0.9 0 1 76.04 107.30
  L 77.43 102.82
  A 0.31 0.31 0.0 0 1 78.02 102.82
  L 78.15 103.20
  Q 78.46 104.14 78.82 103.22
  L 79.10 102.48
  L 79.66 102.33
  Z"
/>
<path fill="#eaeaea" d="
  M 36.49 106.70
  Q 36.11 106.56 35.82 106.67
  Q 34.63 106.58 33.83 107.19
  Q 33.25 107.63 33.92 107.90
  L 35.25 108.44
  Q 35.49 108.78 35.94 108.95
  Q 36.35 109.46 35.89 110.07
  L 31.64 107.37
  Q 30.89 106.89 31.75 106.66
  L 35.07 105.77
  L 35.27 105.20
  Q 35.42 104.78 35.86 104.78
  Q 36.16 104.79 36.46 104.90
  Q 36.82 105.03 36.96 105.33
  Q 37.28 105.99 36.49 106.70
  Z"
/>
<path fill="#343337" d="
  M 35.82 106.67
  Q 34.93 107.06 35.25 108.44
  L 33.92 107.90
  Q 33.25 107.63 33.83 107.19
  Q 34.63 106.58 35.82 106.67
  Z"
/>
<path fill="#c1c2c4" d="
  M 35.82 106.67
  Q 36.11 106.56 36.49 106.70
  Q 35.75 107.94 35.94 108.95
  Q 35.49 108.78 35.25 108.44
  Q 34.93 107.06 35.82 106.67
  Z"
/>
<path fill="#ffffff" d="
  M 29.99 107.94
  Q 30.28 109.43 26.61 109.31
  L 24.97 109.39
  Q 24.41 109.42 24.60 109.94
  L 25.04 111.23
  A 0.33 0.33 0.0 0 1 24.48 111.57
  L 22.39 109.31
  A 0.42 0.42 0.0 0 1 22.66 108.60
  L 29.99 107.94
  Z"
/>
<path fill="#84868a" d="
  M 62.19 108.14
  Q 64.04 109.03 64.29 110.10
  A 0.56 0.56 0.0 0 1 63.74 110.78
  Q 62.59 110.76 62.39 111.13
  L 62.19 108.14
  Z"
/>
<path fill="#c1c2c4" d="
  M 49.06 115.83
  Q 48.01 115.95 47.59 114.00
  Q 47.40 113.08 45.62 112.49
  Q 45.72 112.25 45.82 112.02
  Q 47.99 111.75 49.06 115.83
  Z"
/>
<path fill="#626161" d="
  M 45.62 112.49
  Q 47.40 113.08 47.59 114.00
  Q 48.01 115.95 49.06 115.83
  Q 49.77 116.33 50.18 117.88
  Q 49.77 118.14 49.97 118.59
  Q 50.16 119.01 50.62 119.05
  Q 52.53 119.22 54.01 121.99
  L 53.65 123.15
  Q 48.21 118.98 45.62 112.49
  Z"
/>
<path fill="#c1c2c4" d="
  M 27.49 120.19
  L 29.54 120.04
  Q 29.97 120.01 29.92 120.43
  Q 29.87 120.87 29.42 120.92
  Q 26.81 121.26 22.99 121.34
  Q 22.18 121.36 22.21 120.56
  L 22.34 116.99
  A 0.51 0.50 -44.4 0 1 23.35 117.00
  L 23.38 119.73
  A 0.57 0.56 -88.9 0 0 23.91 120.29
  L 24.47 120.33
  Q 25.10 120.38 25.21 119.76
  L 25.58 117.62
  A 0.43 0.43 0.0 0 1 26.43 117.61
  L 26.86 119.71
  Q 26.97 120.23 27.49 120.19
  Z"
/>
<path fill="#c1c2c4" d="
  M 50.18 117.88
  Q 53.70 118.87 54.01 121.99
  Q 52.53 119.22 50.62 119.05
  Q 50.16 119.01 49.97 118.59
  Q 49.77 118.14 50.18 117.88
  Z"
/>
<path fill="#eaeaea" d="
  M 32.22 119.30
  Q 34.75 118.88 37.05 119.68
  Q 37.54 119.86 37.42 120.37
  Q 37.22 121.22 36.39 121.82
  Q 34.76 123.51 32.92 123.79
  A 0.49 0.48 -65.4 0 1 32.59 122.90
  L 35.31 121.20
  A 0.35 0.35 0.0 0 0 35.19 120.56
  L 32.45 120.04
  Q 32.09 119.97 32.13 119.61
  Q 32.14 119.47 32.22 119.30
  Z"
/>
<path fill="#eaeaea" d="
  M 28.73 123.96
  L 29.03 124.25
  Q 29.29 124.50 29.04 124.76
  L 28.75 125.05
  A 0.40 0.40 0.0 0 0 28.81 125.66
  L 29.83 126.36
  A 0.30 0.30 0.0 0 1 29.56 126.89
  Q 27.38 126.09 25.09 126.33
  Q 24.68 126.37 24.49 126.21
  Q 24.36 126.10 24.31 125.96
  Q 24.13 125.42 24.69 125.37
  L 27.51 125.10
  Q 28.03 125.05 28.15 124.54
  Q 28.19 124.37 28.14 124.20
  Q 28.06 123.88 27.73 123.88
  L 24.80 123.90
  A 0.33 0.33 0.0 0 1 24.73 123.24
  L 29.18 122.24
  A 0.28 0.28 0.0 0 1 29.41 122.73
  L 28.78 123.21
  Q 28.32 123.56 28.73 123.96
  Z"
/>
</svg>
