<?xml version="1.0" encoding="UTF-8" standalone="no"?>
<!DOCTYPE svg PUBLIC "-//W3C//DTD SVG 1.1//EN" "http://www.w3.org/Graphics/SVG/1.1/DTD/svg11.dtd">
<svg xmlns="http://www.w3.org/2000/svg" version="1.1" viewBox="0.00 0.00 500.00 500.00">
<g stroke-width="2.00" fill="none" stroke-linecap="butt">
<path stroke="#7cd6f7" vector-effect="non-scaling-stroke" d="
  M 389.53 244.57
  C 389.95 243.45 391.13 242.04 391.39 241.00
  Q 392.05 238.27 393.18 235.71
  Q 395.12 231.26 395.14 231.19
  Q 405.82 203.53 409.46 174.00
  Q 409.52 173.50 410.02 173.50
  L 423.46 173.52
  Q 424.20 173.53 423.83 172.88
  L 399.20 129.05
  A 1.22 1.22 0.0 0 0 397.11 128.99
  L 368.83 172.94
  Q 368.46 173.50 369.13 173.51
  L 381.03 173.58
  Q 381.56 173.59 381.48 174.10
  C 373.48 231.75 341.14 283.46 293.67 316.14
  C 280.99 324.86 266.87 331.85 252.54 337.58
  A 0.33 0.33 0.0 0 1 252.24 337.00
  C 274.94 323.05 296.39 306.80 315.64 288.39
  Q 330.82 273.86 341.38 257.64
  Q 356.84 233.87 365.82 205.64
  Q 365.92 205.32 366.74 203.74
  Q 367.35 202.54 366.84 201.50
  Q 347.43 162.51 307.37 149.01
  C 264.85 134.68 219.29 150.89 193.61 187.03
  Q 193.36 187.38 192.94 187.41
  L 154.52 190.14
  Q 153.19 190.23 154.52 190.36
  Q 157.72 190.65 161.63 190.69
  Q 193.32 191.00 225.00 191.10
  Q 226.53 191.10 226.74 189.40
  Q 226.80 188.94 227.09 188.58
  Q 235.04 178.69 246.02 181.53
  Q 251.36 182.90 254.59 186.83
  C 261.66 195.40 258.47 210.20 247.45 213.63
  Q 233.39 218.01 226.20 204.84
  A 0.86 0.84 -14.0 0 0 225.45 204.40
  L 184.19 204.41
  Q 183.54 204.41 183.34 205.02
  L 178.93 218.08
  Q 178.78 218.51 178.33 218.52
  Q 139.70 219.31 115.64 248.89
  A 0.29 0.21 -29.4 0 1 115.16 248.84
  Q 115.18 248.71 114.91 248.61
  Q 114.77 248.57 114.59 248.59
  Q 94.27 251.12 73.70 252.96
  A 0.10 0.10 0.0 0 0 73.71 253.16
  Q 76.56 253.42 79.50 253.43
  Q 94.38 253.50 109.25 252.98
  C 126.58 252.38 145.31 251.93 161.25 251.54
  Q 208.37 250.39 255.48 249.29
  Q 255.98 249.28 256.26 248.86
  Q 265.07 235.25 279.00 240.97
  Q 283.26 242.72 285.65 246.14
  C 290.26 252.74 289.69 261.57 284.52 267.66
  Q 281.25 271.51 276.62 272.38
  Q 263.61 274.82 256.32 263.40
  A 0.98 0.98 0.0 0 0 255.46 262.95
  L 105.62 266.44
  Q 105.05 266.45 104.82 266.98
  Q 97.63 283.68 98.41 301.93
  Q 98.43 302.40 97.96 302.43
  L 31.24 307.06
  Q 31.01 307.08 31.10 307.29
  Q 31.15 307.43 31.27 307.54
  Q 31.44 307.69 31.78 307.70
  Q 40.38 307.89 49.00 307.92
  Q 119.62 308.13 190.25 307.99
  Q 191.76 307.98 192.04 306.14
  A 1.67 1.63 69.5 0 1 192.37 305.39
  Q 201.40 294.14 214.05 299.31
  C 224.43 303.55 226.26 316.98 220.34 324.85
  Q 217.45 328.69 212.36 330.32
  Q 199.05 334.60 191.16 321.47
  A 0.79 0.76 73.8 0 0 190.50 321.09
  L 103.50 321.09
  A 1.54 1.53 -9.3 0 0 102.04 323.11
  Q 112.11 353.04 139.84 368.71
  Q 148.67 373.70 157.00 375.84
  C 180.42 381.86 207.01 378.71 231.25 372.49
  C 264.29 364.03 296.37 350.04 323.19 328.69
  Q 360.71 298.84 383.42 256.72
  Q 383.44 256.68 386.05 252.07
  Q 388.09 248.47 389.53 244.57"
/>
<path stroke="#7cd6f7" vector-effect="non-scaling-stroke" d="
  M 248.18 197.87
  A 6.81 6.81 0.0 0 0 241.37 191.06
  A 6.81 6.81 0.0 0 0 234.56 197.87
  A 6.81 6.81 0.0 0 0 241.37 204.68
  A 6.81 6.81 0.0 0 0 248.18 197.87"
/>
<path stroke="#7cd6f7" vector-effect="non-scaling-stroke" d="
  M 471.1293 193.8500
  A 1.28 1.28 0.0 0 0 469.8605 192.5589
  L 465.5607 192.5214
  A 1.28 1.28 0.0 0 0 464.2696 193.7902
  L 464.2307 198.2500
  A 1.28 1.28 0.0 0 0 465.4995 199.5411
  L 469.7993 199.5786
  A 1.28 1.28 0.0 0 0 471.0904 198.3098
  L 471.1293 193.8500"
/>
<path stroke="#7c7f80" vector-effect="non-scaling-stroke" d="
  M 453.5524 197.6584
  A 2.21 2.21 0.0 0 0 451.3385 195.4522
  L 442.4385 195.4678
  A 2.21 2.21 0.0 0 0 440.2324 197.6816
  L 440.2476 206.4216
  A 2.21 2.21 0.0 0 0 442.4615 208.6278
  L 451.3615 208.6122
  A 2.21 2.21 0.0 0 0 453.5676 206.3984
  L 453.5524 197.6584"
/>
<path stroke="#7c7f80" vector-effect="non-scaling-stroke" d="
  M 461.75 233.03
  L 476.39 233.03
  A 4.68 4.68 0.0 0 0 481.07 228.35
  L 481.07 213.33
  A 5.13 4.82 -0.0 0 0 475.94 208.51
  L 462.20 208.51
  A 5.13 4.82 0.0 0 0 457.07 213.33
  L 457.07 228.35
  A 4.68 4.68 0.0 0 0 461.75 233.03"
/>
<path stroke="#7cd6f7" vector-effect="non-scaling-stroke" d="
  M 456.50 239.87
  A 7.90 7.90 0.0 0 0 448.60 231.97
  L 424.12 231.97
  A 7.90 7.90 0.0 0 0 416.22 239.87
  L 416.22 264.65
  A 7.90 7.90 0.0 0 0 424.12 272.55
  L 448.60 272.55
  A 7.90 7.90 0.0 0 0 456.50 264.65
  L 456.50 239.87"
/>
<path stroke="#7c7f80" vector-effect="non-scaling-stroke" d="
  M 370.59 293.18
  C 368.01 296.98 364.76 299.92 361.99 303.74
  C 359.62 307.00 356.29 309.54 353.81 312.51
  Q 352.23 314.40 350.69 316.31
  Q 350.43 316.65 350.03 316.80
  C 349.56 316.99 349.31 317.06 348.94 317.43
  C 320.06 346.82 284.26 366.49 244.75 377.84
  A 0.25 0.24 36.8 0 0 244.82 378.32
  Q 305.78 378.31 366.50 378.21
  C 391.25 378.17 413.37 367.54 427.61 347.54
  Q 449.21 317.17 437.05 279.27
  A 1.39 1.39 0.0 0 0 435.69 278.31
  C 426.78 278.57 415.07 280.12 411.13 269.38
  Q 410.11 266.61 410.22 260.27
  Q 410.33 254.01 410.33 247.73
  C 410.33 244.91 409.64 244.17 407.32 242.91
  Q 404.49 241.38 401.84 239.70
  A 0.59 0.58 -62.3 0 0 400.99 239.97
  Q 392.72 259.61 381.02 277.58
  Q 380.99 277.63 379.16 280.99
  Q 378.12 282.88 376.35 284.60
  Q 375.31 285.60 374.91 287.24
  Q 374.80 287.70 374.50 288.05
  Q 372.40 290.51 370.59 293.18"
/>
<path stroke="#7cd6f7" vector-effect="non-scaling-stroke" d="
  M 278.63 256.13
  A 6.86 6.86 0.0 0 0 271.77 249.27
  A 6.86 6.86 0.0 0 0 264.91 256.13
  A 6.86 6.86 0.0 0 0 271.77 262.99
  A 6.86 6.86 0.0 0 0 278.63 256.13"
/>
<path stroke="#7cd6f7" vector-effect="non-scaling-stroke" d="
  M 72.49 253.78
  Q 71.59 253.87 70.68 253.87
  Q 70.62 253.87 70.62 253.94
  Q 70.62 253.97 70.62 254.00
  Q 70.62 254.13 70.75 254.13
  L 73.07 254.13
  Q 73.49 254.13 73.13 253.91
  Q 72.85 253.74 72.49 253.78"
/>
<path stroke="#7cd6f7" vector-effect="non-scaling-stroke" d="
  M 207.56 321.58
  C 219.08 319.11 211.26 302.44 203.36 308.59
  Q 197.69 313.02 201.04 318.34
  C 202.38 320.47 205.12 322.11 207.56 321.58"
/>
</g>
<path fill="#f7fdff" d="
  M 0.00 0.00
  L 500.00 0.00
  L 500.00 500.00
  L 0.00 500.00
  L 0.00 0.00
  Z
  M 389.53 244.57
  C 389.95 243.45 391.13 242.04 391.39 241.00
  Q 392.05 238.27 393.18 235.71
  Q 395.12 231.26 395.14 231.19
  Q 405.82 203.53 409.46 174.00
  Q 409.52 173.50 410.02 173.50
  L 423.46 173.52
  Q 424.20 173.53 423.83 172.88
  L 399.20 129.05
  A 1.22 1.22 0.0 0 0 397.11 128.99
  L 368.83 172.94
  Q 368.46 173.50 369.13 173.51
  L 381.03 173.58
  Q 381.56 173.59 381.48 174.10
  C 373.48 231.75 341.14 283.46 293.67 316.14
  C 280.99 324.86 266.87 331.85 252.54 337.58
  A 0.33 0.33 0.0 0 1 252.24 337.00
  C 274.94 323.05 296.39 306.80 315.64 288.39
  Q 330.82 273.86 341.38 257.64
  Q 356.84 233.87 365.82 205.64
  Q 365.92 205.32 366.74 203.74
  Q 367.35 202.54 366.84 201.50
  Q 347.43 162.51 307.37 149.01
  C 264.85 134.68 219.29 150.89 193.61 187.03
  Q 193.36 187.38 192.94 187.41
  L 154.52 190.14
  Q 153.19 190.23 154.52 190.36
  Q 157.72 190.65 161.63 190.69
  Q 193.32 191.00 225.00 191.10
  Q 226.53 191.10 226.74 189.40
  Q 226.80 188.94 227.09 188.58
  Q 235.04 178.69 246.02 181.53
  Q 251.36 182.90 254.59 186.83
  C 261.66 195.40 258.47 210.20 247.45 213.63
  Q 233.39 218.01 226.20 204.84
  A 0.86 0.84 -14.0 0 0 225.45 204.40
  L 184.19 204.41
  Q 183.54 204.41 183.34 205.02
  L 178.93 218.08
  Q 178.78 218.51 178.33 218.52
  Q 139.70 219.31 115.64 248.89
  A 0.29 0.21 -29.4 0 1 115.16 248.84
  Q 115.18 248.71 114.91 248.61
  Q 114.77 248.57 114.59 248.59
  Q 94.27 251.12 73.70 252.96
  A 0.10 0.10 0.0 0 0 73.71 253.16
  Q 76.56 253.42 79.50 253.43
  Q 94.38 253.50 109.25 252.98
  C 126.58 252.38 145.31 251.93 161.25 251.54
  Q 208.37 250.39 255.48 249.29
  Q 255.98 249.28 256.26 248.86
  Q 265.07 235.25 279.00 240.97
  Q 283.26 242.72 285.65 246.14
  C 290.26 252.74 289.69 261.57 284.52 267.66
  Q 281.25 271.51 276.62 272.38
  Q 263.61 274.82 256.32 263.40
  A 0.98 0.98 0.0 0 0 255.46 262.95
  L 105.62 266.44
  Q 105.05 266.45 104.82 266.98
  Q 97.63 283.68 98.41 301.93
  Q 98.43 302.40 97.96 302.43
  L 31.24 307.06
  Q 31.01 307.08 31.10 307.29
  Q 31.15 307.43 31.27 307.54
  Q 31.44 307.69 31.78 307.70
  Q 40.38 307.89 49.00 307.92
  Q 119.62 308.13 190.25 307.99
  Q 191.76 307.98 192.04 306.14
  A 1.67 1.63 69.5 0 1 192.37 305.39
  Q 201.40 294.14 214.05 299.31
  C 224.43 303.55 226.26 316.98 220.34 324.85
  Q 217.45 328.69 212.36 330.32
  Q 199.05 334.60 191.16 321.47
  A 0.79 0.76 73.8 0 0 190.50 321.09
  L 103.50 321.09
  A 1.54 1.53 -9.3 0 0 102.04 323.11
  Q 112.11 353.04 139.84 368.71
  Q 148.67 373.70 157.00 375.84
  C 180.42 381.86 207.01 378.71 231.25 372.49
  C 264.29 364.03 296.37 350.04 323.19 328.69
  Q 360.71 298.84 383.42 256.72
  Q 383.44 256.68 386.05 252.07
  Q 388.09 248.47 389.53 244.57
  Z
  M 248.18 197.87
  A 6.81 6.81 0.0 0 0 241.37 191.06
  A 6.81 6.81 0.0 0 0 234.56 197.87
  A 6.81 6.81 0.0 0 0 241.37 204.68
  A 6.81 6.81 0.0 0 0 248.18 197.87
  Z
  M 471.1293 193.8500
  A 1.28 1.28 0.0 0 0 469.8605 192.5589
  L 465.5607 192.5214
  A 1.28 1.28 0.0 0 0 464.2696 193.7902
  L 464.2307 198.2500
  A 1.28 1.28 0.0 0 0 465.4995 199.5411
  L 469.7993 199.5786
  A 1.28 1.28 0.0 0 0 471.0904 198.3098
  L 471.1293 193.8500
  Z
  M 453.5524 197.6584
  A 2.21 2.21 0.0 0 0 451.3385 195.4522
  L 442.4385 195.4678
  A 2.21 2.21 0.0 0 0 440.2324 197.6816
  L 440.2476 206.4216
  A 2.21 2.21 0.0 0 0 442.4615 208.6278
  L 451.3615 208.6122
  A 2.21 2.21 0.0 0 0 453.5676 206.3984
  L 453.5524 197.6584
  Z
  M 461.75 233.03
  L 476.39 233.03
  A 4.68 4.68 0.0 0 0 481.07 228.35
  L 481.07 213.33
  A 5.13 4.82 -0.0 0 0 475.94 208.51
  L 462.20 208.51
  A 5.13 4.82 0.0 0 0 457.07 213.33
  L 457.07 228.35
  A 4.68 4.68 0.0 0 0 461.75 233.03
  Z
  M 456.50 239.87
  A 7.90 7.90 0.0 0 0 448.60 231.97
  L 424.12 231.97
  A 7.90 7.90 0.0 0 0 416.22 239.87
  L 416.22 264.65
  A 7.90 7.90 0.0 0 0 424.12 272.55
  L 448.60 272.55
  A 7.90 7.90 0.0 0 0 456.50 264.65
  L 456.50 239.87
  Z
  M 370.59 293.18
  C 368.01 296.98 364.76 299.92 361.99 303.74
  C 359.62 307.00 356.29 309.54 353.81 312.51
  Q 352.23 314.40 350.69 316.31
  Q 350.43 316.65 350.03 316.80
  C 349.56 316.99 349.31 317.06 348.94 317.43
  C 320.06 346.82 284.26 366.49 244.75 377.84
  A 0.25 0.24 36.8 0 0 244.82 378.32
  Q 305.78 378.31 366.50 378.21
  C 391.25 378.17 413.37 367.54 427.61 347.54
  Q 449.21 317.17 437.05 279.27
  A 1.39 1.39 0.0 0 0 435.69 278.31
  C 426.78 278.57 415.07 280.12 411.13 269.38
  Q 410.11 266.61 410.22 260.27
  Q 410.33 254.01 410.33 247.73
  C 410.33 244.91 409.64 244.17 407.32 242.91
  Q 404.49 241.38 401.84 239.70
  A 0.59 0.58 -62.3 0 0 400.99 239.97
  Q 392.72 259.61 381.02 277.58
  Q 380.99 277.63 379.16 280.99
  Q 378.12 282.88 376.35 284.60
  Q 375.31 285.60 374.91 287.24
  Q 374.80 287.70 374.50 288.05
  Q 372.40 290.51 370.59 293.18
  Z
  M 278.63 256.13
  A 6.86 6.86 0.0 0 0 271.77 249.27
  A 6.86 6.86 0.0 0 0 264.91 256.13
  A 6.86 6.86 0.0 0 0 271.77 262.99
  A 6.86 6.86 0.0 0 0 278.63 256.13
  Z
  M 72.49 253.78
  Q 71.59 253.87 70.68 253.87
  Q 70.62 253.87 70.62 253.94
  Q 70.62 253.97 70.62 254.00
  Q 70.62 254.13 70.75 254.13
  L 73.07 254.13
  Q 73.49 254.13 73.13 253.91
  Q 72.85 253.74 72.49 253.78
  Z
  M 207.56 321.58
  C 219.08 319.11 211.26 302.44 203.36 308.59
  Q 197.69 313.02 201.04 318.34
  C 202.38 320.47 205.12 322.11 207.56 321.58
  Z"
/>
<path fill="#00afef" d="
  M 389.53 244.57
  Q 388.09 248.47 386.05 252.07
  Q 383.44 256.68 383.42 256.72
  Q 360.71 298.84 323.19 328.69
  C 296.37 350.04 264.29 364.03 231.25 372.49
  C 207.01 378.71 180.42 381.86 157.00 375.84
  Q 148.67 373.70 139.84 368.71
  Q 112.11 353.04 102.04 323.11
  A 1.54 1.53 -9.3 0 1 103.50 321.09
  L 190.50 321.09
  A 0.79 0.76 73.8 0 1 191.16 321.47
  Q 199.05 334.60 212.36 330.32
  Q 217.45 328.69 220.34 324.85
  C 226.26 316.98 224.43 303.55 214.05 299.31
  Q 201.40 294.14 192.37 305.39
  A 1.67 1.63 69.5 0 0 192.04 306.14
  Q 191.76 307.98 190.25 307.99
  Q 119.62 308.13 49.00 307.92
  Q 40.38 307.89 31.78 307.70
  Q 31.44 307.69 31.27 307.54
  Q 31.15 307.43 31.10 307.29
  Q 31.01 307.08 31.24 307.06
  L 97.96 302.43
  Q 98.43 302.40 98.41 301.93
  Q 97.63 283.68 104.82 266.98
  Q 105.05 266.45 105.62 266.44
  L 255.46 262.95
  A 0.98 0.98 0.0 0 1 256.32 263.40
  Q 263.61 274.82 276.62 272.38
  Q 281.25 271.51 284.52 267.66
  C 289.69 261.57 290.26 252.74 285.65 246.14
  Q 283.26 242.72 279.00 240.97
  Q 265.07 235.25 256.26 248.86
  Q 255.98 249.28 255.48 249.29
  Q 208.37 250.39 161.25 251.54
  C 145.31 251.93 126.58 252.38 109.25 252.98
  Q 94.38 253.50 79.50 253.43
  Q 76.56 253.42 73.71 253.16
  A 0.10 0.10 0.0 0 1 73.70 252.96
  Q 94.27 251.12 114.59 248.59
  Q 114.77 248.57 114.91 248.61
  Q 115.18 248.71 115.16 248.84
  A 0.29 0.21 -29.4 0 0 115.64 248.89
  Q 139.70 219.31 178.33 218.52
  Q 178.78 218.51 178.93 218.08
  L 183.34 205.02
  Q 183.54 204.41 184.19 204.41
  L 225.45 204.40
  A 0.86 0.84 -14.0 0 1 226.20 204.84
  Q 233.39 218.01 247.45 213.63
  C 258.47 210.20 261.66 195.40 254.59 186.83
  Q 251.36 182.90 246.02 181.53
  Q 235.04 178.69 227.09 188.58
  Q 226.80 188.94 226.74 189.40
  Q 226.53 191.10 225.00 191.10
  Q 193.32 191.00 161.63 190.69
  Q 157.72 190.65 154.52 190.36
  Q 153.19 190.23 154.52 190.14
  L 192.94 187.41
  Q 193.36 187.38 193.61 187.03
  C 219.29 150.89 264.85 134.68 307.37 149.01
  Q 347.43 162.51 366.84 201.50
  Q 367.35 202.54 366.74 203.74
  Q 365.92 205.32 365.82 205.64
  Q 356.84 233.87 341.38 257.64
  Q 330.82 273.86 315.64 288.39
  C 296.39 306.80 274.94 323.05 252.24 337.00
  A 0.33 0.33 0.0 0 0 252.54 337.58
  C 266.87 331.85 280.99 324.86 293.67 316.14
  C 341.14 283.46 373.48 231.75 381.48 174.10
  Q 381.56 173.59 381.03 173.58
  L 369.13 173.51
  Q 368.46 173.50 368.83 172.94
  L 397.11 128.99
  A 1.22 1.22 0.0 0 1 399.20 129.05
  L 423.83 172.88
  Q 424.20 173.53 423.46 173.52
  L 410.02 173.50
  Q 409.52 173.50 409.46 174.00
  Q 405.82 203.53 395.14 231.19
  Q 395.12 231.26 393.18 235.71
  Q 392.05 238.27 391.39 241.00
  C 391.13 242.04 389.95 243.45 389.53 244.57
  Z"
/>
<circle fill="#00afef" cx="241.37" cy="197.87" r="6.81"/>
<rect fill="#00afef" x="-3.43" y="-3.51" transform="translate(467.68,196.05) rotate(0.5)" width="6.86" height="7.02" rx="1.28"/>
<rect fill="#000000" x="-6.66" y="-6.58" transform="translate(446.90,202.04) rotate(-0.1)" width="13.32" height="13.16" rx="2.21"/>
<path fill="#000000" d="
  M 461.75 233.03
  A 4.68 4.68 0.0 0 1 457.07 228.35
  L 457.07 213.33
  A 5.13 4.82 -0.0 0 1 462.20 208.51
  L 475.94 208.51
  A 5.13 4.82 0.0 0 1 481.07 213.33
  L 481.07 228.35
  A 4.68 4.68 0.0 0 1 476.39 233.03
  L 461.75 233.03
  Z"
/>
<rect fill="#00afef" x="416.22" y="231.97" width="40.28" height="40.58" rx="7.90"/>
<path fill="#000000" d="
  M 370.59 293.18
  Q 372.40 290.51 374.50 288.05
  Q 374.80 287.70 374.91 287.24
  Q 375.31 285.60 376.35 284.60
  Q 378.12 282.88 379.16 280.99
  Q 380.99 277.63 381.02 277.58
  Q 392.72 259.61 400.99 239.97
  A 0.59 0.58 -62.3 0 1 401.84 239.70
  Q 404.49 241.38 407.32 242.91
  C 409.64 244.17 410.33 244.91 410.33 247.73
  Q 410.33 254.01 410.22 260.27
  Q 410.11 266.61 411.13 269.38
  C 415.07 280.12 426.78 278.57 435.69 278.31
  A 1.39 1.39 0.0 0 1 437.05 279.27
  Q 449.21 317.17 427.61 347.54
  C 413.37 367.54 391.25 378.17 366.50 378.21
  Q 305.78 378.31 244.82 378.32
  A 0.25 0.24 36.8 0 1 244.75 377.84
  C 284.26 366.49 320.06 346.82 348.94 317.43
  C 349.31 317.06 349.56 316.99 350.03 316.80
  Q 350.43 316.65 350.69 316.31
  Q 352.23 314.40 353.81 312.51
  C 356.29 309.54 359.62 307.00 361.99 303.74
  C 364.76 299.92 368.01 296.98 370.59 293.18
  Z"
/>
<circle fill="#00afef" cx="271.77" cy="256.13" r="6.86"/>
<path fill="#00afef" d="
  M 72.49 253.78
  Q 72.85 253.74 73.13 253.91
  Q 73.49 254.13 73.07 254.13
  L 70.75 254.13
  Q 70.62 254.13 70.62 254.00
  Q 70.62 253.97 70.62 253.94
  Q 70.62 253.87 70.68 253.87
  Q 71.59 253.87 72.49 253.78
  Z"
/>
<path fill="#00afef" d="
  M 203.36 308.59
  C 211.26 302.44 219.08 319.11 207.56 321.58
  C 205.12 322.11 202.38 320.47 201.04 318.34
  Q 197.69 313.02 203.36 308.59
  Z"
/>
</svg>
