<?xml version="1.0" encoding="UTF-8" standalone="no"?>
<!DOCTYPE svg PUBLIC "-//W3C//DTD SVG 1.1//EN" "http://www.w3.org/Graphics/SVG/1.1/DTD/svg11.dtd">
<svg xmlns="http://www.w3.org/2000/svg" version="1.1" viewBox="0.00 0.00 380.00 285.00">
<g stroke-width="2.00" fill="none" stroke-linecap="butt">
<path stroke="#e7e99a" vector-effect="non-scaling-stroke" d="
  M 259.77 82.80
  Q 261.15 97.28 259.67 111.75
  Q 258.07 127.29 255.67 142.72
  Q 254.25 151.79 253.80 159.87
  Q 252.77 178.40 251.54 197.80"
/>
<path stroke="#928c88" vector-effect="non-scaling-stroke" d="
  M 251.54 197.80
  L 235.73 153.28"
/>
<path stroke="#a19e9b" vector-effect="non-scaling-stroke" d="
  M 235.73 153.28
  Q 222.74 114.80 209.38 76.47
  C 207.90 72.20 205.76 64.08 202.93 58.15"
/>
<path stroke="#928c88" vector-effect="non-scaling-stroke" d="
  M 202.93 58.15
  L 202.28 57.35"
/>
<path stroke="#a19e9b" vector-effect="non-scaling-stroke" d="
  M 202.28 57.35
  Q 198.54 51.66 194.02 55.42"
/>
<path stroke="#d6a69e" vector-effect="non-scaling-stroke" d="
  M 194.02 55.42
  Q 189.78 55.30 188.67 60.45"
/>
<path stroke="#f5f7f1" vector-effect="non-scaling-stroke" d="
  M 188.67 60.45
  Q 188.22 63.44 186.89 64.36
  Q 186.28 64.78 186.21 64.04
  L 185.75 59.24"
/>
<path stroke="#e7e99a" vector-effect="non-scaling-stroke" d="
  M 185.75 59.24
  Q 182.32 59.03 181.73 62.36
  Q 181.56 63.37 181.82 65.15
  C 182.18 67.54 182.41 69.75 183.11 72.02
  Q 185.94 81.18 190.15 89.81
  C 190.67 90.88 190.20 91.99 190.66 93.20
  Q 193.26 100.03 193.87 102.38
  Q 195.46 108.48 197.13 112.98
  Q 200.15 121.06 200.17 121.11
  Q 205.22 136.04 213.19 156.52
  Q 220.94 176.44 232.94 211.28
  Q 236.40 221.32 242.92 227.87"
/>
<path stroke="#f5f7f1" vector-effect="non-scaling-stroke" d="
  M 242.92 227.87
  Q 245.86 228.66 247.00 228.37
  Q 250.18 227.56 252.29 227.60"
/>
<path stroke="#d6a69e" vector-effect="non-scaling-stroke" d="
  M 252.29 227.60
  L 255.98 227.43"
/>
<path stroke="#928c88" vector-effect="non-scaling-stroke" d="
  M 255.98 227.43
  Q 264.61 227.84 267.06 219.81
  Q 270.96 206.98 272.04 194.73
  Q 274.83 162.82 279.42 131.12
  Q 280.91 120.89 283.30 111.53
  Q 288.00 93.18 293.88 74.83"
/>
<path stroke="#f5f7f1" vector-effect="non-scaling-stroke" d="
  M 293.88 74.83
  Q 295.33 73.10 299.99 72.86
  Q 301.16 72.80 300.22 72.10
  Q 300.09 72.01 299.98 71.90
  Q 299.63 71.57 299.73 71.10
  Q 301.91 60.94 303.74 50.70
  C 304.36 47.23 302.43 45.61 299.03 45.44
  C 296.43 45.32 293.51 44.57 291.31 44.31
  Q 284.48 43.51 277.60 42.69
  C 270.04 41.80 275.07 49.05 270.50 49.39
  Q 264.58 49.84 258.50 50.21
  A 1.17 1.13 14.6 0 0 257.63 50.70
  C 256.18 52.80 256.28 54.57 256.83 57.38
  Q 257.13 58.88 257.02 60.72
  Q 256.63 67.73 254.53 74.98
  A 1.40 1.40 0.0 0 0 256.35 76.68
  L 258.00 76.07
  Q 258.66 75.83 258.77 76.52
  L 259.77 82.80"
/>
<path stroke="#89857b" vector-effect="non-scaling-stroke" d="
  M 293.88 74.83
  Q 293.79 73.96 294.72 72.34
  A 0.52 0.52 0.0 0 0 294.36 71.57
  L 290.73 70.91
  Q 290.22 70.82 290.11 71.33
  L 289.01 76.65"
/>
<path stroke="#c6958c" vector-effect="non-scaling-stroke" d="
  M 289.01 76.65
  Q 287.10 74.77 288.69 71.24
  A 0.59 0.59 0.0 0 0 288.23 70.41
  L 284.55 69.91
  Q 284.08 69.84 284.00 70.30
  Q 283.21 74.58 282.60 78.87
  Q 282.12 82.29 280.84 84.87
  Q 279.77 87.05 277.96 90.50
  Q 274.73 96.65 273.51 105.40
  C 272.91 109.69 272.24 112.99 271.48 116.76
  Q 270.91 119.61 270.42 125.34
  C 270.03 129.97 268.66 134.81 268.20 138.91
  Q 265.71 161.30 263.55 183.74
  Q 262.31 196.67 260.19 209.49
  Q 259.74 212.22 258.77 215.15"
/>
<path stroke="#89857b" vector-effect="non-scaling-stroke" d="
  M 258.77 215.15
  Q 256.52 212.70 256.26 209.52"
/>
<path stroke="#dee28d" vector-effect="non-scaling-stroke" d="
  M 256.26 209.52
  Q 258.25 201.40 258.93 192.76
  Q 260.01 178.96 260.14 177.80
  Q 264.13 144.02 268.23 110.26
  Q 268.48 108.18 269.46 102.72"
/>
<path stroke="#cd9f91" vector-effect="non-scaling-stroke" d="
  M 269.46 102.72
  C 270.02 100.49 270.37 98.06 271.16 95.98
  Q 273.75 89.05 276.45 82.21
  Q 277.62 79.27 277.33 73.68"
/>
<path stroke="#dee28d" vector-effect="non-scaling-stroke" d="
  M 277.33 73.68
  Q 274.75 74.07 275.87 69.88
  A 1.76 1.75 -4.1 0 0 273.48 67.82
  Q 271.88 68.51 272.10 70.21
  Q 272.16 70.69 271.95 71.13
  Q 269.98 75.19 269.17 79.59
  Q 268.94 80.79 268.30 81.97
  Q 267.47 83.46 267.40 84.40
  Q 267.11 88.29 265.81 91.94
  Q 265.62 92.48 265.37 91.97
  Q 264.64 90.54 264.65 89.74
  Q 264.73 82.37 264.35 74.97
  Q 264.31 74.23 263.58 74.17
  L 259.74 73.80
  A 0.64 0.64 0.0 0 0 259.04 74.50
  L 259.77 82.80"
/>
<path stroke="#342c25" vector-effect="non-scaling-stroke" d="
  M 202.93 58.15
  Q 202.69 59.23 202.86 60.23
  Q 204.49 69.84 207.96 78.89
  C 211.56 88.27 214.85 97.69 218.01 107.23
  C 218.55 108.85 219.70 110.29 220.11 112.27
  Q 220.71 115.24 221.06 116.15
  Q 222.33 119.44 223.33 122.83
  C 223.65 123.93 224.60 124.71 224.38 126.27
  Q 224.31 126.78 224.54 127.23
  Q 225.40 128.86 226.04 130.57
  Q 226.24 131.12 227.28 133.01
  Q 227.88 134.11 227.90 135.39
  Q 227.90 135.89 228.12 136.34
  Q 229.33 138.87 229.99 141.57
  Q 230.70 144.50 231.70 146.40
  Q 233.12 149.11 234.35 151.88
  Q 234.60 152.44 235.73 153.28"
/>
<path stroke="#7b7723" vector-effect="non-scaling-stroke" d="
  M 251.54 197.80
  L 256.26 209.52"
/>
<path stroke="#622a23" vector-effect="non-scaling-stroke" d="
  M 258.77 215.15
  Q 258.69 216.13 259.89 217.09
  A 1.20 1.20 0.0 0 0 261.65 216.79
  C 263.73 213.51 264.45 211.32 264.84 207.18
  Q 265.76 197.46 267.31 187.82
  Q 268.40 181.05 268.84 174.08
  Q 269.79 158.90 272.41 143.87
  Q 272.43 143.78 273.19 141.49
  Q 273.68 140.04 272.99 138.50
  Q 272.78 138.04 272.90 137.55
  Q 273.98 132.98 274.36 128.32
  C 274.62 125.19 275.95 122.48 276.25 119.26
  Q 276.87 112.67 279.27 106.46
  Q 280.39 103.56 281.38 97.25
  Q 283.00 86.90 289.01 76.65"
/>
<path stroke="#bf913a" vector-effect="non-scaling-stroke" d="
  M 277.33 73.68
  Q 275.87 73.46 275.10 73.80
  Q 274.47 74.07 274.23 75.50
  Q 273.16 81.71 270.33 90.26
  Q 268.56 95.57 268.51 102.81
  A 0.24 0.24 0.0 0 0 268.97 102.90
  L 269.24 102.25
  A 0.15 0.15 0.0 0 1 269.53 102.29
  Q 269.55 102.46 269.46 102.72"
/>
<path stroke="#342c25" vector-effect="non-scaling-stroke" d="
  M 202.28 57.35
  Q 199.74 56.02 198.53 58.02
  Q 198.27 58.46 198.35 58.96
  Q 198.75 61.60 199.12 62.69
  C 204.83 79.79 211.18 96.45 216.92 113.75
  Q 222.29 129.93 228.47 145.82
  Q 228.68 146.35 229.35 147.58
  C 230.08 148.91 230.52 151.17 230.84 152.03
  Q 233.83 160.13 236.84 168.22
  C 237.64 170.35 239.06 172.56 239.77 175.16
  Q 241.03 179.77 241.31 180.51
  Q 247.90 197.90 253.39 215.54
  A 0.21 0.21 0.0 0 1 253.01 215.71
  Q 247.63 207.10 245.14 197.37
  Q 243.03 189.14 242.22 186.81
  Q 235.88 168.47 226.47 144.46
  Q 223.22 136.15 220.48 130.34
  Q 220.08 129.51 217.61 123.77
  C 214.60 116.80 211.80 111.31 209.43 102.70
  C 209.01 101.19 207.59 99.40 207.41 98.12
  Q 205.15 82.68 198.73 70.48
  Q 197.85 68.81 195.40 67.57
  Q 194.75 67.24 194.88 67.96
  L 195.41 71.06"
/>
<path stroke="#79463b" vector-effect="non-scaling-stroke" d="
  M 195.41 71.06
  Q 190.70 61.94 194.02 55.42"
/>
<path stroke="#6a3428" vector-effect="non-scaling-stroke" d="
  M 195.41 71.06
  C 200.60 84.37 204.49 95.01 210.03 111.29
  C 212.64 118.97 215.98 126.34 218.61 134.03
  Q 219.55 136.78 220.27 138.51
  Q 236.84 178.22 249.32 219.38
  Q 250.26 222.48 254.03 227.10
  Q 254.32 227.45 254.77 227.45
  L 255.98 227.43"
/>
<path stroke="#cd9f91" vector-effect="non-scaling-stroke" d="
  M 252.29 227.60
  Q 246.17 224.45 243.09 214.48
  Q 234.16 185.55 219.05 147.72
  C 208.62 121.60 200.32 94.74 189.86 68.63
  Q 188.81 66.00 188.67 60.45"
/>
<path stroke="#dee28d" vector-effect="non-scaling-stroke" d="
  M 185.75 59.24
  Q 184.82 64.14 186.46 69.00
  C 190.04 79.55 194.00 89.77 197.18 99.46
  Q 206.40 127.57 217.46 155.02
  Q 227.43 179.78 231.49 192.49
  Q 236.62 208.58 240.77 218.24
  Q 242.22 221.60 245.99 226.75
  Q 246.34 227.22 245.84 227.53
  Q 245.04 228.02 242.92 227.87"
/>
<path stroke="#f5f7f1" vector-effect="non-scaling-stroke" d="
  M 68.00 132.27
  L 70.22 138.61
  A 0.85 0.85 0.0 0 0 71.87 138.33
  L 71.87 137.62
  Q 71.87 137.58 71.93 137.65
  Q 71.95 137.67 71.96 137.69
  Q 72.00 137.74 72.00 137.83
  L 71.90 150.79"
/>
<path stroke="#8c98a5" vector-effect="non-scaling-stroke" d="
  M 71.90 150.79
  L 68.37 151.97
  Q 67.82 152.16 67.82 152.73
  L 67.49 180.76"
/>
<path stroke="#f5f7f1" vector-effect="non-scaling-stroke" d="
  M 67.49 180.76
  C 66.07 185.83 69.44 188.16 73.81 188.60
  Q 75.47 188.77 77.31 189.44
  Q 79.55 190.25 81.91 190.60
  Q 84.05 190.92 86.51 191.57
  C 90.16 192.54 93.71 191.45 97.05 192.54
  Q 99.09 193.21 101.02 194.18
  Q 103.02 195.19 104.76 195.33
  Q 106.73 195.49 108.73 195.52
  C 110.92 195.56 112.34 194.33 114.81 194.66
  A 1.40 1.39 31.5 0 0 115.78 194.43
  Q 117.95 192.90 120.48 192.72
  Q 124.37 192.42 124.47 192.41
  Q 130.28 191.34 135.95 189.90
  Q 136.40 189.78 136.73 189.44
  Q 139.50 186.60 142.55 186.79
  C 148.08 187.14 147.55 184.78 149.34 180.83
  Q 149.55 180.37 149.41 179.89
  Q 149.04 178.54 149.73 177.71
  A 0.71 0.69 -26.5 0 0 149.90 177.23
  Q 149.86 170.67 149.66 164.10
  Q 149.60 162.23 149.00 160.48
  Q 148.41 158.75 147.77 156.98"
/>
<path stroke="#8a9ead" vector-effect="non-scaling-stroke" d="
  M 147.77 156.98
  L 147.68 153.28
  Q 147.67 152.73 147.15 152.55
  L 143.86 151.36"
/>
<path stroke="#f5f7f1" vector-effect="non-scaling-stroke" d="
  M 143.86 151.36
  Q 142.84 148.22 143.92 145.27
  Q 144.97 142.40 146.80 140.01
  Q 148.74 137.46 149.23 135.83
  Q 150.89 130.30 149.66 124.50
  C 148.33 118.21 149.02 113.59 148.11 108.03"
/>
<path stroke="#8ca9b9" vector-effect="non-scaling-stroke" d="
  M 148.11 108.03
  C 148.38 105.39 148.59 101.81 145.50 101.78
  Q 131.34 101.61 117.47 101.59
  A 1.73 1.72 80.5 0 1 115.84 100.42
  C 113.81 94.39 108.24 91.38 102.83 96.03
  C 101.45 97.21 100.76 98.90 100.01 100.56
  A 1.12 1.11 5.9 0 1 99.23 101.19
  Q 98.05 101.46 96.25 101.46
  Q 83.35 101.47 70.34 101.26
  A 2.13 2.12 0.5 0 0 68.18 103.37
  L 68.00 132.27"
/>
<path stroke="#83a2ac" vector-effect="non-scaling-stroke" d="
  M 148.11 108.03
  L 147.77 131.99
  Q 147.76 132.53 147.26 132.71
  L 143.89 133.97"
/>
<path stroke="#174968" vector-effect="non-scaling-stroke" d="
  M 143.89 133.97
  Q 143.49 127.83 142.36 122.29
  Q 141.53 118.20 139.49 116.04
  Q 135.92 112.27 130.47 112.42
  Q 124.08 112.60 119.20 111.38
  Q 116.09 110.61 113.73 110.59
  Q 110.51 110.57 107.29 110.34
  C 103.97 110.10 100.81 108.39 97.11 108.20
  Q 96.60 108.18 96.31 107.75
  L 95.86 107.10"
/>
<path stroke="#8ca9b9" vector-effect="non-scaling-stroke" d="
  M 95.86 107.10
  L 95.77 106.33
  Q 95.72 105.88 95.29 105.78
  Q 92.91 105.19 91.09 106.22"
/>
<path stroke="#2e4956" vector-effect="non-scaling-stroke" d="
  M 91.09 106.22
  Q 90.93 106.09 90.97 105.61"
/>
<path stroke="#83a2ac" vector-effect="non-scaling-stroke" d="
  M 90.97 105.61
  Q 91.73 105.04 91.06 104.16"
/>
<path stroke="#4b6e82" vector-effect="non-scaling-stroke" d="
  M 91.06 104.16
  Q 90.18 103.73 89.50 103.78
  Q 85.00 104.09 80.44 104.26"
/>
<path stroke="#83a2ac" vector-effect="non-scaling-stroke" d="
  M 80.44 104.26
  L 77.54 104.28
  A 0.72 0.71 -5.1 0 0 76.84 105.11
  L 77.91 111.32
  A 0.19 0.19 0.0 0 1 77.63 111.52
  L 77.32 111.37
  Q 76.87 111.14 76.84 111.64
  L 76.64 115.04"
/>
<path stroke="#4b6e82" vector-effect="non-scaling-stroke" d="
  M 76.64 115.04
  Q 76.25 115.69 76.61 116.32
  A 1.18 1.16 81.0 0 0 77.38 116.89
  Q 80.27 117.50 83.07 116.61
  Q 83.52 116.47 83.95 116.66
  Q 86.35 117.72 88.93 117.26"
/>
<path stroke="#174968" vector-effect="non-scaling-stroke" d="
  M 88.93 117.26
  Q 87.36 118.86 88.38 120.71"
/>
<path stroke="#83a2ac" vector-effect="non-scaling-stroke" d="
  M 88.38 120.71
  L 72.25 120.52
  Q 71.77 120.51 71.79 120.99
  L 72.21 132.99
  Q 72.23 133.65 71.65 133.34
  Q 69.93 132.43 68.00 132.27"
/>
<path stroke="#8a9ead" vector-effect="non-scaling-stroke" d="
  M 95.86 107.10
  Q 95.18 107.57 93.96 106.40
  Q 93.53 105.99 93.07 106.37
  Q 92.18 107.11 91.26 107.27"
/>
<path stroke="#f5f7f1" vector-effect="non-scaling-stroke" d="
  M 91.26 107.27
  L 90.89 106.76"
/>
<path stroke="#b4bcba" vector-effect="non-scaling-stroke" d="
  M 91.06 104.16
  L 90.03 104.26
  Q 89.71 104.29 89.85 104.58
  L 90.05 104.99"
/>
<path stroke="#606364" vector-effect="non-scaling-stroke" d="
  M 90.05 104.99
  L 89.59 104.93
  Q 89.04 104.87 89.00 105.42
  Q 88.98 105.69 89.09 105.93"
/>
<path stroke="#bdc3c7" vector-effect="non-scaling-stroke" d="
  M 89.09 105.93
  Q 87.01 105.51 84.97 106.05
  A 0.54 0.54 0.0 0 0 84.61 106.78
  Q 85.13 108.02 84.31 108.92
  Q 83.97 109.30 84.28 109.71
  Q 84.53 110.02 85.07 110.06"
/>
<path stroke="#606364" vector-effect="non-scaling-stroke" d="
  M 85.07 110.06
  Q 84.53 112.92 88.16 112.41"
/>
<path stroke="#b4bcba" vector-effect="non-scaling-stroke" d="
  M 88.16 112.41
  Q 88.00 113.57 85.96 113.40
  Q 85.28 113.34 85.27 114.02
  Q 85.27 115.52 88.50 116.10"
/>
<path stroke="#606364" vector-effect="non-scaling-stroke" d="
  M 88.50 116.10
  Q 88.05 116.47 89.27 116.66"
/>
<path stroke="#b4bcba" vector-effect="non-scaling-stroke" d="
  M 89.27 116.66
  Q 89.26 117.02 90.31 117.09"
/>
<path stroke="#496376" vector-effect="non-scaling-stroke" d="
  M 90.31 117.09
  L 88.93 117.26"
/>
<path stroke="#b4bcba" vector-effect="non-scaling-stroke" d="
  M 76.64 115.04
  Q 78.95 114.54 79.56 115.45
  Q 79.93 116.00 80.35 115.49
  L 81.45 114.18
  A 0.52 0.52 0.0 0 0 81.16 113.34
  Q 80.41 113.16 79.63 113.22
  Q 79.12 113.27 78.89 113.14
  Q 78.52 112.92 78.44 112.47
  Q 78.34 111.88 78.94 111.92
  L 80.66 112.03
  Q 81.19 112.07 81.35 111.56
  Q 81.85 109.82 81.05 108.29
  Q 80.83 107.86 81.11 107.45
  L 81.64 106.69
  Q 82.10 106.01 81.28 106.01
  L 78.53 105.99
  A 0.68 0.67 -20.9 0 1 78.03 105.77
  L 77.82 105.54
  Q 77.37 105.04 78.05 104.98
  Q 80.00 104.82 81.95 104.68
  Q 81.99 104.68 82.00 104.64
  Q 82.00 104.62 82.00 104.59
  Q 82.00 104.50 81.90 104.51
  Q 80.91 104.61 80.44 104.26"
/>
<path stroke="#a19e9b" vector-effect="non-scaling-stroke" d="
  M 91.09 106.22
  Q 91.21 106.89 90.89 106.76"
/>
<path stroke="#98978e" vector-effect="non-scaling-stroke" d="
  M 90.89 106.76
  Q 90.50 112.86 90.62 114.50
  Q 90.76 116.37 89.27 116.66"
/>
<path stroke="#98978e" vector-effect="non-scaling-stroke" d="
  M 88.50 116.10
  Q 89.61 113.00 88.16 112.41"
/>
<path stroke="#a19e9b" vector-effect="non-scaling-stroke" d="
  M 85.07 110.06
  Q 85.04 108.75 85.89 108.02
  Q 86.37 107.60 86.97 107.83
  L 88.22 108.32
  Q 88.70 108.50 88.91 108.03
  Q 89.38 106.93 89.09 105.93"
/>
<path stroke="#98978e" vector-effect="non-scaling-stroke" d="
  M 90.97 105.61
  Q 90.43 105.01 90.05 104.99"
/>
<path stroke="#f5f7f1" vector-effect="non-scaling-stroke" d="
  M 92.80 139.71
  Q 92.30 142.06 92.86 144.48"
/>
<path stroke="#839198" vector-effect="non-scaling-stroke" d="
  M 92.86 144.48
  L 92.83 148.01
  Q 92.83 148.50 92.60 148.93
  Q 91.40 151.14 91.81 153.79
  Q 92.04 155.25 93.75 154.65
  A 0.39 0.38 -10.1 0 1 94.27 155.01
  L 94.25 162.41
  Q 94.25 162.82 93.84 162.82
  L 72.66 162.68
  A 1.02 1.01 0.8 0 1 71.65 161.65
  L 71.90 150.79"
/>
<path stroke="#8197a0" vector-effect="non-scaling-stroke" d="
  M 143.89 133.97
  Q 141.59 135.43 139.94 137.95
  C 136.76 142.83 139.24 148.46 143.86 151.36"
/>
<path stroke="#8197a0" vector-effect="non-scaling-stroke" d="
  M 147.77 156.98
  L 147.49 181.99
  A 1.53 1.52 -2.5 0 1 146.10 183.49
  L 140.96 183.99"
/>
<path stroke="#496376" vector-effect="non-scaling-stroke" d="
  M 140.96 183.99
  Q 129.47 182.87 118.00 183.16
  Q 114.67 183.25 114.59 185.83"
/>
<path stroke="#8197a0" vector-effect="non-scaling-stroke" d="
  M 114.59 185.83
  C 112.02 193.23 101.99 192.74 100.14 184.88"
/>
<path stroke="#496376" vector-effect="non-scaling-stroke" d="
  M 100.14 184.88
  Q 99.15 182.69 93.70 183.32"
/>
<path stroke="#183854" vector-effect="non-scaling-stroke" d="
  M 93.70 183.32
  L 102.48 182.23"
/>
<path stroke="#496376" vector-effect="non-scaling-stroke" d="
  M 102.48 182.23
  L 102.71 184.57"
/>
<path stroke="#8197a0" vector-effect="non-scaling-stroke" d="
  M 102.71 184.57
  Q 105.05 189.80 110.47 187.20
  Q 111.58 186.66 111.94 184.74
  Q 112.05 184.15 111.53 184.45
  Q 110.54 185.02 110.18 184.23
  Q 109.96 183.75 109.44 183.68
  L 107.08 183.36
  A 0.04 0.03 46.4 0 1 107.08 183.29
  Q 107.20 183.28 107.34 183.34
  Q 107.54 183.42 107.75 183.38
  Q 109.05 183.16 110.22 183.67
  Q 110.64 183.85 111.06 183.67
  L 112.33 183.13"
/>
<path stroke="#496376" vector-effect="non-scaling-stroke" d="
  M 112.33 183.13
  Q 112.08 181.23 111.04 179.75"
/>
<path stroke="#183854" vector-effect="non-scaling-stroke" d="
  M 111.04 179.75
  Q 112.05 177.68 114.00 178.01
  Q 117.81 178.67 120.35 175.97"
/>
<path stroke="#8197a0" vector-effect="non-scaling-stroke" d="
  M 120.35 175.97
  Q 122.11 176.35 123.50 175.98"
/>
<path stroke="#183854" vector-effect="non-scaling-stroke" d="
  M 123.50 175.98
  Q 123.92 175.86 124.20 175.55"
/>
<path stroke="#8197a0" vector-effect="non-scaling-stroke" d="
  M 124.20 175.55
  Q 124.45 176.32 125.74 175.72"
/>
<path stroke="#1d2c37" vector-effect="non-scaling-stroke" d="
  M 125.74 175.72
  Q 126.44 176.34 127.22 175.44"
/>
<path stroke="#8197a0" vector-effect="non-scaling-stroke" d="
  M 127.22 175.44
  Q 127.31 176.07 128.10 175.85
  Q 128.59 175.71 128.63 175.20
  Q 128.83 172.65 126.47 172.25
  Q 125.93 172.16 125.59 171.74
  Q 124.94 170.94 124.27 171.22"
/>
<path stroke="#183854" vector-effect="non-scaling-stroke" d="
  M 124.27 171.22
  Q 124.33 171.06 124.30 170.94
  Q 124.27 170.78 124.11 170.76
  Q 120.95 170.43 118.08 171.70
  Q 117.66 171.88 117.20 171.84
  L 108.96 171.15"
/>
<path stroke="#8197a0" vector-effect="non-scaling-stroke" d="
  M 108.96 171.15
  L 105.54 170.66
  A 0.21 0.20 -86.4 0 0 105.31 170.87
  Q 105.30 171.71 106.23 171.41
  A 0.54 0.54 0.0 0 1 106.93 171.95
  L 106.82 173.98"
/>
<path stroke="#183854" vector-effect="non-scaling-stroke" d="
  M 106.82 173.98
  Q 104.83 176.48 105.12 178.34
  A 0.69 0.69 0.0 0 0 105.76 178.92
  L 110.08 179.15"
/>
<path stroke="#496376" vector-effect="non-scaling-stroke" d="
  M 110.08 179.15
  Q 108.57 179.85 106.72 179.68
  Q 105.88 179.60 105.73 179.54
  Q 105.03 179.24 104.27 179.83
  A 0.45 0.45 0.0 0 1 103.55 179.53
  L 103.31 177.68"
/>
<path stroke="#8197a0" vector-effect="non-scaling-stroke" d="
  M 103.31 177.68
  Q 103.38 173.91 103.41 170.09
  C 103.43 167.61 102.28 166.34 102.11 163.92"
/>
<path stroke="#183854" vector-effect="non-scaling-stroke" d="
  M 102.11 163.92
  Q 103.87 161.85 106.33 164.10
  Q 106.71 164.45 107.21 164.54
  Q 124.61 167.99 134.41 153.90
  Q 134.92 153.18 134.94 152.49
  Q 134.98 151.50 134.49 150.97"
/>
<path stroke="#8a9ead" vector-effect="non-scaling-stroke" d="
  M 134.49 150.97
  C 144.62 125.12 108.90 108.19 95.37 132.55
  Q 94.69 133.76 94.05 136.10
  Q 93.55 137.91 92.80 139.71"
/>
<path stroke="#8197a0" vector-effect="non-scaling-stroke" d="
  M 92.80 139.71
  L 92.22 129.92
  Q 92.19 129.37 92.74 129.45
  L 93.90 129.62
  A 0.53 0.53 0.0 0 0 94.51 129.10
  L 94.66 121.80
  A 0.66 0.65 -87.7 0 0 94.05 121.13
  L 88.38 120.71"
/>
<path stroke="#8197a0" vector-effect="non-scaling-stroke" d="
  M 90.31 117.09
  Q 90.72 117.06 90.94 116.92
  Q 91.15 116.79 91.19 116.38
  Q 91.43 113.94 91.31 111.38
  Q 91.28 110.83 91.82 110.76
  Q 93.02 110.60 94.31 111.09
  A 1.16 1.16 0.0 0 0 95.20 108.95
  Q 94.63 108.69 93.98 108.50
  A 0.32 0.31 -89.6 0 0 93.59 108.89
  L 93.91 109.96
  A 0.48 0.32 39.0 0 1 93.10 109.88
  Q 92.76 108.87 91.72 109.25
  Q 91.26 109.42 91.16 108.93
  Q 90.99 108.10 91.26 107.27"
/>
<path stroke="#839198" vector-effect="non-scaling-stroke" d="
  M 102.11 163.92
  Q 101.73 163.59 101.38 163.73
  Q 101.11 163.84 101.01 164.24
  Q 100.85 164.89 101.20 165.10
  A 1.05 0.96 -19.7 0 1 100.27 166.86
  L 98.17 166.32
  Q 97.62 166.18 97.74 165.63
  L 97.96 164.56
  Q 98.09 163.95 98.68 164.14
  L 99.22 164.31
  A 0.27 0.27 0.0 0 0 99.46 163.83
  Q 99.04 163.53 98.51 163.44
  Q 97.93 163.34 97.61 163.82
  Q 96.80 165.03 97.31 166.36
  Q 97.47 166.77 97.16 167.09
  L 96.73 167.52
  Q 96.28 167.97 96.28 168.60
  L 96.23 179.90
  Q 96.22 180.50 96.82 180.50
  L 100.87 180.51"
/>
<path stroke="#4b5d6e" vector-effect="non-scaling-stroke" d="
  M 100.87 180.51
  Q 105.26 181.80 110.11 181.37
  Q 110.13 181.36 110.13 181.34
  Q 110.13 181.28 110.13 181.41
  Q 110.13 181.47 110.10 181.47
  Q 107.32 181.00 104.78 181.86
  Q 104.36 182.00 104.12 181.63
  Q 103.92 181.33 103.49 181.35
  Q 102.90 181.37 102.48 182.23"
/>
<path stroke="#4b5d6e" vector-effect="non-scaling-stroke" d="
  M 93.70 183.32
  L 81.52 183.31"
/>
<path stroke="#839198" vector-effect="non-scaling-stroke" d="
  M 81.52 183.31
  C 78.44 183.47 68.03 184.28 67.49 180.76"
/>
<path stroke="#8c98a5" vector-effect="non-scaling-stroke" d="
  M 134.49 150.97
  C 126.99 167.15 105.85 168.54 96.23 153.56
  C 94.50 150.85 93.72 147.66 92.86 144.48"
/>
<path stroke="#839198" vector-effect="non-scaling-stroke" d="
  M 124.27 171.22
  L 124.20 175.55"
/>
<path stroke="#839198" vector-effect="non-scaling-stroke" d="
  M 123.50 175.98
  Q 122.82 175.02 121.43 175.41
  A 0.53 0.53 0.0 0 1 120.76 174.88
  L 120.79 173.62
  Q 120.80 172.94 121.47 173.10
  L 122.66 173.39
  Q 123.21 173.52 123.21 172.96
  L 123.22 172.58
  Q 123.23 172.19 122.83 172.22
  L 120.71 172.41
  A 0.74 0.73 7.5 0 0 120.08 172.89
  Q 119.47 174.50 120.35 175.97"
/>
<path stroke="#4b5d6e" vector-effect="non-scaling-stroke" d="
  M 111.04 179.75
  Q 110.80 179.87 110.08 179.15"
/>
<path stroke="#839198" vector-effect="non-scaling-stroke" d="
  M 108.96 171.15
  Q 107.01 171.85 107.97 175.28
  A 0.31 0.31 0.0 0 1 107.78 175.65
  Q 107.62 175.71 107.47 175.77
  A 0.43 0.42 -21.3 0 1 106.91 175.53
  Q 106.64 174.81 106.82 173.98"
/>
<path stroke="#89857b" vector-effect="non-scaling-stroke" d="
  M 127.22 175.44
  Q 127.68 174.00 126.64 173.23
  Q 126.20 172.91 125.87 173.34
  Q 125.09 174.37 125.74 175.72"
/>
<path stroke="#b4bcba" vector-effect="non-scaling-stroke" d="
  M 103.31 177.68
  Q 103.34 181.21 100.87 180.51"
/>
<path stroke="#b4bcba" vector-effect="non-scaling-stroke" d="
  M 112.33 183.13
  Q 107.35 181.87 102.71 184.57"
/>
<path stroke="#b4bcba" vector-effect="non-scaling-stroke" d="
  M 81.52 183.31
  Q 83.74 185.98 87.10 185.44
  Q 88.19 185.27 87.11 185.09
  Q 84.80 184.70 82.65 183.87
  Q 82.63 183.86 82.63 183.88
  Q 82.63 183.89 82.62 183.91
  Q 82.62 183.96 82.67 183.98
  Q 91.11 185.87 100.14 184.88"
/>
<path stroke="#b4bcba" vector-effect="non-scaling-stroke" d="
  M 114.59 185.83
  Q 120.59 186.12 126.62 185.33
  Q 133.77 184.39 140.96 183.99"
/>
<path stroke="#83a2ac" vector-effect="non-scaling-stroke" d="
  M 113.00 101.52
  A 4.83 4.83 0.0 0 0 108.17 96.69
  A 4.83 4.83 0.0 0 0 103.34 101.52
  A 4.83 4.83 0.0 0 0 108.17 106.35
  A 4.83 4.83 0.0 0 0 113.00 101.52"
/>
<path stroke="#8ca9b9" vector-effect="non-scaling-stroke" d="
  M 75.25 106.78
  Q 77.50 106.60 75.06 105.91
  Q 73.91 105.59 72.11 106.44
  A 0.31 0.31 0.0 0 0 72.27 107.03
  L 75.25 106.78"
/>
<path stroke="#83a2ac" vector-effect="non-scaling-stroke" d="
  M 73.27 108.96
  L 74.22 109.14
  Q 75.06 109.31 74.51 109.97
  L 74.24 110.30
  A 0.35 0.35 0.0 0 0 74.54 110.87
  Q 75.80 110.73 75.67 109.27
  A 1.13 1.12 3.9 0 0 74.79 108.27
  Q 72.67 107.82 71.36 109.42
  Q 70.86 110.02 71.57 110.34
  L 72.74 110.87
  Q 73.38 111.15 73.15 110.49
  L 72.80 109.51
  Q 72.55 108.82 73.27 108.96"
/>
<path stroke="#8a9ead" vector-effect="non-scaling-stroke" d="
  M 92.96 118.92
  L 92.35 119.40
  A 0.32 0.31 -64.7 0 0 92.55 119.97
  L 93.13 119.95
  Q 93.69 119.92 93.78 119.37
  L 94.29 116.51
  A 0.41 0.41 0.0 0 0 93.52 116.25
  Q 93.12 117.03 93.32 117.90
  Q 93.46 118.52 92.96 118.92"
/>
<path stroke="#8a9ead" vector-effect="non-scaling-stroke" d="
  M 96.94 117.73
  L 95.42 119.51
  Q 94.75 120.30 95.78 120.21
  L 97.25 120.09
  A 0.38 0.37 -22.0 0 0 97.51 119.48
  Q 96.69 118.49 97.62 117.90
  A 0.83 0.83 0.0 0 0 97.56 116.46
  Q 96.86 116.11 96.06 116.23
  A 0.23 0.22 52.0 0 0 96.01 116.66
  L 96.77 117.00
  Q 97.36 117.25 96.94 117.73"
/>
<path stroke="#8197a0" vector-effect="non-scaling-stroke" d="
  M 134.04 173.26
  L 133.78 172.95
  A 0.36 0.36 0.0 0 0 133.14 173.17
  L 133.06 174.73
  A 0.47 0.47 0.0 0 1 132.12 174.78
  L 131.89 173.21
  A 0.35 0.34 -40.6 0 0 131.22 173.16
  Q 130.83 174.42 131.55 175.49
  A 1.44 1.44 0.0 0 0 134.02 175.32
  L 134.63 174.09
  A 0.50 0.49 65.6 0 1 135.55 174.44
  L 135.16 176.01
  A 0.50 0.50 0.0 0 0 135.65 176.63
  L 136.62 176.63
  A 0.42 0.42 0.0 0 0 137.03 176.11
  L 136.25 173.10
  A 0.38 0.38 0.0 0 0 135.71 172.86
  L 134.72 173.39
  Q 134.33 173.59 134.04 173.26"
/>
<path stroke="#8197a0" vector-effect="non-scaling-stroke" d="
  M 139.49 175.90
  L 138.67 175.30
  Q 138.40 175.10 138.21 175.38
  L 137.94 175.80
  A 0.34 0.34 0.0 0 0 138.19 176.32
  L 141.76 176.67
  A 0.49 0.48 70.7 0 0 142.15 175.85
  Q 141.07 174.73 141.25 173.18
  A 0.38 0.37 79.2 0 0 140.70 172.80
  L 140.24 173.05
  A 0.60 0.60 0.0 0 0 140.04 173.91
  Q 140.69 174.83 140.21 175.74
  A 0.49 0.48 -57.3 0 1 139.49 175.90"
/>
<path stroke="#839198" vector-effect="non-scaling-stroke" d="
  M 91.1142 129.0823
  A 0.45 0.45 0.0 0 0 90.6721 128.6245
  L 90.2122 128.6164
  A 0.45 0.45 0.0 0 0 89.7544 129.0585
  L 89.6658 134.1377
  A 0.45 0.45 0.0 0 0 90.1079 134.5955
  L 90.5678 134.6036
  A 0.45 0.45 0.0 0 0 91.0256 134.1615
  L 91.1142 129.0823"
/>
<path stroke="#839198" vector-effect="non-scaling-stroke" d="
  M 91.0471 149.8105
  A 0.34 0.34 0.0 0 0 90.7125 149.4652
  L 90.0926 149.4555
  A 0.34 0.34 0.0 0 0 89.7473 149.7901
  L 89.6729 154.5295
  A 0.34 0.34 0.0 0 0 90.0075 154.8748
  L 90.6274 154.8845
  A 0.34 0.34 0.0 0 0 90.9727 154.5499
  L 91.0471 149.8105"
/>
<path stroke="#8c98a5" vector-effect="non-scaling-stroke" d="
  M 134.52 142.36
  A 19.94 19.94 0.0 0 0 114.58 122.42
  A 19.94 19.94 0.0 0 0 94.64 142.36
  A 19.94 19.94 0.0 0 0 114.58 162.30
  A 19.94 19.94 0.0 0 0 134.52 142.36"
/>
<path stroke="#839198" vector-effect="non-scaling-stroke" d="
  M 133.64 142.35
  A 19.05 19.05 0.0 0 0 114.59 123.30
  A 19.05 19.05 0.0 0 0 95.54 142.35
  A 19.05 19.05 0.0 0 0 114.59 161.40
  A 19.05 19.05 0.0 0 0 133.64 142.35"
/>
<path stroke="#839198" vector-effect="non-scaling-stroke" d="
  M 132.58 139.61
  C 131.74 132.96 126.72 127.28 120.50 125.16
  C 108.48 121.05 96.92 129.49 96.53 141.99
  C 95.82 165.09 130.05 167.35 132.64 144.00
  Q 132.69 143.55 132.96 143.18
  Q 133.96 141.81 132.92 140.44
  A 1.75 1.75 0.0 0 1 132.58 139.61"
/>
<path stroke="#8c98a5" vector-effect="non-scaling-stroke" d="
  M 124.82 137.60
  A 0.78 0.78 0.0 0 1 123.42 136.99
  Q 124.06 134.21 121.39 133.85
  A 1.91 1.91 0.0 0 0 119.54 136.79
  Q 120.53 138.31 122.34 138.08
  A 0.68 0.68 0.0 0 1 123.10 138.64
  Q 123.31 139.89 122.23 140.44
  Q 121.66 140.74 121.10 140.41
  Q 118.97 139.16 117.72 141.23
  A 1.76 1.75 20.4 0 0 118.93 143.87
  Q 121.43 144.29 121.90 141.83
  A 1.14 1.14 0.0 0 1 124.16 142.05
  L 124.16 145.19
  A 1.00 0.99 -19.3 0 1 123.78 145.97
  Q 120.88 148.27 122.41 151.20
  C 124.14 154.52 129.66 152.35 128.65 148.68
  Q 128.54 148.27 126.83 146.08
  Q 125.40 144.24 126.28 141.60
  A 0.81 0.81 0.0 0 1 127.86 141.76
  Q 128.17 144.36 130.70 143.78
  A 1.84 1.84 0.0 0 0 131.89 141.08
  Q 130.63 138.83 128.48 140.26
  A 0.70 0.70 0.0 0 1 127.57 140.15
  Q 125.81 138.19 126.54 135.73
  A 1.26 1.26 0.0 0 1 127.26 134.93
  Q 128.47 134.40 128.96 133.19
  Q 129.19 132.61 128.84 132.08
  Q 128.29 131.25 127.31 130.83
  A 1.83 1.83 0.0 0 0 125.01 133.44
  Q 126.22 135.51 124.82 137.60"
/>
<path stroke="#839198" vector-effect="non-scaling-stroke" d="
  M 103.44 136.17
  L 102.21 135.54
  A 1.77 1.77 0.0 0 0 100.06 135.95
  Q 99.11 137.03 100.19 137.93
  A 1.44 1.44 0.0 0 1 99.35 140.48
  L 98.70 140.52
  A 1.60 1.60 0.0 0 0 98.40 143.67
  L 99.33 143.90
  Q 99.84 144.02 100.11 144.48
  Q 100.83 145.69 99.86 146.66
  A 1.45 1.44 -70.4 0 0 101.03 149.12
  Q 104.84 148.72 105.60 144.97
  Q 105.71 144.46 105.29 144.14
  Q 104.13 143.27 104.22 141.82
  A 2.02 2.02 0.0 0 1 105.24 140.19
  C 108.40 138.41 110.23 141.76 107.99 144.25
  Q 107.63 144.65 107.74 145.18
  Q 108.50 148.68 112.17 149.18
  A 1.44 1.44 0.0 0 0 113.37 146.73
  Q 112.38 145.77 113.08 144.59
  A 1.15 1.14 7.6 0 1 113.79 144.05
  L 114.98 143.74
  A 1.60 1.60 0.0 0 0 114.53 140.60
  Q 112.90 140.64 112.80 138.96
  Q 112.77 138.53 113.08 138.23
  C 115.00 136.38 112.44 134.12 110.57 136.00
  A 0.80 0.80 0.0 0 1 109.77 136.20
  Q 108.15 135.73 108.28 133.96
  A 1.54 1.54 0.0 0 0 105.21 133.69
  Q 105.08 134.93 104.45 135.90
  Q 104.07 136.49 103.44 136.17"
/>
<path stroke="#8c98a5" vector-effect="non-scaling-stroke" d="
  M 126.61 132.09
  A 0.45 0.44 -86.8 0 0 126.10 132.55
  L 126.14 133.30
  A 0.43 0.43 0.0 0 0 126.85 133.60
  L 127.57 132.96
  Q 128.25 132.37 127.36 132.22
  L 126.61 132.09"
/>
<path stroke="#8c98a5" vector-effect="non-scaling-stroke" d="
  M 122.10 136.00
  Q 122.11 135.43 121.69 135.04
  A 0.53 0.53 0.0 0 0 120.81 135.54
  L 121.07 136.76
  A 0.43 0.43 0.0 0 0 121.83 136.92
  Q 122.08 136.57 122.10 136.00"
/>
<path stroke="#8c98a5" vector-effect="non-scaling-stroke" d="
  M 124.27 139.39
  A 0.53 0.53 0.0 0 0 124.61 140.30
  L 125.37 140.35
  A 0.60 0.59 -21.5 0 0 125.82 139.33
  Q 125.06 138.61 124.27 139.39"
/>
<path stroke="#8c98a5" vector-effect="non-scaling-stroke" d="
  M 119.5833 142.8274
  A 0.87 0.64 94.4 0 0 120.2881 142.0091
  A 0.87 0.64 94.4 0 0 119.7167 141.0926
  A 0.87 0.64 94.4 0 0 119.0119 141.9109
  A 0.87 0.64 94.4 0 0 119.5833 142.8274"
/>
<path stroke="#8c98a5" vector-effect="non-scaling-stroke" d="
  M 128.92 141.44
  A 0.60 0.59 22.3 0 0 129.37 142.51
  L 130.39 142.34
  Q 131.30 142.19 130.77 141.43
  Q 130.15 140.57 128.92 141.44"
/>
<path stroke="#928c88" vector-effect="non-scaling-stroke" d="
  M 126.66 149.37
  A 1.43 1.43 0.0 0 0 125.23 147.94
  A 1.43 1.43 0.0 0 0 123.80 149.37
  A 1.43 1.43 0.0 0 0 125.23 150.80
  A 1.43 1.43 0.0 0 0 126.66 149.37"
/>
<path stroke="#4b5d6e" vector-effect="non-scaling-stroke" d="
  M 69.15 180.29
  Q 72.65 181.07 75.21 180.55"
/>
<path stroke="#839198" vector-effect="non-scaling-stroke" d="
  M 75.21 180.55
  Q 75.74 180.46 76.13 180.18
  Q 76.54 179.90 76.53 179.39
  Q 76.48 174.71 76.73 169.98
  Q 76.87 167.29 74.00 165.94
  Q 73.65 165.78 73.40 166.06
  L 72.90 166.63
  Q 72.37 167.23 71.98 166.53
  Q 71.37 165.47 72.00 164.44
  A 0.63 0.63 0.0 0 0 71.57 163.49
  L 69.64 163.16
  Q 69.01 163.05 69.01 163.69
  L 69.15 180.29"
/>
<path stroke="#b4bcba" vector-effect="non-scaling-stroke" d="
  M 75.21 180.55
  Q 74.55 180.66 74.53 179.83"
/>
<path stroke="#98978e" vector-effect="non-scaling-stroke" d="
  M 74.53 179.83
  Q 76.04 177.89 74.88 177.54"
/>
<path stroke="#98978e" vector-effect="non-scaling-stroke" d="
  M 74.88 177.54
  L 75.09 171.36
  Q 75.11 170.84 75.31 170.37
  Q 75.83 169.20 75.37 168.07
  Q 75.15 167.53 74.58 167.53
  Q 72.88 167.52 71.26 167.56
  Q 70.21 167.60 70.02 168.50
  A 0.37 0.37 0.0 0 0 70.41 168.95
  L 73.63 168.72
  Q 74.79 168.64 74.20 169.65
  L 73.44 170.95
  Q 73.22 171.33 72.78 171.27
  L 72.04 171.16
  A 1.64 1.63 -86.0 0 0 70.18 172.78
  Q 70.19 177.09 72.99 175.48
  Q 73.48 175.20 73.58 175.76
  Q 73.85 177.20 74.88 177.54"
/>
<path stroke="#98978e" vector-effect="non-scaling-stroke" d="
  M 74.88 177.54
  Q 74.14 177.85 73.86 178.30"
/>
<path stroke="#b4bcba" vector-effect="non-scaling-stroke" d="
  M 73.86 178.30
  Q 73.16 178.40 72.69 178.02
  A 1.36 1.36 0.0 0 0 70.46 179.12
  Q 70.52 180.45 69.15 180.29"
/>
<path stroke="#606364" vector-effect="non-scaling-stroke" d="
  M 73.86 178.30
  Q 73.69 180.05 74.53 179.83"
/>
<path stroke="#839198" vector-effect="non-scaling-stroke" d="
  M 73.52 165.22
  A 0.35 0.35 0.0 0 0 74.11 164.96
  L 74.09 164.00
  A 0.70 0.55 -50.6 0 0 72.86 164.27
  Q 72.84 164.55 73.52 165.22"
/>
<path stroke="#839198" vector-effect="non-scaling-stroke" d="
  M 85.86 166.21
  A 0.71 0.71 0.0 0 1 84.66 165.65
  L 84.74 164.55
  A 0.23 0.23 0.0 0 0 84.29 164.49
  Q 83.98 166.11 85.11 167.12
  A 0.79 0.79 0.0 0 0 86.40 166.74
  L 87.08 164.28
  A 0.38 0.35 -31.8 0 0 86.36 164.15
  Q 86.20 164.67 86.39 165.25
  A 0.58 0.57 -31.0 0 1 86.24 165.84
  L 85.86 166.21"
/>
<path stroke="#8c98a5" vector-effect="non-scaling-stroke" d="
  M 89.56 166.80
  L 88.94 164.03
  Q 88.85 163.64 88.47 163.80
  L 88.09 163.96
  Q 87.64 164.15 87.99 164.48
  Q 88.85 165.32 88.34 166.31
  A 0.68 0.68 0.0 0 0 88.44 167.08
  Q 88.66 167.31 88.93 167.39
  Q 89.75 167.63 89.56 166.80"
/>
<path stroke="#8c98a5" vector-effect="non-scaling-stroke" d="
  M 94.58 170.31
  L 94.58 168.91
  A 0.30 0.30 0.0 0 0 94.28 168.61
  L 94.12 168.61
  A 4.40 0.84 -0.1 0 0 89.72 169.45
  L 89.72 169.77
  A 4.40 0.84 -0.1 0 0 94.12 170.61
  L 94.28 170.61
  A 0.30 0.30 0.0 0 0 94.58 170.31"
/>
<path stroke="#8c98a5" vector-effect="non-scaling-stroke" d="
  M 83.81 169.50
  A 0.60 0.60 0.0 0 0 83.21 168.90
  L 78.65 168.90
  A 0.60 0.60 0.0 0 0 78.05 169.50
  L 78.05 169.86
  A 0.60 0.60 0.0 0 0 78.65 170.46
  L 83.21 170.46
  A 0.60 0.60 0.0 0 0 83.81 169.86
  L 83.81 169.50"
/>
<path stroke="#8c98a5" vector-effect="non-scaling-stroke" d="
  M 83.6624 173.3130
  A 0.56 0.56 0.0 0 0 83.1073 172.7482
  L 78.9475 172.7119
  A 0.56 0.56 0.0 0 0 78.3826 173.2670
  L 78.3776 173.8470
  A 0.56 0.56 0.0 0 0 78.9327 174.4118
  L 83.0925 174.4481
  A 0.56 0.56 0.0 0 0 83.6574 173.8930
  L 83.6624 173.3130"
/>
<path stroke="#839198" vector-effect="non-scaling-stroke" d="
  M 94.53 174.30
  L 94.51 172.74
  A 0.26 0.26 0.0 0 0 94.25 172.48
  L 94.07 172.49
  A 4.46 0.97 -0.7 0 0 89.62 173.51
  L 89.62 173.65
  A 4.46 0.97 -0.7 0 0 94.09 174.57
  L 94.27 174.56
  A 0.26 0.26 0.0 0 0 94.53 174.30"
/>
<path stroke="#2f3842" vector-effect="non-scaling-stroke" d="
  M 78.35 178.15
  L 78.22 179.33
  Q 78.16 179.85 78.68 179.85
  L 88.69 179.85
  Q 89.15 179.85 89.56 180.07
  Q 91.99 181.40 94.69 180.65
  Q 95.35 180.46 94.80 180.06
  Q 93.54 179.11 94.29 178.41"
/>
<path stroke="#8c98a5" vector-effect="non-scaling-stroke" d="
  M 94.29 178.41
  Q 95.53 175.49 89.50 177.18"
/>
<path stroke="#2f3842" vector-effect="non-scaling-stroke" d="
  M 89.50 177.18
  Q 86.12 180.95 84.17 177.65"
/>
<path stroke="#839198" vector-effect="non-scaling-stroke" d="
  M 84.17 177.65
  Q 81.93 176.22 78.60 176.58
  Q 78.14 176.63 78.01 177.07
  Q 77.80 177.84 78.35 178.15"
/>
<path stroke="#98978e" vector-effect="non-scaling-stroke" d="
  M 84.17 177.65
  Q 81.19 178.53 78.35 178.15"
/>
<path stroke="#a19e9b" vector-effect="non-scaling-stroke" d="
  M 94.29 178.41
  Q 90.34 178.86 89.50 177.18"
/>
<path stroke="#839198" vector-effect="non-scaling-stroke" d="
  M 100.05 178.33
  Q 99.46 177.73 99.83 177.08
  Q 100.15 176.51 99.51 176.41
  L 97.77 176.12
  Q 97.35 176.05 97.32 176.48
  L 97.13 179.17
  A 0.57 0.57 0.0 0 0 97.67 179.78
  L 101.28 179.97
  A 1.00 1.00 0.0 0 0 102.34 178.97
  L 102.40 168.57
  Q 102.41 167.75 101.59 167.79
  L 97.54 167.98
  A 0.44 0.43 -44.5 0 0 97.53 168.85
  L 100.41 169.02
  A 0.96 0.96 0.0 0 1 101.29 170.20
  Q 100.36 173.99 100.99 177.86
  A 0.55 0.55 0.0 0 1 100.05 178.33"
/>
<path stroke="#b4bcba" vector-effect="non-scaling-stroke" d="
  M 98.75 170.41
  Q 95.65 171.28 97.35 174.67
  A 0.34 0.34 0.0 0 0 97.99 174.52
  L 97.99 171.56
  Q 97.99 170.86 98.69 170.79
  L 99.41 170.73
  Q 99.71 170.70 99.60 170.42
  Q 99.51 170.19 99.32 170.14
  Q 99.25 170.12 99.18 170.15
  Q 99.05 170.20 98.95 170.30
  Q 98.86 170.38 98.75 170.41"
/>
<path stroke="#839198" vector-effect="non-scaling-stroke" d="
  M 98.04 177.38
  Q 97.78 177.90 97.92 178.42
  A 0.53 0.53 0.0 0 0 98.85 178.61
  Q 99.19 178.17 99.15 177.60
  Q 99.13 177.37 98.99 177.19
  Q 98.63 176.74 98.16 177.22
  A 0.76 0.66 85.9 0 0 98.04 177.38"
/>
<path stroke="#839198" vector-effect="non-scaling-stroke" d="
  M 114.02 175.17
  L 113.98 173.05
  A 0.76 0.76 0.0 0 0 113.20 172.30
  L 112.10 172.33
  A 2.12 1.75 -1.2 0 0 110.02 174.12
  L 110.02 174.26
  A 2.12 1.75 -1.2 0 0 112.18 175.97
  L 113.28 175.94
  A 0.76 0.76 0.0 0 0 114.02 175.17"
/>
<path stroke="#839198" vector-effect="non-scaling-stroke" d="
  M 117.30 175.44
  L 116.46 175.27
  Q 115.98 175.18 115.97 174.69
  L 115.92 172.66
  A 0.35 0.35 0.0 0 0 115.25 172.54
  Q 114.16 175.40 116.59 176.12
  A 1.75 1.75 0.0 0 0 118.83 174.57
  L 118.96 172.88
  A 0.36 0.36 0.0 0 0 118.57 172.50
  Q 118.33 172.52 118.10 172.53
  Q 117.73 172.55 117.76 172.92
  L 117.91 174.90
  A 0.51 0.51 0.0 0 1 117.30 175.44"
/>
<path stroke="#89857b" vector-effect="non-scaling-stroke" d="
  M 111.52 175.10
  L 112.65 175.26
  A 0.58 0.58 0.0 0 0 113.27 174.49
  L 112.83 173.28
  Q 112.50 172.37 111.84 173.07
  L 111.09 173.85
  A 0.75 0.74 -64.3 0 0 111.52 175.10"
/>
</g>
<path fill="#fefefe" d="
  M 0.00 0.00
  L 380.00 0.00
  L 380.00 285.00
  L 0.00 285.00
  L 0.00 0.00
  Z
  M 259.77 82.80
  Q 261.15 97.28 259.67 111.75
  Q 258.07 127.29 255.67 142.72
  Q 254.25 151.79 253.80 159.87
  Q 252.77 178.40 251.54 197.80
  L 235.73 153.28
  Q 222.74 114.80 209.38 76.47
  C 207.90 72.20 205.76 64.08 202.93 58.15
  L 202.28 57.35
  Q 198.54 51.66 194.02 55.42
  Q 189.78 55.30 188.67 60.45
  Q 188.22 63.44 186.89 64.36
  Q 186.28 64.78 186.21 64.04
  L 185.75 59.24
  Q 182.32 59.03 181.73 62.36
  Q 181.56 63.37 181.82 65.15
  C 182.18 67.54 182.41 69.75 183.11 72.02
  Q 185.94 81.18 190.15 89.81
  C 190.67 90.88 190.20 91.99 190.66 93.20
  Q 193.26 100.03 193.87 102.38
  Q 195.46 108.48 197.13 112.98
  Q 200.15 121.06 200.17 121.11
  Q 205.22 136.04 213.19 156.52
  Q 220.94 176.44 232.94 211.28
  Q 236.40 221.32 242.92 227.87
  Q 245.86 228.66 247.00 228.37
  Q 250.18 227.56 252.29 227.60
  L 255.98 227.43
  Q 264.61 227.84 267.06 219.81
  Q 270.96 206.98 272.04 194.73
  Q 274.83 162.82 279.42 131.12
  Q 280.91 120.89 283.30 111.53
  Q 288.00 93.18 293.88 74.83
  Q 295.33 73.10 299.99 72.86
  Q 301.16 72.80 300.22 72.10
  Q 300.09 72.01 299.98 71.90
  Q 299.63 71.57 299.73 71.10
  Q 301.91 60.94 303.74 50.70
  C 304.36 47.23 302.43 45.61 299.03 45.44
  C 296.43 45.32 293.51 44.57 291.31 44.31
  Q 284.48 43.51 277.60 42.69
  C 270.04 41.80 275.07 49.05 270.50 49.39
  Q 264.58 49.84 258.50 50.21
  A 1.17 1.13 14.6 0 0 257.63 50.70
  C 256.18 52.80 256.28 54.57 256.83 57.38
  Q 257.13 58.88 257.02 60.72
  Q 256.63 67.73 254.53 74.98
  A 1.40 1.40 0.0 0 0 256.35 76.68
  L 258.00 76.07
  Q 258.66 75.83 258.77 76.52
  L 259.77 82.80
  Z
  M 68.00 132.27
  L 70.22 138.61
  A 0.85 0.85 0.0 0 0 71.87 138.33
  L 71.87 137.62
  Q 71.87 137.58 71.93 137.65
  Q 71.95 137.67 71.96 137.69
  Q 72.00 137.74 72.00 137.83
  L 71.90 150.79
  L 68.37 151.97
  Q 67.82 152.16 67.82 152.73
  L 67.49 180.76
  C 66.07 185.83 69.44 188.16 73.81 188.60
  Q 75.47 188.77 77.31 189.44
  Q 79.55 190.25 81.91 190.60
  Q 84.05 190.92 86.51 191.57
  C 90.16 192.54 93.71 191.45 97.05 192.54
  Q 99.09 193.21 101.02 194.18
  Q 103.02 195.19 104.76 195.33
  Q 106.73 195.49 108.73 195.52
  C 110.92 195.56 112.34 194.33 114.81 194.66
  A 1.40 1.39 31.5 0 0 115.78 194.43
  Q 117.95 192.90 120.48 192.72
  Q 124.37 192.42 124.47 192.41
  Q 130.28 191.34 135.95 189.90
  Q 136.40 189.78 136.73 189.44
  Q 139.50 186.60 142.55 186.79
  C 148.08 187.14 147.55 184.78 149.34 180.83
  Q 149.55 180.37 149.41 179.89
  Q 149.04 178.54 149.73 177.71
  A 0.71 0.69 -26.5 0 0 149.90 177.23
  Q 149.86 170.67 149.66 164.10
  Q 149.60 162.23 149.00 160.48
  Q 148.41 158.75 147.77 156.98
  L 147.68 153.28
  Q 147.67 152.73 147.15 152.55
  L 143.86 151.36
  Q 142.84 148.22 143.92 145.27
  Q 144.97 142.40 146.80 140.01
  Q 148.74 137.46 149.23 135.83
  Q 150.89 130.30 149.66 124.50
  C 148.33 118.21 149.02 113.59 148.11 108.03
  C 148.38 105.39 148.59 101.81 145.50 101.78
  Q 131.34 101.61 117.47 101.59
  A 1.73 1.72 80.5 0 1 115.84 100.42
  C 113.81 94.39 108.24 91.38 102.83 96.03
  C 101.45 97.21 100.76 98.90 100.01 100.56
  A 1.12 1.11 5.9 0 1 99.23 101.19
  Q 98.05 101.46 96.25 101.46
  Q 83.35 101.47 70.34 101.26
  A 2.13 2.12 0.5 0 0 68.18 103.37
  L 68.00 132.27
  Z"
/>
<path fill="#ecf0e4" d="
  M 293.88 74.83
  Q 293.79 73.96 294.72 72.34
  A 0.52 0.52 0.0 0 0 294.36 71.57
  L 290.73 70.91
  Q 290.22 70.82 290.11 71.33
  L 289.01 76.65
  Q 287.10 74.77 288.69 71.24
  A 0.59 0.59 0.0 0 0 288.23 70.41
  L 284.55 69.91
  Q 284.08 69.84 284.00 70.30
  Q 283.21 74.58 282.60 78.87
  Q 282.12 82.29 280.84 84.87
  Q 279.77 87.05 277.96 90.50
  Q 274.73 96.65 273.51 105.40
  C 272.91 109.69 272.24 112.99 271.48 116.76
  Q 270.91 119.61 270.42 125.34
  C 270.03 129.97 268.66 134.81 268.20 138.91
  Q 265.71 161.30 263.55 183.74
  Q 262.31 196.67 260.19 209.49
  Q 259.74 212.22 258.77 215.15
  Q 256.52 212.70 256.26 209.52
  Q 258.25 201.40 258.93 192.76
  Q 260.01 178.96 260.14 177.80
  Q 264.13 144.02 268.23 110.26
  Q 268.48 108.18 269.46 102.72
  C 270.02 100.49 270.37 98.06 271.16 95.98
  Q 273.75 89.05 276.45 82.21
  Q 277.62 79.27 277.33 73.68
  Q 274.75 74.07 275.87 69.88
  A 1.76 1.75 -4.1 0 0 273.48 67.82
  Q 271.88 68.51 272.10 70.21
  Q 272.16 70.69 271.95 71.13
  Q 269.98 75.19 269.17 79.59
  Q 268.94 80.79 268.30 81.97
  Q 267.47 83.46 267.40 84.40
  Q 267.11 88.29 265.81 91.94
  Q 265.62 92.48 265.37 91.97
  Q 264.64 90.54 264.65 89.74
  Q 264.73 82.37 264.35 74.97
  Q 264.31 74.23 263.58 74.17
  L 259.74 73.80
  A 0.64 0.64 0.0 0 0 259.04 74.50
  L 259.77 82.80
  L 258.77 76.52
  Q 258.66 75.83 258.00 76.07
  L 256.35 76.68
  A 1.40 1.40 0.0 0 1 254.53 74.98
  Q 256.63 67.73 257.02 60.72
  Q 257.13 58.88 256.83 57.38
  C 256.28 54.57 256.18 52.80 257.63 50.70
  A 1.17 1.13 14.6 0 1 258.50 50.21
  Q 264.58 49.84 270.50 49.39
  C 275.07 49.05 270.04 41.80 277.60 42.69
  Q 284.48 43.51 291.31 44.31
  C 293.51 44.57 296.43 45.32 299.03 45.44
  C 302.43 45.61 304.36 47.23 303.74 50.70
  Q 301.91 60.94 299.73 71.10
  Q 299.63 71.57 299.98 71.90
  Q 300.09 72.01 300.22 72.10
  Q 301.16 72.80 299.99 72.86
  Q 295.33 73.10 293.88 74.83
  Z"
/>
<path fill="#433e38" d="
  M 202.28 57.35
  Q 199.74 56.02 198.53 58.02
  Q 198.27 58.46 198.35 58.96
  Q 198.75 61.60 199.12 62.69
  C 204.83 79.79 211.18 96.45 216.92 113.75
  Q 222.29 129.93 228.47 145.82
  Q 228.68 146.35 229.35 147.58
  C 230.08 148.91 230.52 151.17 230.84 152.03
  Q 233.83 160.13 236.84 168.22
  C 237.64 170.35 239.06 172.56 239.77 175.16
  Q 241.03 179.77 241.31 180.51
  Q 247.90 197.90 253.39 215.54
  A 0.21 0.21 0.0 0 1 253.01 215.71
  Q 247.63 207.10 245.14 197.37
  Q 243.03 189.14 242.22 186.81
  Q 235.88 168.47 226.47 144.46
  Q 223.22 136.15 220.48 130.34
  Q 220.08 129.51 217.61 123.77
  C 214.60 116.80 211.80 111.31 209.43 102.70
  C 209.01 101.19 207.59 99.40 207.41 98.12
  Q 205.15 82.68 198.73 70.48
  Q 197.85 68.81 195.40 67.57
  Q 194.75 67.24 194.88 67.96
  L 195.41 71.06
  Q 190.70 61.94 194.02 55.42
  Q 198.54 51.66 202.28 57.35
  Z"
/>
<path fill="#ae4e3e" d="
  M 194.02 55.42
  Q 190.70 61.94 195.41 71.06
  C 200.60 84.37 204.49 95.01 210.03 111.29
  C 212.64 118.97 215.98 126.34 218.61 134.03
  Q 219.55 136.78 220.27 138.51
  Q 236.84 178.22 249.32 219.38
  Q 250.26 222.48 254.03 227.10
  Q 254.32 227.45 254.77 227.45
  L 255.98 227.43
  L 252.29 227.60
  Q 246.17 224.45 243.09 214.48
  Q 234.16 185.55 219.05 147.72
  C 208.62 121.60 200.32 94.74 189.86 68.63
  Q 188.81 66.00 188.67 60.45
  Q 189.78 55.30 194.02 55.42
  Z"
/>
<path fill="#251a11" d="
  M 202.28 57.35
  L 202.93 58.15
  Q 202.69 59.23 202.86 60.23
  Q 204.49 69.84 207.96 78.89
  C 211.56 88.27 214.85 97.69 218.01 107.23
  C 218.55 108.85 219.70 110.29 220.11 112.27
  Q 220.71 115.24 221.06 116.15
  Q 222.33 119.44 223.33 122.83
  C 223.65 123.93 224.60 124.71 224.38 126.27
  Q 224.31 126.78 224.54 127.23
  Q 225.40 128.86 226.04 130.57
  Q 226.24 131.12 227.28 133.01
  Q 227.88 134.11 227.90 135.39
  Q 227.90 135.89 228.12 136.34
  Q 229.33 138.87 229.99 141.57
  Q 230.70 144.50 231.70 146.40
  Q 233.12 149.11 234.35 151.88
  Q 234.60 152.44 235.73 153.28
  L 251.54 197.80
  L 256.26 209.52
  Q 256.52 212.70 258.77 215.15
  Q 258.69 216.13 259.89 217.09
  A 1.20 1.20 0.0 0 0 261.65 216.79
  C 263.73 213.51 264.45 211.32 264.84 207.18
  Q 265.76 197.46 267.31 187.82
  Q 268.40 181.05 268.84 174.08
  Q 269.79 158.90 272.41 143.87
  Q 272.43 143.78 273.19 141.49
  Q 273.68 140.04 272.99 138.50
  Q 272.78 138.04 272.90 137.55
  Q 273.98 132.98 274.36 128.32
  C 274.62 125.19 275.95 122.48 276.25 119.26
  Q 276.87 112.67 279.27 106.46
  Q 280.39 103.56 281.38 97.25
  Q 283.00 86.90 289.01 76.65
  L 290.11 71.33
  Q 290.22 70.82 290.73 70.91
  L 294.36 71.57
  A 0.52 0.52 0.0 0 1 294.72 72.34
  Q 293.79 73.96 293.88 74.83
  Q 288.00 93.18 283.30 111.53
  Q 280.91 120.89 279.42 131.12
  Q 274.83 162.82 272.04 194.73
  Q 270.96 206.98 267.06 219.81
  Q 264.61 227.84 255.98 227.43
  L 254.77 227.45
  Q 254.32 227.45 254.03 227.10
  Q 250.26 222.48 249.32 219.38
  Q 236.84 178.22 220.27 138.51
  Q 219.55 136.78 218.61 134.03
  C 215.98 126.34 212.64 118.97 210.03 111.29
  C 204.49 95.01 200.60 84.37 195.41 71.06
  L 194.88 67.96
  Q 194.75 67.24 195.40 67.57
  Q 197.85 68.81 198.73 70.48
  Q 205.15 82.68 207.41 98.12
  C 207.59 99.40 209.01 101.19 209.43 102.70
  C 211.80 111.31 214.60 116.80 217.61 123.77
  Q 220.08 129.51 220.48 130.34
  Q 223.22 136.15 226.47 144.46
  Q 235.88 168.47 242.22 186.81
  Q 243.03 189.14 245.14 197.37
  Q 247.63 207.10 253.01 215.71
  A 0.21 0.21 0.0 0 0 253.39 215.54
  Q 247.90 197.90 241.31 180.51
  Q 241.03 179.77 239.77 175.16
  C 239.06 172.56 237.64 170.35 236.84 168.22
  Q 233.83 160.13 230.84 152.03
  C 230.52 151.17 230.08 148.91 229.35 147.58
  Q 228.68 146.35 228.47 145.82
  Q 222.29 129.93 216.92 113.75
  C 211.18 96.45 204.83 79.79 199.12 62.69
  Q 198.75 61.60 198.35 58.96
  Q 198.27 58.46 198.53 58.02
  Q 199.74 56.02 202.28 57.35
  Z"
/>
<path fill="#433e38" d="
  M 202.93 58.15
  C 205.76 64.08 207.90 72.20 209.38 76.47
  Q 222.74 114.80 235.73 153.28
  Q 234.60 152.44 234.35 151.88
  Q 233.12 149.11 231.70 146.40
  Q 230.70 144.50 229.99 141.57
  Q 229.33 138.87 228.12 136.34
  Q 227.90 135.89 227.90 135.39
  Q 227.88 134.11 227.28 133.01
  Q 226.24 131.12 226.04 130.57
  Q 225.40 128.86 224.54 127.23
  Q 224.31 126.78 224.38 126.27
  C 224.60 124.71 223.65 123.93 223.33 122.83
  Q 222.33 119.44 221.06 116.15
  Q 220.71 115.24 220.11 112.27
  C 219.70 110.29 218.55 108.85 218.01 107.23
  C 214.85 97.69 211.56 88.27 207.96 78.89
  Q 204.49 69.84 202.86 60.23
  Q 202.69 59.23 202.93 58.15
  Z"
/>
<path fill="#d0d335" d="
  M 185.75 59.24
  Q 184.82 64.14 186.46 69.00
  C 190.04 79.55 194.00 89.77 197.18 99.46
  Q 206.40 127.57 217.46 155.02
  Q 227.43 179.78 231.49 192.49
  Q 236.62 208.58 240.77 218.24
  Q 242.22 221.60 245.99 226.75
  Q 246.34 227.22 245.84 227.53
  Q 245.04 228.02 242.92 227.87
  Q 236.40 221.32 232.94 211.28
  Q 220.94 176.44 213.19 156.52
  Q 205.22 136.04 200.17 121.11
  Q 200.15 121.06 197.13 112.98
  Q 195.46 108.48 193.87 102.38
  Q 193.26 100.03 190.66 93.20
  C 190.20 91.99 190.67 90.88 190.15 89.81
  Q 185.94 81.18 183.11 72.02
  C 182.41 69.75 182.18 67.54 181.82 65.15
  Q 181.56 63.37 181.73 62.36
  Q 182.32 59.03 185.75 59.24
  Z"
/>
<path fill="#ecf0e4" d="
  M 185.75 59.24
  L 186.21 64.04
  Q 186.28 64.78 186.89 64.36
  Q 188.22 63.44 188.67 60.45
  Q 188.81 66.00 189.86 68.63
  C 200.32 94.74 208.62 121.60 219.05 147.72
  Q 234.16 185.55 243.09 214.48
  Q 246.17 224.45 252.29 227.60
  Q 250.18 227.56 247.00 228.37
  Q 245.86 228.66 242.92 227.87
  Q 245.04 228.02 245.84 227.53
  Q 246.34 227.22 245.99 226.75
  Q 242.22 221.60 240.77 218.24
  Q 236.62 208.58 231.49 192.49
  Q 227.43 179.78 217.46 155.02
  Q 206.40 127.57 197.18 99.46
  C 194.00 89.77 190.04 79.55 186.46 69.00
  Q 184.82 64.14 185.75 59.24
  Z"
/>
<path fill="#d0d335" d="
  M 277.33 73.68
  Q 275.87 73.46 275.10 73.80
  Q 274.47 74.07 274.23 75.50
  Q 273.16 81.71 270.33 90.26
  Q 268.56 95.57 268.51 102.81
  A 0.24 0.24 0.0 0 0 268.97 102.90
  L 269.24 102.25
  A 0.15 0.15 0.0 0 1 269.53 102.29
  Q 269.55 102.46 269.46 102.72
  Q 268.48 108.18 268.23 110.26
  Q 264.13 144.02 260.14 177.80
  Q 260.01 178.96 258.93 192.76
  Q 258.25 201.40 256.26 209.52
  L 251.54 197.80
  Q 252.77 178.40 253.80 159.87
  Q 254.25 151.79 255.67 142.72
  Q 258.07 127.29 259.67 111.75
  Q 261.15 97.28 259.77 82.80
  L 259.04 74.50
  A 0.64 0.64 0.0 0 1 259.74 73.80
  L 263.58 74.17
  Q 264.31 74.23 264.35 74.97
  Q 264.73 82.37 264.65 89.74
  Q 264.64 90.54 265.37 91.97
  Q 265.62 92.48 265.81 91.94
  Q 267.11 88.29 267.40 84.40
  Q 267.47 83.46 268.30 81.97
  Q 268.94 80.79 269.17 79.59
  Q 269.98 75.19 271.95 71.13
  Q 272.16 70.69 272.10 70.21
  Q 271.88 68.51 273.48 67.82
  A 1.76 1.75 -4.1 0 1 275.87 69.88
  Q 274.75 74.07 277.33 73.68
  Z"
/>
<path fill="#9f3a34" d="
  M 289.01 76.65
  Q 283.00 86.90 281.38 97.25
  Q 280.39 103.56 279.27 106.46
  Q 276.87 112.67 276.25 119.26
  C 275.95 122.48 274.62 125.19 274.36 128.32
  Q 273.98 132.98 272.90 137.55
  Q 272.78 138.04 272.99 138.50
  Q 273.68 140.04 273.19 141.49
  Q 272.43 143.78 272.41 143.87
  Q 269.79 158.90 268.84 174.08
  Q 268.40 181.05 267.31 187.82
  Q 265.76 197.46 264.84 207.18
  C 264.45 211.32 263.73 213.51 261.65 216.79
  A 1.20 1.20 0.0 0 1 259.89 217.09
  Q 258.69 216.13 258.77 215.15
  Q 259.74 212.22 260.19 209.49
  Q 262.31 196.67 263.55 183.74
  Q 265.71 161.30 268.20 138.91
  C 268.66 134.81 270.03 129.97 270.42 125.34
  Q 270.91 119.61 271.48 116.76
  C 272.24 112.99 272.91 109.69 273.51 105.40
  Q 274.73 96.65 277.96 90.50
  Q 279.77 87.05 280.84 84.87
  Q 282.12 82.29 282.60 78.87
  Q 283.21 74.58 284.00 70.30
  Q 284.08 69.84 284.55 69.91
  L 288.23 70.41
  A 0.59 0.59 0.0 0 1 288.69 71.24
  Q 287.10 74.77 289.01 76.65
  Z"
/>
<path fill="#ae4e3e" d="
  M 277.33 73.68
  Q 277.62 79.27 276.45 82.21
  Q 273.75 89.05 271.16 95.98
  C 270.37 98.06 270.02 100.49 269.46 102.72
  Q 269.55 102.46 269.53 102.29
  A 0.15 0.15 0.0 0 0 269.24 102.25
  L 268.97 102.90
  A 0.24 0.24 0.0 0 1 268.51 102.81
  Q 268.56 95.57 270.33 90.26
  Q 273.16 81.71 274.23 75.50
  Q 274.47 74.07 275.10 73.80
  Q 275.87 73.46 277.33 73.68
  Z"
/>
<path fill="#195374" d="
  M 148.11 108.03
  L 147.77 131.99
  Q 147.76 132.53 147.26 132.71
  L 143.89 133.97
  Q 143.49 127.83 142.36 122.29
  Q 141.53 118.20 139.49 116.04
  Q 135.92 112.27 130.47 112.42
  Q 124.08 112.60 119.20 111.38
  Q 116.09 110.61 113.73 110.59
  Q 110.51 110.57 107.29 110.34
  C 103.97 110.10 100.81 108.39 97.11 108.20
  Q 96.60 108.18 96.31 107.75
  L 95.86 107.10
  L 95.77 106.33
  Q 95.72 105.88 95.29 105.78
  Q 92.91 105.19 91.09 106.22
  Q 90.93 106.09 90.97 105.61
  Q 91.73 105.04 91.06 104.16
  Q 90.18 103.73 89.50 103.78
  Q 85.00 104.09 80.44 104.26
  L 77.54 104.28
  A 0.72 0.71 -5.1 0 0 76.84 105.11
  L 77.91 111.32
  A 0.19 0.19 0.0 0 1 77.63 111.52
  L 77.32 111.37
  Q 76.87 111.14 76.84 111.64
  L 76.64 115.04
  Q 76.25 115.69 76.61 116.32
  A 1.18 1.16 81.0 0 0 77.38 116.89
  Q 80.27 117.50 83.07 116.61
  Q 83.52 116.47 83.95 116.66
  Q 86.35 117.72 88.93 117.26
  Q 87.36 118.86 88.38 120.71
  L 72.25 120.52
  Q 71.77 120.51 71.79 120.99
  L 72.21 132.99
  Q 72.23 133.65 71.65 133.34
  Q 69.93 132.43 68.00 132.27
  L 68.18 103.37
  A 2.13 2.12 0.5 0 1 70.34 101.26
  Q 83.35 101.47 96.25 101.46
  Q 98.05 101.46 99.23 101.19
  A 1.12 1.11 5.9 0 0 100.01 100.56
  C 100.76 98.90 101.45 97.21 102.83 96.03
  C 108.24 91.38 113.81 94.39 115.84 100.42
  A 1.73 1.72 80.5 0 0 117.47 101.59
  Q 131.34 101.61 145.50 101.78
  C 148.59 101.81 148.38 105.39 148.11 108.03
  Z
  M 113.00 101.52
  A 4.83 4.83 0.0 0 0 108.17 96.69
  A 4.83 4.83 0.0 0 0 103.34 101.52
  A 4.83 4.83 0.0 0 0 108.17 106.35
  A 4.83 4.83 0.0 0 0 113.00 101.52
  Z
  M 75.25 106.78
  Q 77.50 106.60 75.06 105.91
  Q 73.91 105.59 72.11 106.44
  A 0.31 0.31 0.0 0 0 72.27 107.03
  L 75.25 106.78
  Z
  M 73.27 108.96
  L 74.22 109.14
  Q 75.06 109.31 74.51 109.97
  L 74.24 110.30
  A 0.35 0.35 0.0 0 0 74.54 110.87
  Q 75.80 110.73 75.67 109.27
  A 1.13 1.12 3.9 0 0 74.79 108.27
  Q 72.67 107.82 71.36 109.42
  Q 70.86 110.02 71.57 110.34
  L 72.74 110.87
  Q 73.38 111.15 73.15 110.49
  L 72.80 109.51
  Q 72.55 108.82 73.27 108.96
  Z"
/>
<circle fill="#ecf0e4" cx="108.17" cy="101.52" r="4.83"/>
<path fill="#7c8890" d="
  M 91.06 104.16
  L 90.03 104.26
  Q 89.71 104.29 89.85 104.58
  L 90.05 104.99
  L 89.59 104.93
  Q 89.04 104.87 89.00 105.42
  Q 88.98 105.69 89.09 105.93
  Q 87.01 105.51 84.97 106.05
  A 0.54 0.54 0.0 0 0 84.61 106.78
  Q 85.13 108.02 84.31 108.92
  Q 83.97 109.30 84.28 109.71
  Q 84.53 110.02 85.07 110.06
  Q 84.53 112.92 88.16 112.41
  Q 88.00 113.57 85.96 113.40
  Q 85.28 113.34 85.27 114.02
  Q 85.27 115.52 88.50 116.10
  Q 88.05 116.47 89.27 116.66
  Q 89.26 117.02 90.31 117.09
  L 88.93 117.26
  Q 86.35 117.72 83.95 116.66
  Q 83.52 116.47 83.07 116.61
  Q 80.27 117.50 77.38 116.89
  A 1.18 1.16 81.0 0 1 76.61 116.32
  Q 76.25 115.69 76.64 115.04
  Q 78.95 114.54 79.56 115.45
  Q 79.93 116.00 80.35 115.49
  L 81.45 114.18
  A 0.52 0.52 0.0 0 0 81.16 113.34
  Q 80.41 113.16 79.63 113.22
  Q 79.12 113.27 78.89 113.14
  Q 78.52 112.92 78.44 112.47
  Q 78.34 111.88 78.94 111.92
  L 80.66 112.03
  Q 81.19 112.07 81.35 111.56
  Q 81.85 109.82 81.05 108.29
  Q 80.83 107.86 81.11 107.45
  L 81.64 106.69
  Q 82.10 106.01 81.28 106.01
  L 78.53 105.99
  A 0.68 0.67 -20.9 0 1 78.03 105.77
  L 77.82 105.54
  Q 77.37 105.04 78.05 104.98
  Q 80.00 104.82 81.95 104.68
  Q 81.99 104.68 82.00 104.64
  Q 82.00 104.62 82.00 104.59
  Q 82.00 104.50 81.90 104.51
  Q 80.91 104.61 80.44 104.26
  Q 85.00 104.09 89.50 103.78
  Q 90.18 103.73 91.06 104.16
  Z"
/>
<path fill="#ecf0e4" d="
  M 80.44 104.26
  Q 80.91 104.61 81.90 104.51
  Q 82.00 104.50 82.00 104.59
  Q 82.00 104.62 82.00 104.64
  Q 81.99 104.68 81.95 104.68
  Q 80.00 104.82 78.05 104.98
  Q 77.37 105.04 77.82 105.54
  L 78.03 105.77
  A 0.68 0.67 -20.9 0 0 78.53 105.99
  L 81.28 106.01
  Q 82.10 106.01 81.64 106.69
  L 81.11 107.45
  Q 80.83 107.86 81.05 108.29
  Q 81.85 109.82 81.35 111.56
  Q 81.19 112.07 80.66 112.03
  L 78.94 111.92
  Q 78.34 111.88 78.44 112.47
  Q 78.52 112.92 78.89 113.14
  Q 79.12 113.27 79.63 113.22
  Q 80.41 113.16 81.16 113.34
  A 0.52 0.52 0.0 0 1 81.45 114.18
  L 80.35 115.49
  Q 79.93 116.00 79.56 115.45
  Q 78.95 114.54 76.64 115.04
  L 76.84 111.64
  Q 76.87 111.14 77.32 111.37
  L 77.63 111.52
  A 0.19 0.19 0.0 0 0 77.91 111.32
  L 76.84 105.11
  A 0.72 0.71 -5.1 0 1 77.54 104.28
  L 80.44 104.26
  Z"
/>
<path fill="#ecf0e4" d="
  M 91.06 104.16
  Q 91.73 105.04 90.97 105.61
  Q 90.43 105.01 90.05 104.99
  L 89.85 104.58
  Q 89.71 104.29 90.03 104.26
  L 91.06 104.16
  Z"
/>
<path fill="#433e38" d="
  M 90.05 104.99
  Q 90.43 105.01 90.97 105.61
  Q 90.93 106.09 91.09 106.22
  Q 91.21 106.89 90.89 106.76
  Q 90.50 112.86 90.62 114.50
  Q 90.76 116.37 89.27 116.66
  Q 88.05 116.47 88.50 116.10
  Q 89.61 113.00 88.16 112.41
  Q 84.53 112.92 85.07 110.06
  Q 85.04 108.75 85.89 108.02
  Q 86.37 107.60 86.97 107.83
  L 88.22 108.32
  Q 88.70 108.50 88.91 108.03
  Q 89.38 106.93 89.09 105.93
  Q 88.98 105.69 89.00 105.42
  Q 89.04 104.87 89.59 104.93
  L 90.05 104.99
  Z"
/>
<path fill="#fefefe" d="
  M 95.86 107.10
  Q 95.18 107.57 93.96 106.40
  Q 93.53 105.99 93.07 106.37
  Q 92.18 107.11 91.26 107.27
  L 90.89 106.76
  Q 91.21 106.89 91.09 106.22
  Q 92.91 105.19 95.29 105.78
  Q 95.72 105.88 95.77 106.33
  L 95.86 107.10
  Z"
/>
<path fill="#fefefe" d="
  M 75.25 106.78
  L 72.27 107.03
  A 0.31 0.31 0.0 0 1 72.11 106.44
  Q 73.91 105.59 75.06 105.91
  Q 77.50 106.60 75.25 106.78
  Z"
/>
<path fill="#fefefe" d="
  M 89.09 105.93
  Q 89.38 106.93 88.91 108.03
  Q 88.70 108.50 88.22 108.32
  L 86.97 107.83
  Q 86.37 107.60 85.89 108.02
  Q 85.04 108.75 85.07 110.06
  Q 84.53 110.02 84.28 109.71
  Q 83.97 109.30 84.31 108.92
  Q 85.13 108.02 84.61 106.78
  A 0.54 0.54 0.0 0 1 84.97 106.05
  Q 87.01 105.51 89.09 105.93
  Z"
/>
<path fill="#153e5c" d="
  M 95.86 107.10
  L 96.31 107.75
  Q 96.60 108.18 97.11 108.20
  C 100.81 108.39 103.97 110.10 107.29 110.34
  Q 110.51 110.57 113.73 110.59
  Q 116.09 110.61 119.20 111.38
  Q 124.08 112.60 130.47 112.42
  Q 135.92 112.27 139.49 116.04
  Q 141.53 118.20 142.36 122.29
  Q 143.49 127.83 143.89 133.97
  Q 141.59 135.43 139.94 137.95
  C 136.76 142.83 139.24 148.46 143.86 151.36
  L 147.15 152.55
  Q 147.67 152.73 147.68 153.28
  L 147.77 156.98
  L 147.49 181.99
  A 1.53 1.52 -2.5 0 1 146.10 183.49
  L 140.96 183.99
  Q 129.47 182.87 118.00 183.16
  Q 114.67 183.25 114.59 185.83
  C 112.02 193.23 101.99 192.74 100.14 184.88
  Q 99.15 182.69 93.70 183.32
  L 102.48 182.23
  L 102.71 184.57
  Q 105.05 189.80 110.47 187.20
  Q 111.58 186.66 111.94 184.74
  Q 112.05 184.15 111.53 184.45
  Q 110.54 185.02 110.18 184.23
  Q 109.96 183.75 109.44 183.68
  L 107.08 183.36
  A 0.04 0.03 46.4 0 1 107.08 183.29
  Q 107.20 183.28 107.34 183.34
  Q 107.54 183.42 107.75 183.38
  Q 109.05 183.16 110.22 183.67
  Q 110.64 183.85 111.06 183.67
  L 112.33 183.13
  Q 112.08 181.23 111.04 179.75
  Q 112.05 177.68 114.00 178.01
  Q 117.81 178.67 120.35 175.97
  Q 122.11 176.35 123.50 175.98
  Q 123.92 175.86 124.20 175.55
  Q 124.45 176.32 125.74 175.72
  Q 126.44 176.34 127.22 175.44
  Q 127.31 176.07 128.10 175.85
  Q 128.59 175.71 128.63 175.20
  Q 128.83 172.65 126.47 172.25
  Q 125.93 172.16 125.59 171.74
  Q 124.94 170.94 124.27 171.22
  Q 124.33 171.06 124.30 170.94
  Q 124.27 170.78 124.11 170.76
  Q 120.95 170.43 118.08 171.70
  Q 117.66 171.88 117.20 171.84
  L 108.96 171.15
  L 105.54 170.66
  A 0.21 0.20 -86.4 0 0 105.31 170.87
  Q 105.30 171.71 106.23 171.41
  A 0.54 0.54 0.0 0 1 106.93 171.95
  L 106.82 173.98
  Q 104.83 176.48 105.12 178.34
  A 0.69 0.69 0.0 0 0 105.76 178.92
  L 110.08 179.15
  Q 108.57 179.85 106.72 179.68
  Q 105.88 179.60 105.73 179.54
  Q 105.03 179.24 104.27 179.83
  A 0.45 0.45 0.0 0 1 103.55 179.53
  L 103.31 177.68
  Q 103.38 173.91 103.41 170.09
  C 103.43 167.61 102.28 166.34 102.11 163.92
  Q 103.87 161.85 106.33 164.10
  Q 106.71 164.45 107.21 164.54
  Q 124.61 167.99 134.41 153.90
  Q 134.92 153.18 134.94 152.49
  Q 134.98 151.50 134.49 150.97
  C 144.62 125.12 108.90 108.19 95.37 132.55
  Q 94.69 133.76 94.05 136.10
  Q 93.55 137.91 92.80 139.71
  L 92.22 129.92
  Q 92.19 129.37 92.74 129.45
  L 93.90 129.62
  A 0.53 0.53 0.0 0 0 94.51 129.10
  L 94.66 121.80
  A 0.66 0.65 -87.7 0 0 94.05 121.13
  L 88.38 120.71
  Q 87.36 118.86 88.93 117.26
  L 90.31 117.09
  Q 90.72 117.06 90.94 116.92
  Q 91.15 116.79 91.19 116.38
  Q 91.43 113.94 91.31 111.38
  Q 91.28 110.83 91.82 110.76
  Q 93.02 110.60 94.31 111.09
  A 1.16 1.16 0.0 0 0 95.20 108.95
  Q 94.63 108.69 93.98 108.50
  A 0.32 0.31 -89.6 0 0 93.59 108.89
  L 93.91 109.96
  A 0.48 0.32 39.0 0 1 93.10 109.88
  Q 92.76 108.87 91.72 109.25
  Q 91.26 109.42 91.16 108.93
  Q 90.99 108.10 91.26 107.27
  Q 92.18 107.11 93.07 106.37
  Q 93.53 105.99 93.96 106.40
  Q 95.18 107.57 95.86 107.10
  Z
  M 92.96 118.92
  L 92.35 119.40
  A 0.32 0.31 -64.7 0 0 92.55 119.97
  L 93.13 119.95
  Q 93.69 119.92 93.78 119.37
  L 94.29 116.51
  A 0.41 0.41 0.0 0 0 93.52 116.25
  Q 93.12 117.03 93.32 117.90
  Q 93.46 118.52 92.96 118.92
  Z
  M 96.94 117.73
  L 95.42 119.51
  Q 94.75 120.30 95.78 120.21
  L 97.25 120.09
  A 0.38 0.37 -22.0 0 0 97.51 119.48
  Q 96.69 118.49 97.62 117.90
  A 0.83 0.83 0.0 0 0 97.56 116.46
  Q 96.86 116.11 96.06 116.23
  A 0.23 0.22 52.0 0 0 96.01 116.66
  L 96.77 117.00
  Q 97.36 117.25 96.94 117.73
  Z
  M 134.04 173.26
  L 133.78 172.95
  A 0.36 0.36 0.0 0 0 133.14 173.17
  L 133.06 174.73
  A 0.47 0.47 0.0 0 1 132.12 174.78
  L 131.89 173.21
  A 0.35 0.34 -40.6 0 0 131.22 173.16
  Q 130.83 174.42 131.55 175.49
  A 1.44 1.44 0.0 0 0 134.02 175.32
  L 134.63 174.09
  A 0.50 0.49 65.6 0 1 135.55 174.44
  L 135.16 176.01
  A 0.50 0.50 0.0 0 0 135.65 176.63
  L 136.62 176.63
  A 0.42 0.42 0.0 0 0 137.03 176.11
  L 136.25 173.10
  A 0.38 0.38 0.0 0 0 135.71 172.86
  L 134.72 173.39
  Q 134.33 173.59 134.04 173.26
  Z
  M 139.49 175.90
  L 138.67 175.30
  Q 138.40 175.10 138.21 175.38
  L 137.94 175.80
  A 0.34 0.34 0.0 0 0 138.19 176.32
  L 141.76 176.67
  A 0.49 0.48 70.7 0 0 142.15 175.85
  Q 141.07 174.73 141.25 173.18
  A 0.38 0.37 79.2 0 0 140.70 172.80
  L 140.24 173.05
  A 0.60 0.60 0.0 0 0 140.04 173.91
  Q 140.69 174.83 140.21 175.74
  A 0.49 0.48 -57.3 0 1 139.49 175.90
  Z"
/>
<path fill="#ecf0e4" d="
  M 90.89 106.76
  L 91.26 107.27
  Q 90.99 108.10 91.16 108.93
  Q 91.26 109.42 91.72 109.25
  Q 92.76 108.87 93.10 109.88
  A 0.48 0.32 39.0 0 0 93.91 109.96
  L 93.59 108.89
  A 0.32 0.31 -89.6 0 1 93.98 108.50
  Q 94.63 108.69 95.20 108.95
  A 1.16 1.16 0.0 0 1 94.31 111.09
  Q 93.02 110.60 91.82 110.76
  Q 91.28 110.83 91.31 111.38
  Q 91.43 113.94 91.19 116.38
  Q 91.15 116.79 90.94 116.92
  Q 90.72 117.06 90.31 117.09
  Q 89.26 117.02 89.27 116.66
  Q 90.76 116.37 90.62 114.50
  Q 90.50 112.86 90.89 106.76
  Z"
/>
<path fill="#ecf0e4" d="
  M 148.11 108.03
  C 149.02 113.59 148.33 118.21 149.66 124.50
  Q 150.89 130.30 149.23 135.83
  Q 148.74 137.46 146.80 140.01
  Q 144.97 142.40 143.92 145.27
  Q 142.84 148.22 143.86 151.36
  C 139.24 148.46 136.76 142.83 139.94 137.95
  Q 141.59 135.43 143.89 133.97
  L 147.26 132.71
  Q 147.76 132.53 147.77 131.99
  L 148.11 108.03
  Z"
/>
<path fill="#ecf0e4" d="
  M 72.80 109.51
  L 73.15 110.49
  Q 73.38 111.15 72.74 110.87
  L 71.57 110.34
  Q 70.86 110.02 71.36 109.42
  Q 72.67 107.82 74.79 108.27
  A 1.13 1.12 3.9 0 1 75.67 109.27
  Q 75.80 110.73 74.54 110.87
  A 0.35 0.35 0.0 0 1 74.24 110.30
  L 74.51 109.97
  Q 75.06 109.31 74.22 109.14
  L 73.27 108.96
  Q 72.55 108.82 72.80 109.51
  Z"
/>
<path fill="#ecf0e4" d="
  M 88.16 112.41
  Q 89.61 113.00 88.50 116.10
  Q 85.27 115.52 85.27 114.02
  Q 85.28 113.34 85.96 113.40
  Q 88.00 113.57 88.16 112.41
  Z"
/>
<path fill="#fefefe" d="
  M 93.32 117.90
  Q 93.12 117.03 93.52 116.25
  A 0.41 0.41 0.0 0 1 94.29 116.51
  L 93.78 119.37
  Q 93.69 119.92 93.13 119.95
  L 92.55 119.97
  A 0.32 0.31 -64.7 0 1 92.35 119.40
  L 92.96 118.92
  Q 93.46 118.52 93.32 117.90
  Z"
/>
<path fill="#fefefe" d="
  M 96.77 117.00
  L 96.01 116.66
  A 0.23 0.22 52.0 0 1 96.06 116.23
  Q 96.86 116.11 97.56 116.46
  A 0.83 0.83 0.0 0 1 97.62 117.90
  Q 96.69 118.49 97.51 119.48
  A 0.38 0.37 -22.0 0 1 97.25 120.09
  L 95.78 120.21
  Q 94.75 120.30 95.42 119.51
  L 96.94 117.73
  Q 97.36 117.25 96.77 117.00
  Z"
/>
<path fill="#ecf0e4" d="
  M 88.38 120.71
  L 94.05 121.13
  A 0.66 0.65 -87.7 0 1 94.66 121.80
  L 94.51 129.10
  A 0.53 0.53 0.0 0 1 93.90 129.62
  L 92.74 129.45
  Q 92.19 129.37 92.22 129.92
  L 92.80 139.71
  Q 92.30 142.06 92.86 144.48
  L 92.83 148.01
  Q 92.83 148.50 92.60 148.93
  Q 91.40 151.14 91.81 153.79
  Q 92.04 155.25 93.75 154.65
  A 0.39 0.38 -10.1 0 1 94.27 155.01
  L 94.25 162.41
  Q 94.25 162.82 93.84 162.82
  L 72.66 162.68
  A 1.02 1.01 0.8 0 1 71.65 161.65
  L 71.90 150.79
  L 72.00 137.83
  Q 72.00 137.74 71.96 137.69
  Q 71.95 137.67 71.93 137.65
  Q 71.87 137.58 71.87 137.62
  L 71.87 138.33
  A 0.85 0.85 0.0 0 1 70.22 138.61
  L 68.00 132.27
  Q 69.93 132.43 71.65 133.34
  Q 72.23 133.65 72.21 132.99
  L 71.79 120.99
  Q 71.77 120.51 72.25 120.52
  L 88.38 120.71
  Z
  M 91.1142 129.0823
  A 0.45 0.45 0.0 0 0 90.6721 128.6245
  L 90.2122 128.6164
  A 0.45 0.45 0.0 0 0 89.7544 129.0585
  L 89.6658 134.1377
  A 0.45 0.45 0.0 0 0 90.1079 134.5955
  L 90.5678 134.6036
  A 0.45 0.45 0.0 0 0 91.0256 134.1615
  L 91.1142 129.0823
  Z
  M 91.0471 149.8105
  A 0.34 0.34 0.0 0 0 90.7125 149.4652
  L 90.0926 149.4555
  A 0.34 0.34 0.0 0 0 89.7473 149.7901
  L 89.6729 154.5295
  A 0.34 0.34 0.0 0 0 90.0075 154.8748
  L 90.6274 154.8845
  A 0.34 0.34 0.0 0 0 90.9727 154.5499
  L 91.0471 149.8105
  Z"
/>
<path fill="#fefefe" d="
  M 134.49 150.97
  C 126.99 167.15 105.85 168.54 96.23 153.56
  C 94.50 150.85 93.72 147.66 92.86 144.48
  Q 92.30 142.06 92.80 139.71
  Q 93.55 137.91 94.05 136.10
  Q 94.69 133.76 95.37 132.55
  C 108.90 108.19 144.62 125.12 134.49 150.97
  Z
  M 134.52 142.36
  A 19.94 19.94 0.0 0 0 114.58 122.42
  A 19.94 19.94 0.0 0 0 94.64 142.36
  A 19.94 19.94 0.0 0 0 114.58 162.30
  A 19.94 19.94 0.0 0 0 134.52 142.36
  Z"
/>
<path fill="#1a314c" d="
  M 134.52 142.36
  A 19.94 19.94 0.0 0 1 114.58 162.30
  A 19.94 19.94 0.0 0 1 94.64 142.36
  A 19.94 19.94 0.0 0 1 114.58 122.42
  A 19.94 19.94 0.0 0 1 134.52 142.36
  Z
  M 133.64 142.35
  A 19.05 19.05 0.0 0 0 114.59 123.30
  A 19.05 19.05 0.0 0 0 95.54 142.35
  A 19.05 19.05 0.0 0 0 114.59 161.40
  A 19.05 19.05 0.0 0 0 133.64 142.35
  Z"
/>
<path fill="#ecf0e4" d="
  M 133.64 142.35
  A 19.05 19.05 0.0 0 1 114.59 161.40
  A 19.05 19.05 0.0 0 1 95.54 142.35
  A 19.05 19.05 0.0 0 1 114.59 123.30
  A 19.05 19.05 0.0 0 1 133.64 142.35
  Z
  M 132.58 139.61
  C 131.74 132.96 126.72 127.28 120.50 125.16
  C 108.48 121.05 96.92 129.49 96.53 141.99
  C 95.82 165.09 130.05 167.35 132.64 144.00
  Q 132.69 143.55 132.96 143.18
  Q 133.96 141.81 132.92 140.44
  A 1.75 1.75 0.0 0 1 132.58 139.61
  Z"
/>
<path fill="#1a314c" d="
  M 120.50 125.16
  C 126.72 127.28 131.74 132.96 132.58 139.61
  A 1.75 1.75 0.0 0 0 132.92 140.44
  Q 133.96 141.81 132.96 143.18
  Q 132.69 143.55 132.64 144.00
  C 130.05 167.35 95.82 165.09 96.53 141.99
  C 96.92 129.49 108.48 121.05 120.50 125.16
  Z
  M 124.82 137.60
  A 0.78 0.78 0.0 0 1 123.42 136.99
  Q 124.06 134.21 121.39 133.85
  A 1.91 1.91 0.0 0 0 119.54 136.79
  Q 120.53 138.31 122.34 138.08
  A 0.68 0.68 0.0 0 1 123.10 138.64
  Q 123.31 139.89 122.23 140.44
  Q 121.66 140.74 121.10 140.41
  Q 118.97 139.16 117.72 141.23
  A 1.76 1.75 20.4 0 0 118.93 143.87
  Q 121.43 144.29 121.90 141.83
  A 1.14 1.14 0.0 0 1 124.16 142.05
  L 124.16 145.19
  A 1.00 0.99 -19.3 0 1 123.78 145.97
  Q 120.88 148.27 122.41 151.20
  C 124.14 154.52 129.66 152.35 128.65 148.68
  Q 128.54 148.27 126.83 146.08
  Q 125.40 144.24 126.28 141.60
  A 0.81 0.81 0.0 0 1 127.86 141.76
  Q 128.17 144.36 130.70 143.78
  A 1.84 1.84 0.0 0 0 131.89 141.08
  Q 130.63 138.83 128.48 140.26
  A 0.70 0.70 0.0 0 1 127.57 140.15
  Q 125.81 138.19 126.54 135.73
  A 1.26 1.26 0.0 0 1 127.26 134.93
  Q 128.47 134.40 128.96 133.19
  Q 129.19 132.61 128.84 132.08
  Q 128.29 131.25 127.31 130.83
  A 1.83 1.83 0.0 0 0 125.01 133.44
  Q 126.22 135.51 124.82 137.60
  Z
  M 103.44 136.17
  L 102.21 135.54
  A 1.77 1.77 0.0 0 0 100.06 135.95
  Q 99.11 137.03 100.19 137.93
  A 1.44 1.44 0.0 0 1 99.35 140.48
  L 98.70 140.52
  A 1.60 1.60 0.0 0 0 98.40 143.67
  L 99.33 143.90
  Q 99.84 144.02 100.11 144.48
  Q 100.83 145.69 99.86 146.66
  A 1.45 1.44 -70.4 0 0 101.03 149.12
  Q 104.84 148.72 105.60 144.97
  Q 105.71 144.46 105.29 144.14
  Q 104.13 143.27 104.22 141.82
  A 2.02 2.02 0.0 0 1 105.24 140.19
  C 108.40 138.41 110.23 141.76 107.99 144.25
  Q 107.63 144.65 107.74 145.18
  Q 108.50 148.68 112.17 149.18
  A 1.44 1.44 0.0 0 0 113.37 146.73
  Q 112.38 145.77 113.08 144.59
  A 1.15 1.14 7.6 0 1 113.79 144.05
  L 114.98 143.74
  A 1.60 1.60 0.0 0 0 114.53 140.60
  Q 112.90 140.64 112.80 138.96
  Q 112.77 138.53 113.08 138.23
  C 115.00 136.38 112.44 134.12 110.57 136.00
  A 0.80 0.80 0.0 0 1 109.77 136.20
  Q 108.15 135.73 108.28 133.96
  A 1.54 1.54 0.0 0 0 105.21 133.69
  Q 105.08 134.93 104.45 135.90
  Q 104.07 136.49 103.44 136.17
  Z"
/>
<rect fill="#1a314c" x="-0.68" y="-2.99" transform="translate(90.39,131.61) rotate(1.0)" width="1.36" height="5.98" rx="0.45"/>
<path fill="#fefefe" d="
  M 124.82 137.60
  Q 126.22 135.51 125.01 133.44
  A 1.83 1.83 0.0 0 1 127.31 130.83
  Q 128.29 131.25 128.84 132.08
  Q 129.19 132.61 128.96 133.19
  Q 128.47 134.40 127.26 134.93
  A 1.26 1.26 0.0 0 0 126.54 135.73
  Q 125.81 138.19 127.57 140.15
  A 0.70 0.70 0.0 0 0 128.48 140.26
  Q 130.63 138.83 131.89 141.08
  A 1.84 1.84 0.0 0 1 130.70 143.78
  Q 128.17 144.36 127.86 141.76
  A 0.81 0.81 0.0 0 0 126.28 141.60
  Q 125.40 144.24 126.83 146.08
  Q 128.54 148.27 128.65 148.68
  C 129.66 152.35 124.14 154.52 122.41 151.20
  Q 120.88 148.27 123.78 145.97
  A 1.00 0.99 -19.3 0 0 124.16 145.19
  L 124.16 142.05
  A 1.14 1.14 0.0 0 0 121.90 141.83
  Q 121.43 144.29 118.93 143.87
  A 1.76 1.75 20.4 0 1 117.72 141.23
  Q 118.97 139.16 121.10 140.41
  Q 121.66 140.74 122.23 140.44
  Q 123.31 139.89 123.10 138.64
  A 0.68 0.68 0.0 0 0 122.34 138.08
  Q 120.53 138.31 119.54 136.79
  A 1.91 1.91 0.0 0 1 121.39 133.85
  Q 124.06 134.21 123.42 136.99
  A 0.78 0.78 0.0 0 0 124.82 137.60
  Z
  M 126.61 132.09
  A 0.45 0.44 -86.8 0 0 126.10 132.55
  L 126.14 133.30
  A 0.43 0.43 0.0 0 0 126.85 133.60
  L 127.57 132.96
  Q 128.25 132.37 127.36 132.22
  L 126.61 132.09
  Z
  M 122.10 136.00
  Q 122.11 135.43 121.69 135.04
  A 0.53 0.53 0.0 0 0 120.81 135.54
  L 121.07 136.76
  A 0.43 0.43 0.0 0 0 121.83 136.92
  Q 122.08 136.57 122.10 136.00
  Z
  M 124.27 139.39
  A 0.53 0.53 0.0 0 0 124.61 140.30
  L 125.37 140.35
  A 0.60 0.59 -21.5 0 0 125.82 139.33
  Q 125.06 138.61 124.27 139.39
  Z
  M 119.5833 142.8274
  A 0.87 0.64 94.4 0 0 120.2881 142.0091
  A 0.87 0.64 94.4 0 0 119.7167 141.0926
  A 0.87 0.64 94.4 0 0 119.0119 141.9109
  A 0.87 0.64 94.4 0 0 119.5833 142.8274
  Z
  M 128.92 141.44
  A 0.60 0.59 22.3 0 0 129.37 142.51
  L 130.39 142.34
  Q 131.30 142.19 130.77 141.43
  Q 130.15 140.57 128.92 141.44
  Z
  M 126.66 149.37
  A 1.43 1.43 0.0 0 0 125.23 147.94
  A 1.43 1.43 0.0 0 0 123.80 149.37
  A 1.43 1.43 0.0 0 0 125.23 150.80
  A 1.43 1.43 0.0 0 0 126.66 149.37
  Z"
/>
<path fill="#1a314c" d="
  M 126.61 132.09
  L 127.36 132.22
  Q 128.25 132.37 127.57 132.96
  L 126.85 133.60
  A 0.43 0.43 0.0 0 1 126.14 133.30
  L 126.10 132.55
  A 0.45 0.44 -86.8 0 1 126.61 132.09
  Z"
/>
<path fill="#ecf0e4" d="
  M 104.45 135.90
  Q 105.08 134.93 105.21 133.69
  A 1.54 1.54 0.0 0 1 108.28 133.96
  Q 108.15 135.73 109.77 136.20
  A 0.80 0.80 0.0 0 0 110.57 136.00
  C 112.44 134.12 115.00 136.38 113.08 138.23
  Q 112.77 138.53 112.80 138.96
  Q 112.90 140.64 114.53 140.60
  A 1.60 1.60 0.0 0 1 114.98 143.74
  L 113.79 144.05
  A 1.15 1.14 7.6 0 0 113.08 144.59
  Q 112.38 145.77 113.37 146.73
  A 1.44 1.44 0.0 0 1 112.17 149.18
  Q 108.50 148.68 107.74 145.18
  Q 107.63 144.65 107.99 144.25
  C 110.23 141.76 108.40 138.41 105.24 140.19
  A 2.02 2.02 0.0 0 0 104.22 141.82
  Q 104.13 143.27 105.29 144.14
  Q 105.71 144.46 105.60 144.97
  Q 104.84 148.72 101.03 149.12
  A 1.45 1.44 -70.4 0 1 99.86 146.66
  Q 100.83 145.69 100.11 144.48
  Q 99.84 144.02 99.33 143.90
  L 98.40 143.67
  A 1.60 1.60 0.0 0 1 98.70 140.52
  L 99.35 140.48
  A 1.44 1.44 0.0 0 0 100.19 137.93
  Q 99.11 137.03 100.06 135.95
  A 1.77 1.77 0.0 0 1 102.21 135.54
  L 103.44 136.17
  Q 104.07 136.49 104.45 135.90
  Z"
/>
<path fill="#1a314c" d="
  M 122.10 136.00
  Q 122.08 136.57 121.83 136.92
  A 0.43 0.43 0.0 0 1 121.07 136.76
  L 120.81 135.54
  A 0.53 0.53 0.0 0 1 121.69 135.04
  Q 122.11 135.43 122.10 136.00
  Z"
/>
<path fill="#1a314c" d="
  M 124.27 139.39
  Q 125.06 138.61 125.82 139.33
  A 0.60 0.59 -21.5 0 1 125.37 140.35
  L 124.61 140.30
  A 0.53 0.53 0.0 0 1 124.27 139.39
  Z"
/>
<ellipse fill="#1a314c" cx="0.00" cy="0.00" transform="translate(119.65,141.96) rotate(94.4)" rx="0.87" ry="0.64"/>
<path fill="#1a314c" d="
  M 128.92 141.44
  Q 130.15 140.57 130.77 141.43
  Q 131.30 142.19 130.39 142.34
  L 129.37 142.51
  A 0.60 0.59 22.3 0 1 128.92 141.44
  Z"
/>
<path fill="#1a314c" d="
  M 92.86 144.48
  C 93.72 147.66 94.50 150.85 96.23 153.56
  C 105.85 168.54 126.99 167.15 134.49 150.97
  Q 134.98 151.50 134.94 152.49
  Q 134.92 153.18 134.41 153.90
  Q 124.61 167.99 107.21 164.54
  Q 106.71 164.45 106.33 164.10
  Q 103.87 161.85 102.11 163.92
  Q 101.73 163.59 101.38 163.73
  Q 101.11 163.84 101.01 164.24
  Q 100.85 164.89 101.20 165.10
  A 1.05 0.96 -19.7 0 1 100.27 166.86
  L 98.17 166.32
  Q 97.62 166.18 97.74 165.63
  L 97.96 164.56
  Q 98.09 163.95 98.68 164.14
  L 99.22 164.31
  A 0.27 0.27 0.0 0 0 99.46 163.83
  Q 99.04 163.53 98.51 163.44
  Q 97.93 163.34 97.61 163.82
  Q 96.80 165.03 97.31 166.36
  Q 97.47 166.77 97.16 167.09
  L 96.73 167.52
  Q 96.28 167.97 96.28 168.60
  L 96.23 179.90
  Q 96.22 180.50 96.82 180.50
  L 100.87 180.51
  Q 105.26 181.80 110.11 181.37
  Q 110.13 181.36 110.13 181.34
  Q 110.13 181.28 110.13 181.41
  Q 110.13 181.47 110.10 181.47
  Q 107.32 181.00 104.78 181.86
  Q 104.36 182.00 104.12 181.63
  Q 103.92 181.33 103.49 181.35
  Q 102.90 181.37 102.48 182.23
  L 93.70 183.32
  L 81.52 183.31
  C 78.44 183.47 68.03 184.28 67.49 180.76
  L 67.82 152.73
  Q 67.82 152.16 68.37 151.97
  L 71.90 150.79
  L 71.65 161.65
  A 1.02 1.01 0.8 0 0 72.66 162.68
  L 93.84 162.82
  Q 94.25 162.82 94.25 162.41
  L 94.27 155.01
  A 0.39 0.38 -10.1 0 0 93.75 154.65
  Q 92.04 155.25 91.81 153.79
  Q 91.40 151.14 92.60 148.93
  Q 92.83 148.50 92.83 148.01
  L 92.86 144.48
  Z
  M 69.15 180.29
  Q 72.65 181.07 75.21 180.55
  Q 75.74 180.46 76.13 180.18
  Q 76.54 179.90 76.53 179.39
  Q 76.48 174.71 76.73 169.98
  Q 76.87 167.29 74.00 165.94
  Q 73.65 165.78 73.40 166.06
  L 72.90 166.63
  Q 72.37 167.23 71.98 166.53
  Q 71.37 165.47 72.00 164.44
  A 0.63 0.63 0.0 0 0 71.57 163.49
  L 69.64 163.16
  Q 69.01 163.05 69.01 163.69
  L 69.15 180.29
  Z
  M 73.52 165.22
  A 0.35 0.35 0.0 0 0 74.11 164.96
  L 74.09 164.00
  A 0.70 0.55 -50.6 0 0 72.86 164.27
  Q 72.84 164.55 73.52 165.22
  Z
  M 85.86 166.21
  A 0.71 0.71 0.0 0 1 84.66 165.65
  L 84.74 164.55
  A 0.23 0.23 0.0 0 0 84.29 164.49
  Q 83.98 166.11 85.11 167.12
  A 0.79 0.79 0.0 0 0 86.40 166.74
  L 87.08 164.28
  A 0.38 0.35 -31.8 0 0 86.36 164.15
  Q 86.20 164.67 86.39 165.25
  A 0.58 0.57 -31.0 0 1 86.24 165.84
  L 85.86 166.21
  Z
  M 89.56 166.80
  L 88.94 164.03
  Q 88.85 163.64 88.47 163.80
  L 88.09 163.96
  Q 87.64 164.15 87.99 164.48
  Q 88.85 165.32 88.34 166.31
  A 0.68 0.68 0.0 0 0 88.44 167.08
  Q 88.66 167.31 88.93 167.39
  Q 89.75 167.63 89.56 166.80
  Z
  M 94.58 170.31
  L 94.58 168.91
  A 0.30 0.30 0.0 0 0 94.28 168.61
  L 94.12 168.61
  A 4.40 0.84 -0.1 0 0 89.72 169.45
  L 89.72 169.77
  A 4.40 0.84 -0.1 0 0 94.12 170.61
  L 94.28 170.61
  A 0.30 0.30 0.0 0 0 94.58 170.31
  Z
  M 83.81 169.50
  A 0.60 0.60 0.0 0 0 83.21 168.90
  L 78.65 168.90
  A 0.60 0.60 0.0 0 0 78.05 169.50
  L 78.05 169.86
  A 0.60 0.60 0.0 0 0 78.65 170.46
  L 83.21 170.46
  A 0.60 0.60 0.0 0 0 83.81 169.86
  L 83.81 169.50
  Z
  M 83.6624 173.3130
  A 0.56 0.56 0.0 0 0 83.1073 172.7482
  L 78.9475 172.7119
  A 0.56 0.56 0.0 0 0 78.3826 173.2670
  L 78.3776 173.8470
  A 0.56 0.56 0.0 0 0 78.9327 174.4118
  L 83.0925 174.4481
  A 0.56 0.56 0.0 0 0 83.6574 173.8930
  L 83.6624 173.3130
  Z
  M 94.53 174.30
  L 94.51 172.74
  A 0.26 0.26 0.0 0 0 94.25 172.48
  L 94.07 172.49
  A 4.46 0.97 -0.7 0 0 89.62 173.51
  L 89.62 173.65
  A 4.46 0.97 -0.7 0 0 94.09 174.57
  L 94.27 174.56
  A 0.26 0.26 0.0 0 0 94.53 174.30
  Z
  M 78.35 178.15
  L 78.22 179.33
  Q 78.16 179.85 78.68 179.85
  L 88.69 179.85
  Q 89.15 179.85 89.56 180.07
  Q 91.99 181.40 94.69 180.65
  Q 95.35 180.46 94.80 180.06
  Q 93.54 179.11 94.29 178.41
  Q 95.53 175.49 89.50 177.18
  Q 86.12 180.95 84.17 177.65
  Q 81.93 176.22 78.60 176.58
  Q 78.14 176.63 78.01 177.07
  Q 77.80 177.84 78.35 178.15
  Z"
/>
<circle fill="#251a11" cx="125.23" cy="149.37" r="1.43"/>
<rect fill="#1a314c" x="-0.65" y="-2.71" transform="translate(90.36,152.17) rotate(0.9)" width="1.30" height="5.42" rx="0.34"/>
<path fill="#ecf0e4" d="
  M 147.77 156.98
  Q 148.41 158.75 149.00 160.48
  Q 149.60 162.23 149.66 164.10
  Q 149.86 170.67 149.90 177.23
  A 0.71 0.69 -26.5 0 1 149.73 177.71
  Q 149.04 178.54 149.41 179.89
  Q 149.55 180.37 149.34 180.83
  C 147.55 184.78 148.08 187.14 142.55 186.79
  Q 139.50 186.60 136.73 189.44
  Q 136.40 189.78 135.95 189.90
  Q 130.28 191.34 124.47 192.41
  Q 124.37 192.42 120.48 192.72
  Q 117.95 192.90 115.78 194.43
  A 1.40 1.39 31.5 0 1 114.81 194.66
  C 112.34 194.33 110.92 195.56 108.73 195.52
  Q 106.73 195.49 104.76 195.33
  Q 103.02 195.19 101.02 194.18
  Q 99.09 193.21 97.05 192.54
  C 93.71 191.45 90.16 192.54 86.51 191.57
  Q 84.05 190.92 81.91 190.60
  Q 79.55 190.25 77.31 189.44
  Q 75.47 188.77 73.81 188.60
  C 69.44 188.16 66.07 185.83 67.49 180.76
  C 68.03 184.28 78.44 183.47 81.52 183.31
  Q 83.74 185.98 87.10 185.44
  Q 88.19 185.27 87.11 185.09
  Q 84.80 184.70 82.65 183.87
  Q 82.63 183.86 82.63 183.88
  Q 82.63 183.89 82.62 183.91
  Q 82.62 183.96 82.67 183.98
  Q 91.11 185.87 100.14 184.88
  C 101.99 192.74 112.02 193.23 114.59 185.83
  Q 120.59 186.12 126.62 185.33
  Q 133.77 184.39 140.96 183.99
  L 146.10 183.49
  A 1.53 1.52 -2.5 0 0 147.49 181.99
  L 147.77 156.98
  Z"
/>
<path fill="#ecf0e4" d="
  M 75.21 180.55
  Q 74.55 180.66 74.53 179.83
  Q 76.04 177.89 74.88 177.54
  L 75.09 171.36
  Q 75.11 170.84 75.31 170.37
  Q 75.83 169.20 75.37 168.07
  Q 75.15 167.53 74.58 167.53
  Q 72.88 167.52 71.26 167.56
  Q 70.21 167.60 70.02 168.50
  A 0.37 0.37 0.0 0 0 70.41 168.95
  L 73.63 168.72
  Q 74.79 168.64 74.20 169.65
  L 73.44 170.95
  Q 73.22 171.33 72.78 171.27
  L 72.04 171.16
  A 1.64 1.63 -86.0 0 0 70.18 172.78
  Q 70.19 177.09 72.99 175.48
  Q 73.48 175.20 73.58 175.76
  Q 73.85 177.20 74.88 177.54
  Q 74.14 177.85 73.86 178.30
  Q 73.16 178.40 72.69 178.02
  A 1.36 1.36 0.0 0 0 70.46 179.12
  Q 70.52 180.45 69.15 180.29
  L 69.01 163.69
  Q 69.01 163.05 69.64 163.16
  L 71.57 163.49
  A 0.63 0.63 0.0 0 1 72.00 164.44
  Q 71.37 165.47 71.98 166.53
  Q 72.37 167.23 72.90 166.63
  L 73.40 166.06
  Q 73.65 165.78 74.00 165.94
  Q 76.87 167.29 76.73 169.98
  Q 76.48 174.71 76.53 179.39
  Q 76.54 179.90 76.13 180.18
  Q 75.74 180.46 75.21 180.55
  Z"
/>
<path fill="#ecf0e4" d="
  M 102.11 163.92
  C 102.28 166.34 103.43 167.61 103.41 170.09
  Q 103.38 173.91 103.31 177.68
  Q 103.34 181.21 100.87 180.51
  L 96.82 180.50
  Q 96.22 180.50 96.23 179.90
  L 96.28 168.60
  Q 96.28 167.97 96.73 167.52
  L 97.16 167.09
  Q 97.47 166.77 97.31 166.36
  Q 96.80 165.03 97.61 163.82
  Q 97.93 163.34 98.51 163.44
  Q 99.04 163.53 99.46 163.83
  A 0.27 0.27 0.0 0 1 99.22 164.31
  L 98.68 164.14
  Q 98.09 163.95 97.96 164.56
  L 97.74 165.63
  Q 97.62 166.18 98.17 166.32
  L 100.27 166.86
  A 1.05 0.96 -19.7 0 0 101.20 165.10
  Q 100.85 164.89 101.01 164.24
  Q 101.11 163.84 101.38 163.73
  Q 101.73 163.59 102.11 163.92
  Z
  M 100.05 178.33
  Q 99.46 177.73 99.83 177.08
  Q 100.15 176.51 99.51 176.41
  L 97.77 176.12
  Q 97.35 176.05 97.32 176.48
  L 97.13 179.17
  A 0.57 0.57 0.0 0 0 97.67 179.78
  L 101.28 179.97
  A 1.00 1.00 0.0 0 0 102.34 178.97
  L 102.40 168.57
  Q 102.41 167.75 101.59 167.79
  L 97.54 167.98
  A 0.44 0.43 -44.5 0 0 97.53 168.85
  L 100.41 169.02
  A 0.96 0.96 0.0 0 1 101.29 170.20
  Q 100.36 173.99 100.99 177.86
  A 0.55 0.55 0.0 0 1 100.05 178.33
  Z
  M 98.75 170.41
  Q 95.65 171.28 97.35 174.67
  A 0.34 0.34 0.0 0 0 97.99 174.52
  L 97.99 171.56
  Q 97.99 170.86 98.69 170.79
  L 99.41 170.73
  Q 99.71 170.70 99.60 170.42
  Q 99.51 170.19 99.32 170.14
  Q 99.25 170.12 99.18 170.15
  Q 99.05 170.20 98.95 170.30
  Q 98.86 170.38 98.75 170.41
  Z"
/>
<path fill="#ecf0e4" d="
  M 73.52 165.22
  Q 72.84 164.55 72.86 164.27
  A 0.70 0.55 -50.6 0 1 74.09 164.00
  L 74.11 164.96
  A 0.35 0.35 0.0 0 1 73.52 165.22
  Z"
/>
<path fill="#ecf0e4" d="
  M 85.86 166.21
  L 86.24 165.84
  A 0.58 0.57 -31.0 0 0 86.39 165.25
  Q 86.20 164.67 86.36 164.15
  A 0.38 0.35 -31.8 0 1 87.08 164.28
  L 86.40 166.74
  A 0.79 0.79 0.0 0 1 85.11 167.12
  Q 83.98 166.11 84.29 164.49
  A 0.23 0.23 0.0 0 1 84.74 164.55
  L 84.66 165.65
  A 0.71 0.71 0.0 0 0 85.86 166.21
  Z"
/>
<path fill="#fefefe" d="
  M 88.93 167.39
  Q 88.66 167.31 88.44 167.08
  A 0.68 0.68 0.0 0 1 88.34 166.31
  Q 88.85 165.32 87.99 164.48
  Q 87.64 164.15 88.09 163.96
  L 88.47 163.80
  Q 88.85 163.64 88.94 164.03
  L 89.56 166.80
  Q 89.75 167.63 88.93 167.39
  Z"
/>
<path fill="#433e38" d="
  M 74.88 177.54
  Q 73.85 177.20 73.58 175.76
  Q 73.48 175.20 72.99 175.48
  Q 70.19 177.09 70.18 172.78
  A 1.64 1.63 -86.0 0 1 72.04 171.16
  L 72.78 171.27
  Q 73.22 171.33 73.44 170.95
  L 74.20 169.65
  Q 74.79 168.64 73.63 168.72
  L 70.41 168.95
  A 0.37 0.37 0.0 0 1 70.02 168.50
  Q 70.21 167.60 71.26 167.56
  Q 72.88 167.52 74.58 167.53
  Q 75.15 167.53 75.37 168.07
  Q 75.83 169.20 75.31 170.37
  Q 75.11 170.84 75.09 171.36
  L 74.88 177.54
  Z"
/>
<path fill="#1a314c" d="
  M 100.05 178.33
  A 0.55 0.55 0.0 0 0 100.99 177.86
  Q 100.36 173.99 101.29 170.20
  A 0.96 0.96 0.0 0 0 100.41 169.02
  L 97.53 168.85
  A 0.44 0.43 -44.5 0 1 97.54 167.98
  L 101.59 167.79
  Q 102.41 167.75 102.40 168.57
  L 102.34 178.97
  A 1.00 1.00 0.0 0 1 101.28 179.97
  L 97.67 179.78
  A 0.57 0.57 0.0 0 1 97.13 179.17
  L 97.32 176.48
  Q 97.35 176.05 97.77 176.12
  L 99.51 176.41
  Q 100.15 176.51 99.83 177.08
  Q 99.46 177.73 100.05 178.33
  Z
  M 98.04 177.38
  Q 97.78 177.90 97.92 178.42
  A 0.53 0.53 0.0 0 0 98.85 178.61
  Q 99.19 178.17 99.15 177.60
  Q 99.13 177.37 98.99 177.19
  Q 98.63 176.74 98.16 177.22
  A 0.76 0.66 85.9 0 0 98.04 177.38
  Z"
/>
<path fill="#fefefe" d="
  M 94.58 170.31
  A 0.30 0.30 0.0 0 1 94.28 170.61
  L 94.12 170.61
  A 4.40 0.84 -0.1 0 1 89.72 169.77
  L 89.72 169.45
  A 4.40 0.84 -0.1 0 1 94.12 168.61
  L 94.28 168.61
  A 0.30 0.30 0.0 0 1 94.58 168.91
  L 94.58 170.31
  Z"
/>
<rect fill="#fefefe" x="78.05" y="168.90" width="5.76" height="1.56" rx="0.60"/>
<path fill="#7c8890" d="
  M 98.95 170.30
  Q 99.05 170.20 99.18 170.15
  Q 99.25 170.12 99.32 170.14
  Q 99.51 170.19 99.60 170.42
  Q 99.71 170.70 99.41 170.73
  L 98.69 170.79
  Q 97.99 170.86 97.99 171.56
  L 97.99 174.52
  A 0.34 0.34 0.0 0 1 97.35 174.67
  Q 95.65 171.28 98.75 170.41
  Q 98.86 170.38 98.95 170.30
  Z"
/>
<path fill="#ecf0e4" d="
  M 108.96 171.15
  Q 107.01 171.85 107.97 175.28
  A 0.31 0.31 0.0 0 1 107.78 175.65
  Q 107.62 175.71 107.47 175.77
  A 0.43 0.42 -21.3 0 1 106.91 175.53
  Q 106.64 174.81 106.82 173.98
  L 106.93 171.95
  A 0.54 0.54 0.0 0 0 106.23 171.41
  Q 105.30 171.71 105.31 170.87
  A 0.21 0.20 -86.4 0 1 105.54 170.66
  L 108.96 171.15
  Z"
/>
<path fill="#1a314c" d="
  M 124.27 171.22
  L 124.20 175.55
  Q 123.92 175.86 123.50 175.98
  Q 122.82 175.02 121.43 175.41
  A 0.53 0.53 0.0 0 1 120.76 174.88
  L 120.79 173.62
  Q 120.80 172.94 121.47 173.10
  L 122.66 173.39
  Q 123.21 173.52 123.21 172.96
  L 123.22 172.58
  Q 123.23 172.19 122.83 172.22
  L 120.71 172.41
  A 0.74 0.73 7.5 0 0 120.08 172.89
  Q 119.47 174.50 120.35 175.97
  Q 117.81 178.67 114.00 178.01
  Q 112.05 177.68 111.04 179.75
  Q 110.80 179.87 110.08 179.15
  L 105.76 178.92
  A 0.69 0.69 0.0 0 1 105.12 178.34
  Q 104.83 176.48 106.82 173.98
  Q 106.64 174.81 106.91 175.53
  A 0.43 0.42 -21.3 0 0 107.47 175.77
  Q 107.62 175.71 107.78 175.65
  A 0.31 0.31 0.0 0 0 107.97 175.28
  Q 107.01 171.85 108.96 171.15
  L 117.20 171.84
  Q 117.66 171.88 118.08 171.70
  Q 120.95 170.43 124.11 170.76
  Q 124.27 170.78 124.30 170.94
  Q 124.33 171.06 124.27 171.22
  Z
  M 114.02 175.17
  L 113.98 173.05
  A 0.76 0.76 0.0 0 0 113.20 172.30
  L 112.10 172.33
  A 2.12 1.75 -1.2 0 0 110.02 174.12
  L 110.02 174.26
  A 2.12 1.75 -1.2 0 0 112.18 175.97
  L 113.28 175.94
  A 0.76 0.76 0.0 0 0 114.02 175.17
  Z
  M 117.30 175.44
  L 116.46 175.27
  Q 115.98 175.18 115.97 174.69
  L 115.92 172.66
  A 0.35 0.35 0.0 0 0 115.25 172.54
  Q 114.16 175.40 116.59 176.12
  A 1.75 1.75 0.0 0 0 118.83 174.57
  L 118.96 172.88
  A 0.36 0.36 0.0 0 0 118.57 172.50
  Q 118.33 172.52 118.10 172.53
  Q 117.73 172.55 117.76 172.92
  L 117.91 174.90
  A 0.51 0.51 0.0 0 1 117.30 175.44
  Z"
/>
<path fill="#ecf0e4" d="
  M 127.22 175.44
  Q 127.68 174.00 126.64 173.23
  Q 126.20 172.91 125.87 173.34
  Q 125.09 174.37 125.74 175.72
  Q 124.45 176.32 124.20 175.55
  L 124.27 171.22
  Q 124.94 170.94 125.59 171.74
  Q 125.93 172.16 126.47 172.25
  Q 128.83 172.65 128.63 175.20
  Q 128.59 175.71 128.10 175.85
  Q 127.31 176.07 127.22 175.44
  Z"
/>
<path fill="#ecf0e4" d="
  M 123.50 175.98
  Q 122.11 176.35 120.35 175.97
  Q 119.47 174.50 120.08 172.89
  A 0.74 0.73 7.5 0 1 120.71 172.41
  L 122.83 172.22
  Q 123.23 172.19 123.22 172.58
  L 123.21 172.96
  Q 123.21 173.52 122.66 173.39
  L 121.47 173.10
  Q 120.80 172.94 120.79 173.62
  L 120.76 174.88
  A 0.53 0.53 0.0 0 0 121.43 175.41
  Q 122.82 175.02 123.50 175.98
  Z"
/>
<path fill="#ecf0e4" d="
  M 114.02 175.17
  A 0.76 0.76 0.0 0 1 113.28 175.94
  L 112.18 175.97
  A 2.12 1.75 -1.2 0 1 110.02 174.26
  L 110.02 174.12
  A 2.12 1.75 -1.2 0 1 112.10 172.33
  L 113.20 172.30
  A 0.76 0.76 0.0 0 1 113.98 173.05
  L 114.02 175.17
  Z
  M 111.52 175.10
  L 112.65 175.26
  A 0.58 0.58 0.0 0 0 113.27 174.49
  L 112.83 173.28
  Q 112.50 172.37 111.84 173.07
  L 111.09 173.85
  A 0.75 0.74 -64.3 0 0 111.52 175.10
  Z"
/>
<path fill="#ecf0e4" d="
  M 117.91 174.90
  L 117.76 172.92
  Q 117.73 172.55 118.10 172.53
  Q 118.33 172.52 118.57 172.50
  A 0.36 0.36 0.0 0 1 118.96 172.88
  L 118.83 174.57
  A 1.75 1.75 0.0 0 1 116.59 176.12
  Q 114.16 175.40 115.25 172.54
  A 0.35 0.35 0.0 0 1 115.92 172.66
  L 115.97 174.69
  Q 115.98 175.18 116.46 175.27
  L 117.30 175.44
  A 0.51 0.51 0.0 0 0 117.91 174.90
  Z"
/>
<rect fill="#fefefe" x="-2.64" y="-0.85" transform="translate(81.02,173.58) rotate(0.5)" width="5.28" height="1.70" rx="0.56"/>
<path fill="#ecf0e4" d="
  M 94.53 174.30
  A 0.26 0.26 0.0 0 1 94.27 174.56
  L 94.09 174.57
  A 4.46 0.97 -0.7 0 1 89.62 173.65
  L 89.62 173.51
  A 4.46 0.97 -0.7 0 1 94.07 172.49
  L 94.25 172.48
  A 0.26 0.26 0.0 0 1 94.51 172.74
  L 94.53 174.30
  Z"
/>
<path fill="#ecf0e4" d="
  M 134.72 173.39
  L 135.71 172.86
  A 0.38 0.38 0.0 0 1 136.25 173.10
  L 137.03 176.11
  A 0.42 0.42 0.0 0 1 136.62 176.63
  L 135.65 176.63
  A 0.50 0.50 0.0 0 1 135.16 176.01
  L 135.55 174.44
  A 0.50 0.49 65.6 0 0 134.63 174.09
  L 134.02 175.32
  A 1.44 1.44 0.0 0 1 131.55 175.49
  Q 130.83 174.42 131.22 173.16
  A 0.35 0.34 -40.6 0 1 131.89 173.21
  L 132.12 174.78
  A 0.47 0.47 0.0 0 0 133.06 174.73
  L 133.14 173.17
  A 0.36 0.36 0.0 0 1 133.78 172.95
  L 134.04 173.26
  Q 134.33 173.59 134.72 173.39
  Z"
/>
<path fill="#ecf0e4" d="
  M 140.21 175.74
  Q 140.69 174.83 140.04 173.91
  A 0.60 0.60 0.0 0 1 140.24 173.05
  L 140.70 172.80
  A 0.38 0.37 79.2 0 1 141.25 173.18
  Q 141.07 174.73 142.15 175.85
  A 0.49 0.48 70.7 0 1 141.76 176.67
  L 138.19 176.32
  A 0.34 0.34 0.0 0 1 137.94 175.80
  L 138.21 175.38
  Q 138.40 175.10 138.67 175.30
  L 139.49 175.90
  A 0.49 0.48 -57.3 0 0 140.21 175.74
  Z"
/>
<path fill="#251a11" d="
  M 111.52 175.10
  A 0.75 0.74 -64.3 0 1 111.09 173.85
  L 111.84 173.07
  Q 112.50 172.37 112.83 173.28
  L 113.27 174.49
  A 0.58 0.58 0.0 0 1 112.65 175.26
  L 111.52 175.10
  Z"
/>
<path fill="#251a11" d="
  M 127.22 175.44
  Q 126.44 176.34 125.74 175.72
  Q 125.09 174.37 125.87 173.34
  Q 126.20 172.91 126.64 173.23
  Q 127.68 174.00 127.22 175.44
  Z"
/>
<path fill="#ecf0e4" d="
  M 84.17 177.65
  Q 81.19 178.53 78.35 178.15
  Q 77.80 177.84 78.01 177.07
  Q 78.14 176.63 78.60 176.58
  Q 81.93 176.22 84.17 177.65
  Z"
/>
<path fill="#fefefe" d="
  M 94.29 178.41
  Q 90.34 178.86 89.50 177.18
  Q 95.53 175.49 94.29 178.41
  Z"
/>
<path fill="#433e38" d="
  M 89.50 177.18
  Q 90.34 178.86 94.29 178.41
  Q 93.54 179.11 94.80 180.06
  Q 95.35 180.46 94.69 180.65
  Q 91.99 181.40 89.56 180.07
  Q 89.15 179.85 88.69 179.85
  L 78.68 179.85
  Q 78.16 179.85 78.22 179.33
  L 78.35 178.15
  Q 81.19 178.53 84.17 177.65
  Q 86.12 180.95 89.50 177.18
  Z"
/>
<path fill="#ecf0e4" d="
  M 98.04 177.38
  A 0.76 0.66 85.9 0 1 98.16 177.22
  Q 98.63 176.74 98.99 177.19
  Q 99.13 177.37 99.15 177.60
  Q 99.19 178.17 98.85 178.61
  A 0.53 0.53 0.0 0 1 97.92 178.42
  Q 97.78 177.90 98.04 177.38
  Z"
/>
<path fill="#7c8890" d="
  M 73.86 178.30
  Q 73.69 180.05 74.53 179.83
  Q 74.55 180.66 75.21 180.55
  Q 72.65 181.07 69.15 180.29
  Q 70.52 180.45 70.46 179.12
  A 1.36 1.36 0.0 0 1 72.69 178.02
  Q 73.16 178.40 73.86 178.30
  Z"
/>
<path fill="#433e38" d="
  M 74.88 177.54
  Q 76.04 177.89 74.53 179.83
  Q 73.69 180.05 73.86 178.30
  Q 74.14 177.85 74.88 177.54
  Z"
/>
<path fill="#7c8890" d="
  M 103.31 177.68
  L 103.55 179.53
  A 0.45 0.45 0.0 0 0 104.27 179.83
  Q 105.03 179.24 105.73 179.54
  Q 105.88 179.60 106.72 179.68
  Q 108.57 179.85 110.08 179.15
  Q 110.80 179.87 111.04 179.75
  Q 112.08 181.23 112.33 183.13
  Q 107.35 181.87 102.71 184.57
  L 102.48 182.23
  Q 102.90 181.37 103.49 181.35
  Q 103.92 181.33 104.12 181.63
  Q 104.36 182.00 104.78 181.86
  Q 107.32 181.00 110.10 181.47
  Q 110.13 181.47 110.13 181.41
  Q 110.13 181.28 110.13 181.34
  Q 110.13 181.36 110.11 181.37
  Q 105.26 181.80 100.87 180.51
  Q 103.34 181.21 103.31 177.68
  Z"
/>
<path fill="#ecf0e4" d="
  M 112.33 183.13
  L 111.06 183.67
  Q 110.64 183.85 110.22 183.67
  Q 109.05 183.16 107.75 183.38
  Q 107.54 183.42 107.34 183.34
  Q 107.20 183.28 107.08 183.29
  A 0.04 0.03 46.4 0 0 107.08 183.36
  L 109.44 183.68
  Q 109.96 183.75 110.18 184.23
  Q 110.54 185.02 111.53 184.45
  Q 112.05 184.15 111.94 184.74
  Q 111.58 186.66 110.47 187.20
  Q 105.05 189.80 102.71 184.57
  Q 107.35 181.87 112.33 183.13
  Z"
/>
<path fill="#7c8890" d="
  M 140.96 183.99
  Q 133.77 184.39 126.62 185.33
  Q 120.59 186.12 114.59 185.83
  Q 114.67 183.25 118.00 183.16
  Q 129.47 182.87 140.96 183.99
  Z"
/>
<path fill="#7c8890" d="
  M 81.52 183.31
  L 93.70 183.32
  Q 99.15 182.69 100.14 184.88
  Q 91.11 185.87 82.67 183.98
  Q 82.62 183.96 82.62 183.91
  Q 82.63 183.89 82.63 183.88
  Q 82.63 183.86 82.65 183.87
  Q 84.80 184.70 87.11 185.09
  Q 88.19 185.27 87.10 185.44
  Q 83.74 185.98 81.52 183.31
  Z"
/>
</svg>
