<?xml version="1.0" encoding="UTF-8" standalone="no"?>
<!DOCTYPE svg PUBLIC "-//W3C//DTD SVG 1.1//EN" "http://www.w3.org/Graphics/SVG/1.1/DTD/svg11.dtd">
<svg xmlns="http://www.w3.org/2000/svg" version="1.1" viewBox="0.00 0.00 318.00 159.00">
<g stroke-width="2.00" fill="none" stroke-linecap="butt">
<path stroke="#a8a29a" vector-effect="non-scaling-stroke" d="
  M 48.33 0.00
  Q 46.81 14.90 47.19 30.13
  Q 47.21 30.77 47.76 32.56
  Q 48.03 33.42 47.17 33.16
  L 45.77 32.73
  Q 45.17 32.55 45.15 31.92
  L 45.12 30.68
  Q 45.09 29.55 44.66 30.59
  C 41.25 39.03 54.25 41.45 59.70 42.25
  A 0.70 0.70 0.0 0 1 60.29 43.05
  C 58.27 56.37 54.69 71.03 52.77 82.59
  Q 49.31 103.33 46.34 124.15
  C 46.21 125.04 46.51 125.70 46.72 126.52"
/>
<path stroke="#d8d6cd" vector-effect="non-scaling-stroke" d="
  M 46.72 126.52
  L 48.37 158.22
  A 0.63 0.63 0.0 0 0 49.52 158.54
  Q 49.87 158.04 49.78 157.24
  Q 48.23 142.00 47.62 126.72"
/>
<path stroke="#a8a29a" vector-effect="non-scaling-stroke" d="
  M 47.62 126.72
  Q 51.11 103.17 55.09 79.73
  C 56.70 70.31 59.59 58.71 61.34 47.92"
/>
<path stroke="#b3aca4" vector-effect="non-scaling-stroke" d="
  M 61.34 47.92
  Q 62.26 49.60 62.19 51.87
  Q 61.52 73.84 59.71 95.74
  C 58.78 106.92 59.15 117.75 59.12 128.85
  Q 59.12 128.88 59.16 128.88
  Q 59.17 128.88 59.19 128.88
  Q 59.24 128.88 59.24 128.83
  Q 59.37 119.72 60.08 110.66
  C 61.22 96.18 61.93 85.25 62.79 72.55
  C 63.32 64.57 62.99 53.68 64.20 44.34
  Q 64.35 43.14 65.55 43.16
  L 82.16 43.46"
/>
<path stroke="#ceccc5" vector-effect="non-scaling-stroke" d="
  M 82.16 43.46
  Q 83.09 43.06 83.14 44.80"
/>
<path stroke="#a8a29a" vector-effect="non-scaling-stroke" d="
  M 83.14 44.80
  Q 80.59 85.10 79.93 125.50
  Q 79.93 126.00 80.45 127.25"
/>
<path stroke="#e8e6e0" vector-effect="non-scaling-stroke" d="
  M 80.45 127.25
  C 79.54 137.71 79.98 146.50 77.38 157.99
  A 0.54 0.53 2.2 0 0 77.98 158.63
  L 80.17 158.32
  Q 80.60 158.25 80.64 157.81
  L 84.04 115.19
  Q 84.08 114.68 83.73 114.30
  Q 81.91 112.32 83.43 111.86"
/>
<path stroke="#a8a29a" vector-effect="non-scaling-stroke" d="
  M 83.43 111.86
  Q 84.68 112.17 84.73 110.75
  Q 85.66 81.10 86.36 51.48"
/>
<path stroke="#ceccc5" vector-effect="non-scaling-stroke" d="
  M 86.36 51.48
  L 86.96 42.62"
/>
<path stroke="#e8e6e0" vector-effect="non-scaling-stroke" d="
  M 86.96 42.62
  Q 91.25 43.01 94.99 41.58"
/>
<path stroke="#dcd4c8" vector-effect="non-scaling-stroke" d="
  M 94.99 41.58
  Q 97.89 40.94 100.40 39.84
  C 103.61 38.43 104.54 35.54 109.26 36.43
  A 0.74 0.73 -77.9 0 0 110.12 35.87
  L 110.29 35.17
  A 0.70 0.70 0.0 0 0 109.65 34.31
  L 105.50 34.02
  Q 104.84 33.97 104.66 33.34
  L 103.93 30.74
  Q 103.63 29.67 103.41 30.76
  Q 103.29 31.39 103.06 32.49
  Q 102.81 33.72 101.68 33.61
  Q 101.12 33.56 101.24 33.02
  C 101.57 31.59 101.91 30.25 101.95 28.80
  Q 102.32 14.39 102.34 0.00"
/>
<path stroke="#e8e6e0" vector-effect="non-scaling-stroke" d="
  M 202.88 159.00
  C 205.12 158.73 205.90 154.39 206.02 152.75
  Q 207.07 137.83 207.38 123.01"
/>
<path stroke="#bfb8af" vector-effect="non-scaling-stroke" d="
  M 207.38 123.01
  Q 210.32 110.90 210.17 98.53"
/>
<path stroke="#9fa09d" vector-effect="non-scaling-stroke" d="
  M 210.17 98.53
  Q 211.15 95.63 210.55 92.94
  C 209.81 89.64 209.56 87.78 209.25 85.03
  A 1.38 1.31 19.9 0 0 208.83 84.19
  Q 208.52 83.90 208.32 83.90"
/>
<path stroke="#d8d6cd" vector-effect="non-scaling-stroke" d="
  M 208.32 83.90
  Q 207.96 83.17 207.41 82.85
  Q 192.75 74.38 178.15 65.78
  Q 175.53 64.24 172.74 64.72
  Q 161.01 66.76 143.76 70.52"
/>
<path stroke="#858585" vector-effect="non-scaling-stroke" d="
  M 143.76 70.52
  L 142.61 78.06"
/>
<path stroke="#bfb8af" vector-effect="non-scaling-stroke" d="
  M 142.61 78.06
  Q 142.74 79.36 142.00 80.51
  A 1.59 1.58 -83.5 0 1 141.25 81.11
  Q 140.02 81.56 139.86 82.29
  Q 136.53 97.77 140.32 113.24
  A 0.62 0.62 0.0 0 0 141.47 113.38
  Q 141.79 112.76 141.81 111.86
  Q 141.81 111.29 141.51 110.30
  Q 138.36 100.16 142.21 89.40
  Q 142.65 88.19 143.57 88.19"
/>
<path stroke="#858585" vector-effect="non-scaling-stroke" d="
  M 143.57 88.19
  Q 144.29 89.48 145.52 90.32"
/>
<path stroke="#bfb8af" vector-effect="non-scaling-stroke" d="
  M 145.52 90.32
  L 146.08 90.71"
/>
<path stroke="#ceccc5" vector-effect="non-scaling-stroke" d="
  M 146.08 90.71
  Q 146.73 91.59 146.72 92.25
  C 146.69 97.13 148.27 102.01 148.47 106.28
  Q 148.72 111.87 148.84 117.92
  A 0.81 0.81 0.0 0 0 150.41 118.17
  Q 150.46 118.03 150.51 117.84
  Q 150.60 117.51 150.55 117.13
  Q 148.98 106.22 151.74 95.57
  Q 151.87 95.06 152.37 94.91
  Q 152.72 94.81 153.04 94.89"
/>
<path stroke="#858585" vector-effect="non-scaling-stroke" d="
  M 153.04 94.89
  L 155.69 96.43"
/>
<path stroke="#bfb8af" vector-effect="non-scaling-stroke" d="
  M 155.69 96.43
  Q 156.33 97.46 156.21 98.25
  C 155.50 103.08 157.11 107.03 157.10 111.35
  C 157.10 115.60 156.39 121.79 158.07 125.69"
/>
<path stroke="#e8e6e0" vector-effect="non-scaling-stroke" d="
  M 158.07 125.69
  L 156.57 129.95
  Q 156.40 130.43 155.95 130.68
  Q 152.68 132.50 148.98 132.40
  A 0.63 0.63 0.0 0 1 148.38 131.68
  L 149.99 120.44
  A 0.53 0.52 9.1 0 0 149.56 119.85
  Q 149.00 119.75 148.80 120.56
  Q 147.76 124.66 147.33 128.90
  C 147.09 131.17 146.08 132.55 145.02 134.46
  Q 144.75 134.94 144.21 135.01
  L 139.53 135.60
  Q 137.72 135.83 137.58 134.01
  C 137.45 132.28 137.42 130.60 137.88 128.86
  Q 139.46 122.90 141.19 116.98
  Q 141.58 115.61 140.52 115.63
  A 0.61 0.61 0.0 0 0 139.94 116.06
  C 137.48 123.78 134.93 131.58 135.68 139.93
  C 135.93 142.82 137.18 145.91 137.64 149.08
  Q 137.99 151.46 139.02 152.61
  C 141.70 155.59 146.77 157.94 149.94 159.00"
/>
<path stroke="#858585" vector-effect="non-scaling-stroke" d="
  M 254.32 117.45
  Q 254.13 118.34 253.86 118.24"
/>
<path stroke="#bfb8af" vector-effect="non-scaling-stroke" d="
  M 253.86 118.24
  L 251.82 124.06"
/>
<path stroke="#e8e6e0" vector-effect="non-scaling-stroke" d="
  M 251.82 124.06
  L 249.99 126.92"
/>
<path stroke="#b3aca4" vector-effect="non-scaling-stroke" d="
  M 249.99 126.92
  Q 249.51 127.95 250.25 128.11"
/>
<path stroke="#e8e6e0" vector-effect="non-scaling-stroke" d="
  M 250.25 128.11
  Q 252.48 134.19 258.49 136.44
  Q 261.50 137.57 271.98 142.36
  C 276.51 144.44 282.19 141.42 286.53 139.87
  C 291.06 138.25 293.30 135.92 293.13 131.10
  A 0.31 0.27 -33.6 0 1 293.18 130.91
  L 295.44 127.29
  Q 295.70 126.88 295.53 126.43
  Q 295.32 125.89 294.73 125.62
  Q 294.34 125.44 294.38 125.02
  Q 294.48 123.93 293.77 123.55"
/>
<path stroke="#9fa09d" vector-effect="non-scaling-stroke" d="
  M 293.77 123.55
  L 293.01 122.51"
/>
<path stroke="#858585" vector-effect="non-scaling-stroke" d="
  M 293.01 122.51
  Q 292.43 121.62 292.65 120.99"
/>
<path stroke="#ceccc5" vector-effect="non-scaling-stroke" d="
  M 292.65 120.99
  L 271.36 111.63
  A 5.04 5.04 0.0 0 0 267.65 111.50
  Q 261.63 113.66 254.86 116.10
  Q 254.15 116.35 254.32 117.45"
/>
<path stroke="#54524a" vector-effect="non-scaling-stroke" d="
  M 292.65 120.99
  Q 285.62 123.48 279.22 125.78
  C 277.31 126.47 275.94 126.06 274.23 125.25
  Q 265.04 120.87 255.60 117.05
  Q 255.21 116.89 254.91 116.99
  Q 254.50 117.12 254.32 117.45"
/>
<path stroke="#242622" vector-effect="non-scaling-stroke" d="
  M 293.01 122.51
  L 292.84 124.25
  Q 292.79 124.71 292.33 124.68
  Q 287.88 124.38 282.85 127.58
  Q 281.95 128.15 278.31 128.69
  Q 277.81 128.77 277.45 129.11
  Q 275.36 131.10 277.28 133.53"
/>
<path stroke="#6d6c66" vector-effect="non-scaling-stroke" d="
  M 277.28 133.53
  Q 275.27 133.80 273.92 132.54
  A 0.74 0.73 37.2 0 1 273.79 131.62
  L 274.89 129.82
  Q 275.15 129.40 274.69 129.22
  Q 274.04 128.97 273.23 129.15"
/>
<path stroke="#2e2820" vector-effect="non-scaling-stroke" d="
  M 273.23 129.15
  Q 272.66 128.37 271.84 128.40
  Q 271.37 128.42 271.34 128.89
  L 271.20 131.34"
/>
<path stroke="#6d6c66" vector-effect="non-scaling-stroke" d="
  M 271.20 131.34
  L 267.30 129.61
  Q 266.77 129.38 267.09 128.91
  L 268.03 127.54
  A 0.67 0.66 26.4 0 0 267.69 126.54
  L 265.72 125.86
  A 0.34 0.34 0.0 0 0 265.42 126.47
  L 266.31 127.07
  Q 266.67 127.31 266.45 127.68
  C 265.37 129.50 262.21 127.42 260.89 126.77
  Q 260.21 126.43 260.73 125.89
  L 261.83 124.76
  A 0.53 0.52 32.0 0 0 261.63 123.91
  L 259.77 123.22
  Q 259.05 122.95 259.11 123.72
  Q 259.14 124.10 259.67 124.23
  Q 260.16 124.35 260.08 124.85
  L 259.89 126.04
  Q 259.83 126.41 259.99 126.74
  Q 260.31 127.37 259.81 127.96
  C 258.89 129.04 258.09 130.25 256.49 130.27
  A 0.39 0.39 0.0 0 1 256.29 129.54
  Q 258.14 128.44 258.86 126.41
  Q 259.03 125.94 258.60 125.69
  L 254.42 123.29"
/>
<path stroke="#453e35" vector-effect="non-scaling-stroke" d="
  M 254.42 123.29
  Q 256.55 121.09 254.22 119.89
  Q 253.78 119.66 253.81 119.16
  L 253.86 118.24"
/>
<path stroke="#a89e90" vector-effect="non-scaling-stroke" d="
  M 254.42 123.29
  L 252.53 126.03
  A 0.37 0.37 0.0 0 1 251.85 125.82
  L 251.82 124.06"
/>
<path stroke="#91887b" vector-effect="non-scaling-stroke" d="
  M 271.20 131.34
  Q 271.09 133.36 268.86 134.94
  Q 268.32 135.32 268.92 135.62
  L 269.38 135.85
  A 0.36 0.35 -50.4 0 0 269.76 135.81
  L 271.76 134.22
  Q 272.19 133.87 272.31 133.32
  L 273.23 129.15"
/>
<path stroke="#9c9285" vector-effect="non-scaling-stroke" d="
  M 250.25 128.11
  Q 250.80 127.90 250.75 127.50
  Q 250.69 126.86 249.99 126.92"
/>
<path stroke="#87867e" vector-effect="non-scaling-stroke" d="
  M 293.77 123.55
  L 292.73 127.06
  Q 292.58 127.57 292.08 127.76
  L 277.28 133.53"
/>
<path stroke="#e8e6e0" vector-effect="non-scaling-stroke" d="
  M 59.0458 136.4503
  A 0.31 0.31 0.0 0 0 58.7462 136.1302
  L 58.5064 136.1223
  A 0.31 0.31 0.0 0 0 58.1863 136.4218
  L 57.4542 158.4897
  A 0.31 0.31 0.0 0 0 57.7538 158.8098
  L 57.9936 158.8177
  A 0.31 0.31 0.0 0 0 58.3137 158.5182
  L 59.0458 136.4503"
/>
<path stroke="#a8a29a" vector-effect="non-scaling-stroke" d="
  M 62.35 0.00
  L 69.29 0.27"
/>
<path stroke="#5c4e3f" vector-effect="non-scaling-stroke" d="
  M 69.29 0.27
  C 71.72 0.50 71.91 2.39 70.68 4.12
  Q 67.09 9.15 66.62 12.00
  Q 65.53 18.54 64.06 24.98
  Q 62.88 30.16 58.37 30.44
  Q 57.59 30.49 57.64 31.27
  Q 57.69 31.94 56.65 31.63
  Q 56.10 31.47 55.94 32.02
  L 55.31 34.09
  Q 55.16 34.59 55.63 34.80
  Q 59.07 36.36 62.80 36.92
  C 65.24 37.29 67.24 37.98 69.51 38.48
  A 0.57 0.57 0.0 0 1 69.47 39.60
  Q 66.12 40.08 62.53 39.98
  C 61.06 39.94 59.70 38.99 57.98 39.14
  Q 57.27 39.21 57.94 39.46
  Q 62.44 41.15 67.23 41.08
  Q 68.03 41.07 68.34 41.82
  A 0.59 0.58 -9.6 0 1 67.76 42.63
  L 62.25 42.32
  Q 61.63 42.28 61.47 42.89
  Q 60.74 45.78 61.34 47.92"
/>
<path stroke="#817868" vector-effect="non-scaling-stroke" d="
  M 47.62 126.72
  L 46.72 126.52"
/>
<path stroke="#dcd4c8" vector-effect="non-scaling-stroke" d="
  M 100.02 0.00
  Q 93.95 0.93 87.73 0.33"
/>
<path stroke="#b3aca4" vector-effect="non-scaling-stroke" d="
  M 87.73 0.33
  L 69.29 0.27"
/>
<path stroke="#c5bba9" vector-effect="non-scaling-stroke" d="
  M 94.99 41.58
  Q 96.06 40.22 98.63 39.49
  A 0.82 0.82 0.0 0 0 98.44 37.88
  L 95.27 37.72"
/>
<path stroke="#9c8d78" vector-effect="non-scaling-stroke" d="
  M 95.27 37.72
  L 98.93 36.86
  Q 99.51 36.72 99.37 36.14
  L 99.29 35.83
  A 0.38 0.37 64.4 0 0 98.70 35.62
  Q 97.03 36.90 95.26 37.00"
/>
<path stroke="#c5bba9" vector-effect="non-scaling-stroke" d="
  M 95.26 37.00
  L 96.90 36.04
  A 0.42 0.41 -43.7 0 0 96.92 35.34
  L 94.88 33.99
  A 0.58 0.57 -72.8 0 0 93.99 34.46
  Q 93.97 35.42 92.99 35.37
  Q 92.63 35.36 92.62 34.99
  Q 92.62 34.81 92.62 34.64
  Q 92.62 34.10 92.11 33.94
  Q 90.68 33.50 89.89 34.66
  Q 89.53 35.19 88.96 34.92
  Q 87.52 34.27 87.13 35.70
  A 0.92 0.91 -7.2 0 1 86.68 36.27
  Q 84.36 37.51 81.63 37.72"
/>
<path stroke="#aba18d" vector-effect="non-scaling-stroke" d="
  M 81.63 37.72
  L 84.28 36.65
  A 1.00 0.97 87.3 0 0 84.87 35.98
  Q 85.81 32.29 85.62 28.51
  Q 85.60 28.01 85.84 27.57
  C 87.40 24.75 86.13 22.08 86.10 19.81
  C 86.06 16.48 86.74 12.13 85.94 8.97
  Q 85.53 7.36 84.99 5.43
  A 1.21 1.21 0.0 0 0 84.02 4.55
  Q 81.83 4.17 79.62 3.12
  Q 78.57 2.63 78.98 1.55"
/>
<path stroke="#90816c" vector-effect="non-scaling-stroke" d="
  M 78.98 1.55
  L 83.47 1.31"
/>
<path stroke="#c5bba9" vector-effect="non-scaling-stroke" d="
  M 83.47 1.31
  Q 81.48 1.32 81.48 2.66
  A 1.00 1.00 0.0 0 0 82.52 3.66
  Q 85.81 3.51 89.05 3.74
  C 90.80 3.87 92.12 3.25 93.69 2.72
  A 0.91 0.91 0.0 0 0 93.39 0.94
  L 87.25 0.98"
/>
<path stroke="#90816c" vector-effect="non-scaling-stroke" d="
  M 87.25 0.98
  Q 87.70 0.63 87.73 0.33"
/>
<path stroke="#9c9285" vector-effect="non-scaling-stroke" d="
  M 87.25 0.98
  L 83.47 1.31"
/>
<path stroke="#827969" vector-effect="non-scaling-stroke" d="
  M 78.98 1.55
  Q 77.89 1.35 77.63 1.61"
/>
<path stroke="#736454" vector-effect="non-scaling-stroke" d="
  M 77.63 1.61
  Q 75.87 1.05 74.70 1.57
  Q 74.16 1.82 74.47 2.32
  C 75.17 3.45 75.48 4.35 75.02 5.73
  Q 73.37 10.70 73.42 15.89
  Q 73.45 18.57 73.05 21.06
  C 72.02 27.47 74.05 32.73 67.51 36.73
  Q 67.32 36.85 67.50 36.97
  L 69.08 38.06
  A 0.40 0.34 -23.7 0 0 69.29 38.12
  Q 72.47 38.15 73.84 40.88
  Q 73.91 41.02 73.76 41.06
  Q 73.62 41.09 73.44 41.10
  A 0.08 0.07 -45.1 0 0 73.44 41.25
  L 82.03 41.83"
/>
<path stroke="#827969" vector-effect="non-scaling-stroke" d="
  M 82.03 41.83
  Q 83.08 42.36 82.16 43.46"
/>
<path stroke="#8e8575" vector-effect="non-scaling-stroke" d="
  M 77.63 1.61
  Q 76.59 1.77 76.24 2.17
  Q 75.85 2.61 76.36 2.90
  L 80.22 5.12
  A 1.06 1.04 -82.7 0 1 80.72 5.78
  Q 82.64 13.08 81.99 20.51
  C 81.60 24.90 81.76 28.46 81.66 32.52
  Q 81.60 34.96 80.46 36.09
  Q 78.80 37.74 76.13 37.30
  Q 75.62 37.22 75.62 37.74
  L 75.62 38.06
  Q 75.61 38.52 76.07 38.55
  L 80.71 38.85"
/>
<path stroke="#a89e90" vector-effect="non-scaling-stroke" d="
  M 80.71 38.85
  Q 88.07 38.78 95.26 37.00"
/>
<path stroke="#a89e90" vector-effect="non-scaling-stroke" d="
  M 95.27 37.72
  Q 92.91 38.53 90.44 38.77
  C 86.48 39.17 83.41 40.47 79.13 40.35
  Q 78.71 40.34 78.67 40.71
  Q 78.63 41.06 78.98 41.10
  L 81.99 41.43"
/>
<path stroke="#8e8575" vector-effect="non-scaling-stroke" d="
  M 81.99 41.43
  Q 82.01 41.63 82.03 41.83"
/>
<path stroke="#b7b3a6" vector-effect="non-scaling-stroke" d="
  M 81.63 37.72
  Q 80.47 38.10 80.71 38.85"
/>
<path stroke="#b7b3a6" vector-effect="non-scaling-stroke" d="
  M 86.96 42.62
  Q 85.14 41.47 81.99 41.43"
/>
<path stroke="#776f60" vector-effect="non-scaling-stroke" d="
  M 86.36 51.48
  L 86.14 50.49
  Q 86.12 50.37 85.99 50.37
  Q 85.85 50.37 85.69 50.35
  Q 85.44 50.33 85.47 50.58
  Q 86.18 57.74 84.47 64.47"
/>
<path stroke="#b7b3a6" vector-effect="non-scaling-stroke" d="
  M 84.47 64.47
  Q 84.18 64.29 83.92 64.28
  Q 83.65 64.26 83.64 64.27
  Q 83.58 64.41 83.40 64.47"
/>
<path stroke="#776f60" vector-effect="non-scaling-stroke" d="
  M 83.40 64.47
  L 84.31 44.57
  A 0.47 0.44 29.0 0 0 84.21 44.26
  Q 83.49 43.33 83.14 44.80"
/>
<path stroke="#91887b" vector-effect="non-scaling-stroke" d="
  M 83.40 64.47
  C 83.35 73.10 82.23 81.74 82.27 90.18
  Q 82.30 96.86 81.97 103.54
  C 81.58 111.76 81.69 118.85 81.68 126.58
  Q 81.68 127.14 81.13 127.19
  L 80.45 127.25"
/>
<path stroke="#91887b" vector-effect="non-scaling-stroke" d="
  M 83.43 111.86
  L 83.19 111.79
  Q 82.86 111.71 82.88 111.37
  L 84.47 64.47"
/>
<path stroke="#78766b" vector-effect="non-scaling-stroke" d="
  M 208.32 83.90
  Q 203.74 85.67 198.42 86.07"
/>
<path stroke="#5e5c53" vector-effect="non-scaling-stroke" d="
  M 198.42 86.07
  Q 193.98 84.98 189.48 85.61
  Q 188.92 85.69 188.89 86.27
  Q 188.78 88.41 186.15 88.78"
/>
<path stroke="#78766b" vector-effect="non-scaling-stroke" d="
  M 186.15 88.78
  L 177.24 90.33"
/>
<path stroke="#5e5c53" vector-effect="non-scaling-stroke" d="
  M 177.24 90.33
  L 143.76 70.52"
/>
<path stroke="#242622" vector-effect="non-scaling-stroke" d="
  M 177.24 90.33
  Q 176.93 98.85 176.06 108.24
  Q 176.05 108.40 175.66 108.62"
/>
<path stroke="#858585" vector-effect="non-scaling-stroke" d="
  M 175.66 108.62
  L 170.80 105.78
  Q 170.40 105.55 170.41 105.08
  Q 170.46 101.97 172.95 100.20
  Q 173.60 99.74 172.83 99.56
  L 171.44 99.24"
/>
<path stroke="#453e35" vector-effect="non-scaling-stroke" d="
  M 171.44 99.24
  Q 171.16 97.73 167.88 97.10
  Q 167.37 97.01 167.07 97.43
  L 165.52 99.65
  Q 165.18 100.13 165.47 100.64
  Q 166.24 102.04 165.02 102.25"
/>
<path stroke="#858585" vector-effect="non-scaling-stroke" d="
  M 165.02 102.25
  Q 161.84 101.21 162.71 97.88"
/>
<path stroke="#453e35" vector-effect="non-scaling-stroke" d="
  M 162.71 97.88
  L 164.72 96.04
  A 1.05 1.04 -51.8 0 0 164.52 94.35
  L 158.27 90.95
  Q 157.84 90.72 157.56 91.12
  Q 155.90 93.50 155.69 96.43"
/>
<path stroke="#54524a" vector-effect="non-scaling-stroke" d="
  M 153.04 94.89
  Q 152.71 93.99 153.13 92.70"
/>
<path stroke="#453e35" vector-effect="non-scaling-stroke" d="
  M 153.13 92.70
  Q 153.23 90.92 155.29 90.50
  A 0.67 0.67 0.0 0 0 155.51 89.27
  L 148.71 85.10
  A 0.83 0.83 0.0 0 0 147.67 85.25
  Q 146.02 87.07 146.26 89.53
  Q 146.31 89.98 145.93 90.23
  Q 145.70 90.38 145.52 90.32"
/>
<path stroke="#453e35" vector-effect="non-scaling-stroke" d="
  M 143.57 88.19
  L 144.29 84.91
  Q 144.40 84.43 144.88 84.33
  L 145.80 84.14
  A 0.44 0.44 0.0 0 0 145.94 83.33
  Q 142.57 81.32 142.61 78.06"
/>
<path stroke="#5f584d" vector-effect="non-scaling-stroke" d="
  M 210.17 98.53
  Q 209.08 101.19 207.53 102.64"
/>
<path stroke="#9fa09d" vector-effect="non-scaling-stroke" d="
  M 207.53 102.64
  Q 202.39 102.83 199.36 104.47"
/>
<path stroke="#6e6d62" vector-effect="non-scaling-stroke" d="
  M 199.36 104.47
  Q 198.50 105.13 198.05 104.49"
/>
<path stroke="#9fa09d" vector-effect="non-scaling-stroke" d="
  M 198.05 104.49
  L 187.92 106.67"
/>
<path stroke="#87867e" vector-effect="non-scaling-stroke" d="
  M 187.92 106.67
  Q 186.94 107.31 186.43 106.96"
/>
<path stroke="#9fa09d" vector-effect="non-scaling-stroke" d="
  M 186.43 106.96
  L 178.73 108.62"
/>
<path stroke="#87867e" vector-effect="non-scaling-stroke" d="
  M 178.73 108.62
  L 177.58 108.91"
/>
<path stroke="#9fa09d" vector-effect="non-scaling-stroke" d="
  M 177.58 108.91
  Q 176.61 109.01 175.66 108.62"
/>
<path stroke="#242622" vector-effect="non-scaling-stroke" d="
  M 186.15 88.78
  Q 186.62 90.02 188.01 91.04
  C 190.44 92.85 195.08 91.54 197.51 90.27
  A 0.98 0.96 -10.9 0 0 198.02 89.53
  L 198.42 86.07"
/>
<path stroke="#8e8575" vector-effect="non-scaling-stroke" d="
  M 153.13 92.70
  Q 152.71 91.89 151.43 92.91
  A 0.68 0.68 0.0 0 1 150.55 92.88
  L 148.00 90.58
  Q 147.71 90.32 147.32 90.32
  Q 146.69 90.32 146.08 90.71"
/>
<path stroke="#bfb8af" vector-effect="non-scaling-stroke" d="
  M 162.71 97.88
  Q 160.67 102.17 160.00 107.20
  C 159.87 108.16 159.53 108.61 158.88 109.24
  A 1.20 1.20 0.0 0 0 158.53 110.11
  L 158.66 125.66"
/>
<path stroke="#a89e90" vector-effect="non-scaling-stroke" d="
  M 158.66 125.66
  L 158.07 125.69"
/>
<path stroke="#bfb8af" vector-effect="non-scaling-stroke" d="
  M 171.44 99.24
  Q 166.59 112.66 165.59 128.45"
/>
<path stroke="#a89e90" vector-effect="non-scaling-stroke" d="
  M 165.59 128.45
  Q 165.14 127.28 165.17 131.65
  A 0.53 0.53 0.0 0 1 164.25 132.00
  Q 163.49 131.14 163.81 129.31"
/>
<path stroke="#bfb8af" vector-effect="non-scaling-stroke" d="
  M 163.81 129.31
  Q 164.61 123.85 165.18 118.37
  Q 165.38 116.51 165.20 111.14
  Q 165.08 107.40 165.95 103.67
  A 0.91 0.89 27.5 0 0 165.66 102.79
  L 165.02 102.25"
/>
<path stroke="#e8e6e0" vector-effect="non-scaling-stroke" d="
  M 163.81 129.31
  L 158.81 130.21
  Q 158.26 130.30 158.14 129.76
  Q 157.67 127.78 158.66 125.66"
/>
<path stroke="#a89e90" vector-effect="non-scaling-stroke" d="
  M 207.38 123.01
  Q 207.14 122.84 206.61 122.95"
/>
<path stroke="#bfb8af" vector-effect="non-scaling-stroke" d="
  M 206.61 122.95
  C 204.49 117.22 211.13 108.09 207.53 102.64"
/>
<path stroke="#e8e6e0" vector-effect="non-scaling-stroke" d="
  M 177.58 108.91
  Q 175.54 118.09 175.87 127.50
  Q 175.97 130.33 173.50 130.20
  Q 171.56 130.10 165.59 128.45"
/>
<path stroke="#e8e6e0" vector-effect="non-scaling-stroke" d="
  M 206.61 122.95
  Q 206.09 130.18 206.09 137.51
  Q 206.09 140.04 202.78 148.06
  A 0.53 0.53 0.0 0 1 202.08 148.35
  C 199.05 147.12 197.91 145.30 197.90 141.82
  C 197.88 137.89 196.65 134.40 196.95 130.57
  Q 197.39 124.91 197.31 119.19
  Q 197.30 118.61 196.84 118.96
  Q 196.19 119.44 196.26 120.39
  Q 196.97 131.31 193.38 140.97
  A 0.68 0.67 -70.6 0 1 192.55 141.37
  L 188.55 140.15
  A 0.99 0.98 7.9 0 1 187.86 139.24
  C 187.60 132.33 186.30 125.40 187.05 118.52
  Q 187.69 112.70 187.92 106.67"
/>
<path stroke="#ceccc5" vector-effect="non-scaling-stroke" d="
  M 198.05 104.49
  Q 197.07 110.10 196.51 115.02
  Q 196.38 116.15 196.93 116.70
  A 0.60 0.60 0.0 0 0 197.95 116.34
  L 199.36 104.47"
/>
<path stroke="#e8e6e0" vector-effect="non-scaling-stroke" d="
  M 178.73 108.62
  Q 178.53 111.05 177.95 113.44
  C 176.46 119.63 176.74 125.63 178.44 131.73
  C 179.10 134.11 181.07 135.55 183.41 134.60
  A 0.99 0.98 -7.8 0 0 184.02 133.81
  C 184.41 130.32 185.63 127.08 185.79 123.79
  Q 186.20 115.47 186.43 106.96"
/>
<path stroke="#6d6c66" vector-effect="non-scaling-stroke" d="
  M 263.44 131.75
  L 262.47 132.34
  A 0.42 0.41 17.0 0 0 262.86 133.07
  Q 264.75 132.22 266.13 130.64
  A 0.45 0.45 0.0 0 0 265.75 129.90
  Q 264.63 130.00 264.16 130.96
  Q 263.91 131.46 263.44 131.75"
/>
</g>
<path fill="#ffffff" d="
  M 0.00 0.00
  L 48.33 0.00
  Q 46.81 14.90 47.19 30.13
  Q 47.21 30.77 47.76 32.56
  Q 48.03 33.42 47.17 33.16
  L 45.77 32.73
  Q 45.17 32.55 45.15 31.92
  L 45.12 30.68
  Q 45.09 29.55 44.66 30.59
  C 41.25 39.03 54.25 41.45 59.70 42.25
  A 0.70 0.70 0.0 0 1 60.29 43.05
  C 58.27 56.37 54.69 71.03 52.77 82.59
  Q 49.31 103.33 46.34 124.15
  C 46.21 125.04 46.51 125.70 46.72 126.52
  L 48.37 158.22
  A 0.63 0.63 0.0 0 0 49.52 158.54
  Q 49.87 158.04 49.78 157.24
  Q 48.23 142.00 47.62 126.72
  Q 51.11 103.17 55.09 79.73
  C 56.70 70.31 59.59 58.71 61.34 47.92
  Q 62.26 49.60 62.19 51.87
  Q 61.52 73.84 59.71 95.74
  C 58.78 106.92 59.15 117.75 59.12 128.85
  Q 59.12 128.88 59.16 128.88
  Q 59.17 128.88 59.19 128.88
  Q 59.24 128.88 59.24 128.83
  Q 59.37 119.72 60.08 110.66
  C 61.22 96.18 61.93 85.25 62.79 72.55
  C 63.32 64.57 62.99 53.68 64.20 44.34
  Q 64.35 43.14 65.55 43.16
  L 82.16 43.46
  Q 83.09 43.06 83.14 44.80
  Q 80.59 85.10 79.93 125.50
  Q 79.93 126.00 80.45 127.25
  C 79.54 137.71 79.98 146.50 77.38 157.99
  A 0.54 0.53 2.2 0 0 77.98 158.63
  L 80.17 158.32
  Q 80.60 158.25 80.64 157.81
  L 84.04 115.19
  Q 84.08 114.68 83.73 114.30
  Q 81.91 112.32 83.43 111.86
  Q 84.68 112.17 84.73 110.75
  Q 85.66 81.10 86.36 51.48
  L 86.96 42.62
  Q 91.25 43.01 94.99 41.58
  Q 97.89 40.94 100.40 39.84
  C 103.61 38.43 104.54 35.54 109.26 36.43
  A 0.74 0.73 -77.9 0 0 110.12 35.87
  L 110.29 35.17
  A 0.70 0.70 0.0 0 0 109.65 34.31
  L 105.50 34.02
  Q 104.84 33.97 104.66 33.34
  L 103.93 30.74
  Q 103.63 29.67 103.41 30.76
  Q 103.29 31.39 103.06 32.49
  Q 102.81 33.72 101.68 33.61
  Q 101.12 33.56 101.24 33.02
  C 101.57 31.59 101.91 30.25 101.95 28.80
  Q 102.32 14.39 102.34 0.00
  L 318.00 0.00
  L 318.00 159.00
  L 202.88 159.00
  C 205.12 158.73 205.90 154.39 206.02 152.75
  Q 207.07 137.83 207.38 123.01
  Q 210.32 110.90 210.17 98.53
  Q 211.15 95.63 210.55 92.94
  C 209.81 89.64 209.56 87.78 209.25 85.03
  A 1.38 1.31 19.9 0 0 208.83 84.19
  Q 208.52 83.90 208.32 83.90
  Q 207.96 83.17 207.41 82.85
  Q 192.75 74.38 178.15 65.78
  Q 175.53 64.24 172.74 64.72
  Q 161.01 66.76 143.76 70.52
  L 142.61 78.06
  Q 142.74 79.36 142.00 80.51
  A 1.59 1.58 -83.5 0 1 141.25 81.11
  Q 140.02 81.56 139.86 82.29
  Q 136.53 97.77 140.32 113.24
  A 0.62 0.62 0.0 0 0 141.47 113.38
  Q 141.79 112.76 141.81 111.86
  Q 141.81 111.29 141.51 110.30
  Q 138.36 100.16 142.21 89.40
  Q 142.65 88.19 143.57 88.19
  Q 144.29 89.48 145.52 90.32
  L 146.08 90.71
  Q 146.73 91.59 146.72 92.25
  C 146.69 97.13 148.27 102.01 148.47 106.28
  Q 148.72 111.87 148.84 117.92
  A 0.81 0.81 0.0 0 0 150.41 118.17
  Q 150.46 118.03 150.51 117.84
  Q 150.60 117.51 150.55 117.13
  Q 148.98 106.22 151.74 95.57
  Q 151.87 95.06 152.37 94.91
  Q 152.72 94.81 153.04 94.89
  L 155.69 96.43
  Q 156.33 97.46 156.21 98.25
  C 155.50 103.08 157.11 107.03 157.10 111.35
  C 157.10 115.60 156.39 121.79 158.07 125.69
  L 156.57 129.95
  Q 156.40 130.43 155.95 130.68
  Q 152.68 132.50 148.98 132.40
  A 0.63 0.63 0.0 0 1 148.38 131.68
  L 149.99 120.44
  A 0.53 0.52 9.1 0 0 149.56 119.85
  Q 149.00 119.75 148.80 120.56
  Q 147.76 124.66 147.33 128.90
  C 147.09 131.17 146.08 132.55 145.02 134.46
  Q 144.75 134.94 144.21 135.01
  L 139.53 135.60
  Q 137.72 135.83 137.58 134.01
  C 137.45 132.28 137.42 130.60 137.88 128.86
  Q 139.46 122.90 141.19 116.98
  Q 141.58 115.61 140.52 115.63
  A 0.61 0.61 0.0 0 0 139.94 116.06
  C 137.48 123.78 134.93 131.58 135.68 139.93
  C 135.93 142.82 137.18 145.91 137.64 149.08
  Q 137.99 151.46 139.02 152.61
  C 141.70 155.59 146.77 157.94 149.94 159.00
  L 0.00 159.00
  L 0.00 0.00
  Z
  M 254.32 117.45
  Q 254.13 118.34 253.86 118.24
  L 251.82 124.06
  L 249.99 126.92
  Q 249.51 127.95 250.25 128.11
  Q 252.48 134.19 258.49 136.44
  Q 261.50 137.57 271.98 142.36
  C 276.51 144.44 282.19 141.42 286.53 139.87
  C 291.06 138.25 293.30 135.92 293.13 131.10
  A 0.31 0.27 -33.6 0 1 293.18 130.91
  L 295.44 127.29
  Q 295.70 126.88 295.53 126.43
  Q 295.32 125.89 294.73 125.62
  Q 294.34 125.44 294.38 125.02
  Q 294.48 123.93 293.77 123.55
  L 293.01 122.51
  Q 292.43 121.62 292.65 120.99
  L 271.36 111.63
  A 5.04 5.04 0.0 0 0 267.65 111.50
  Q 261.63 113.66 254.86 116.10
  Q 254.15 116.35 254.32 117.45
  Z
  M 59.0458 136.4503
  A 0.31 0.31 0.0 0 0 58.7462 136.1302
  L 58.5064 136.1223
  A 0.31 0.31 0.0 0 0 58.1863 136.4218
  L 57.4542 158.4897
  A 0.31 0.31 0.0 0 0 57.7538 158.8098
  L 57.9936 158.8177
  A 0.31 0.31 0.0 0 0 58.3137 158.5182
  L 59.0458 136.4503
  Z"
/>
<path fill="#514435" d="
  M 48.33 0.00
  L 62.35 0.00
  L 69.29 0.27
  C 71.72 0.50 71.91 2.39 70.68 4.12
  Q 67.09 9.15 66.62 12.00
  Q 65.53 18.54 64.06 24.98
  Q 62.88 30.16 58.37 30.44
  Q 57.59 30.49 57.64 31.27
  Q 57.69 31.94 56.65 31.63
  Q 56.10 31.47 55.94 32.02
  L 55.31 34.09
  Q 55.16 34.59 55.63 34.80
  Q 59.07 36.36 62.80 36.92
  C 65.24 37.29 67.24 37.98 69.51 38.48
  A 0.57 0.57 0.0 0 1 69.47 39.60
  Q 66.12 40.08 62.53 39.98
  C 61.06 39.94 59.70 38.99 57.98 39.14
  Q 57.27 39.21 57.94 39.46
  Q 62.44 41.15 67.23 41.08
  Q 68.03 41.07 68.34 41.82
  A 0.59 0.58 -9.6 0 1 67.76 42.63
  L 62.25 42.32
  Q 61.63 42.28 61.47 42.89
  Q 60.74 45.78 61.34 47.92
  C 59.59 58.71 56.70 70.31 55.09 79.73
  Q 51.11 103.17 47.62 126.72
  L 46.72 126.52
  C 46.51 125.70 46.21 125.04 46.34 124.15
  Q 49.31 103.33 52.77 82.59
  C 54.69 71.03 58.27 56.37 60.29 43.05
  A 0.70 0.70 0.0 0 0 59.70 42.25
  C 54.25 41.45 41.25 39.03 44.66 30.59
  Q 45.09 29.55 45.12 30.68
  L 45.15 31.92
  Q 45.17 32.55 45.77 32.73
  L 47.17 33.16
  Q 48.03 33.42 47.76 32.56
  Q 47.21 30.77 47.19 30.13
  Q 46.81 14.90 48.33 0.00
  Z"
/>
<path fill="#ffffff" d="
  M 62.35 0.00
  L 100.02 0.00
  Q 93.95 0.93 87.73 0.33
  L 69.29 0.27
  L 62.35 0.00
  Z"
/>
<path fill="#b9a990" d="
  M 100.02 0.00
  L 102.34 0.00
  Q 102.32 14.39 101.95 28.80
  C 101.91 30.25 101.57 31.59 101.24 33.02
  Q 101.12 33.56 101.68 33.61
  Q 102.81 33.72 103.06 32.49
  Q 103.29 31.39 103.41 30.76
  Q 103.63 29.67 103.93 30.74
  L 104.66 33.34
  Q 104.84 33.97 105.50 34.02
  L 109.65 34.31
  A 0.70 0.70 0.0 0 1 110.29 35.17
  L 110.12 35.87
  A 0.74 0.73 -77.9 0 1 109.26 36.43
  C 104.54 35.54 103.61 38.43 100.40 39.84
  Q 97.89 40.94 94.99 41.58
  Q 96.06 40.22 98.63 39.49
  A 0.82 0.82 0.0 0 0 98.44 37.88
  L 95.27 37.72
  L 98.93 36.86
  Q 99.51 36.72 99.37 36.14
  L 99.29 35.83
  A 0.38 0.37 64.4 0 0 98.70 35.62
  Q 97.03 36.90 95.26 37.00
  L 96.90 36.04
  A 0.42 0.41 -43.7 0 0 96.92 35.34
  L 94.88 33.99
  A 0.58 0.57 -72.8 0 0 93.99 34.46
  Q 93.97 35.42 92.99 35.37
  Q 92.63 35.36 92.62 34.99
  Q 92.62 34.81 92.62 34.64
  Q 92.62 34.10 92.11 33.94
  Q 90.68 33.50 89.89 34.66
  Q 89.53 35.19 88.96 34.92
  Q 87.52 34.27 87.13 35.70
  A 0.92 0.91 -7.2 0 1 86.68 36.27
  Q 84.36 37.51 81.63 37.72
  L 84.28 36.65
  A 1.00 0.97 87.3 0 0 84.87 35.98
  Q 85.81 32.29 85.62 28.51
  Q 85.60 28.01 85.84 27.57
  C 87.40 24.75 86.13 22.08 86.10 19.81
  C 86.06 16.48 86.74 12.13 85.94 8.97
  Q 85.53 7.36 84.99 5.43
  A 1.21 1.21 0.0 0 0 84.02 4.55
  Q 81.83 4.17 79.62 3.12
  Q 78.57 2.63 78.98 1.55
  L 83.47 1.31
  Q 81.48 1.32 81.48 2.66
  A 1.00 1.00 0.0 0 0 82.52 3.66
  Q 85.81 3.51 89.05 3.74
  C 90.80 3.87 92.12 3.25 93.69 2.72
  A 0.91 0.91 0.0 0 0 93.39 0.94
  L 87.25 0.98
  Q 87.70 0.63 87.73 0.33
  Q 93.95 0.93 100.02 0.00
  Z"
/>
<path fill="#675848" d="
  M 69.29 0.27
  L 87.73 0.33
  Q 87.70 0.63 87.25 0.98
  L 83.47 1.31
  L 78.98 1.55
  Q 77.89 1.35 77.63 1.61
  Q 75.87 1.05 74.70 1.57
  Q 74.16 1.82 74.47 2.32
  C 75.17 3.45 75.48 4.35 75.02 5.73
  Q 73.37 10.70 73.42 15.89
  Q 73.45 18.57 73.05 21.06
  C 72.02 27.47 74.05 32.73 67.51 36.73
  Q 67.32 36.85 67.50 36.97
  L 69.08 38.06
  A 0.40 0.34 -23.7 0 0 69.29 38.12
  Q 72.47 38.15 73.84 40.88
  Q 73.91 41.02 73.76 41.06
  Q 73.62 41.09 73.44 41.10
  A 0.08 0.07 -45.1 0 0 73.44 41.25
  L 82.03 41.83
  Q 83.08 42.36 82.16 43.46
  L 65.55 43.16
  Q 64.35 43.14 64.20 44.34
  C 62.99 53.68 63.32 64.57 62.79 72.55
  C 61.93 85.25 61.22 96.18 60.08 110.66
  Q 59.37 119.72 59.24 128.83
  Q 59.24 128.88 59.19 128.88
  Q 59.17 128.88 59.16 128.88
  Q 59.12 128.88 59.12 128.85
  C 59.15 117.75 58.78 106.92 59.71 95.74
  Q 61.52 73.84 62.19 51.87
  Q 62.26 49.60 61.34 47.92
  Q 60.74 45.78 61.47 42.89
  Q 61.63 42.28 62.25 42.32
  L 67.76 42.63
  A 0.59 0.58 -9.6 0 0 68.34 41.82
  Q 68.03 41.07 67.23 41.08
  Q 62.44 41.15 57.94 39.46
  Q 57.27 39.21 57.98 39.14
  C 59.70 38.99 61.06 39.94 62.53 39.98
  Q 66.12 40.08 69.47 39.60
  A 0.57 0.57 0.0 0 0 69.51 38.48
  C 67.24 37.98 65.24 37.29 62.80 36.92
  Q 59.07 36.36 55.63 34.80
  Q 55.16 34.59 55.31 34.09
  L 55.94 32.02
  Q 56.10 31.47 56.65 31.63
  Q 57.69 31.94 57.64 31.27
  Q 57.59 30.49 58.37 30.44
  Q 62.88 30.16 64.06 24.98
  Q 65.53 18.54 66.62 12.00
  Q 67.09 9.15 70.68 4.12
  C 71.91 2.39 71.72 0.50 69.29 0.27
  Z"
/>
<path fill="#d0ccc1" d="
  M 87.25 0.98
  L 93.39 0.94
  A 0.91 0.91 0.0 0 1 93.69 2.72
  C 92.12 3.25 90.80 3.87 89.05 3.74
  Q 85.81 3.51 82.52 3.66
  A 1.00 1.00 0.0 0 1 81.48 2.66
  Q 81.48 1.32 83.47 1.31
  L 87.25 0.98
  Z"
/>
<path fill="#7f705f" d="
  M 77.63 1.61
  Q 76.59 1.77 76.24 2.17
  Q 75.85 2.61 76.36 2.90
  L 80.22 5.12
  A 1.06 1.04 -82.7 0 1 80.72 5.78
  Q 82.64 13.08 81.99 20.51
  C 81.60 24.90 81.76 28.46 81.66 32.52
  Q 81.60 34.96 80.46 36.09
  Q 78.80 37.74 76.13 37.30
  Q 75.62 37.22 75.62 37.74
  L 75.62 38.06
  Q 75.61 38.52 76.07 38.55
  L 80.71 38.85
  Q 88.07 38.78 95.26 37.00
  Q 97.03 36.90 98.70 35.62
  A 0.38 0.37 64.4 0 1 99.29 35.83
  L 99.37 36.14
  Q 99.51 36.72 98.93 36.86
  L 95.27 37.72
  Q 92.91 38.53 90.44 38.77
  C 86.48 39.17 83.41 40.47 79.13 40.35
  Q 78.71 40.34 78.67 40.71
  Q 78.63 41.06 78.98 41.10
  L 81.99 41.43
  Q 82.01 41.63 82.03 41.83
  L 73.44 41.25
  A 0.08 0.07 -45.1 0 1 73.44 41.10
  Q 73.62 41.09 73.76 41.06
  Q 73.91 41.02 73.84 40.88
  Q 72.47 38.15 69.29 38.12
  A 0.40 0.34 -23.7 0 1 69.08 38.06
  L 67.50 36.97
  Q 67.32 36.85 67.51 36.73
  C 74.05 32.73 72.02 27.47 73.05 21.06
  Q 73.45 18.57 73.42 15.89
  Q 73.37 10.70 75.02 5.73
  C 75.48 4.35 75.17 3.45 74.47 2.32
  Q 74.16 1.82 74.70 1.57
  Q 75.87 1.05 77.63 1.61
  Z"
/>
<path fill="#9d998a" d="
  M 77.63 1.61
  Q 77.89 1.35 78.98 1.55
  Q 78.57 2.63 79.62 3.12
  Q 81.83 4.17 84.02 4.55
  A 1.21 1.21 0.0 0 1 84.99 5.43
  Q 85.53 7.36 85.94 8.97
  C 86.74 12.13 86.06 16.48 86.10 19.81
  C 86.13 22.08 87.40 24.75 85.84 27.57
  Q 85.60 28.01 85.62 28.51
  Q 85.81 32.29 84.87 35.98
  A 1.00 0.97 87.3 0 1 84.28 36.65
  L 81.63 37.72
  Q 80.47 38.10 80.71 38.85
  L 76.07 38.55
  Q 75.61 38.52 75.62 38.06
  L 75.62 37.74
  Q 75.62 37.22 76.13 37.30
  Q 78.80 37.74 80.46 36.09
  Q 81.60 34.96 81.66 32.52
  C 81.76 28.46 81.60 24.90 81.99 20.51
  Q 82.64 13.08 80.72 5.78
  A 1.06 1.04 -82.7 0 0 80.22 5.12
  L 76.36 2.90
  Q 75.85 2.61 76.24 2.17
  Q 76.59 1.77 77.63 1.61
  Z"
/>
<path fill="#d0ccc1" d="
  M 95.26 37.00
  Q 88.07 38.78 80.71 38.85
  Q 80.47 38.10 81.63 37.72
  Q 84.36 37.51 86.68 36.27
  A 0.92 0.91 -7.2 0 0 87.13 35.70
  Q 87.52 34.27 88.96 34.92
  Q 89.53 35.19 89.89 34.66
  Q 90.68 33.50 92.11 33.94
  Q 92.62 34.10 92.62 34.64
  Q 92.62 34.81 92.62 34.99
  Q 92.63 35.36 92.99 35.37
  Q 93.97 35.42 93.99 34.46
  A 0.58 0.57 -72.8 0 1 94.88 33.99
  L 96.92 35.34
  A 0.42 0.41 -43.7 0 1 96.90 36.04
  L 95.26 37.00
  Z"
/>
<path fill="#d0ccc1" d="
  M 95.27 37.72
  L 98.44 37.88
  A 0.82 0.82 0.0 0 1 98.63 39.49
  Q 96.06 40.22 94.99 41.58
  Q 91.25 43.01 86.96 42.62
  Q 85.14 41.47 81.99 41.43
  L 78.98 41.10
  Q 78.63 41.06 78.67 40.71
  Q 78.71 40.34 79.13 40.35
  C 83.41 40.47 86.48 39.17 90.44 38.77
  Q 92.91 38.53 95.27 37.72
  Z"
/>
<path fill="#9d998a" d="
  M 81.99 41.43
  Q 85.14 41.47 86.96 42.62
  L 86.36 51.48
  L 86.14 50.49
  Q 86.12 50.37 85.99 50.37
  Q 85.85 50.37 85.69 50.35
  Q 85.44 50.33 85.47 50.58
  Q 86.18 57.74 84.47 64.47
  Q 84.18 64.29 83.92 64.28
  Q 83.65 64.26 83.64 64.27
  Q 83.58 64.41 83.40 64.47
  L 84.31 44.57
  A 0.47 0.44 29.0 0 0 84.21 44.26
  Q 83.49 43.33 83.14 44.80
  Q 83.09 43.06 82.16 43.46
  Q 83.08 42.36 82.03 41.83
  Q 82.01 41.63 81.99 41.43
  Z"
/>
<path fill="#514435" d="
  M 83.40 64.47
  C 83.35 73.10 82.23 81.74 82.27 90.18
  Q 82.30 96.86 81.97 103.54
  C 81.58 111.76 81.69 118.85 81.68 126.58
  Q 81.68 127.14 81.13 127.19
  L 80.45 127.25
  Q 79.93 126.00 79.93 125.50
  Q 80.59 85.10 83.14 44.80
  Q 83.49 43.33 84.21 44.26
  A 0.47 0.44 29.0 0 1 84.31 44.57
  L 83.40 64.47
  Z"
/>
<path fill="#514435" d="
  M 86.36 51.48
  Q 85.66 81.10 84.73 110.75
  Q 84.68 112.17 83.43 111.86
  L 83.19 111.79
  Q 82.86 111.71 82.88 111.37
  L 84.47 64.47
  Q 86.18 57.74 85.47 50.58
  Q 85.44 50.33 85.69 50.35
  Q 85.85 50.37 85.99 50.37
  Q 86.12 50.37 86.14 50.49
  L 86.36 51.48
  Z"
/>
<path fill="#d0ccc1" d="
  M 84.47 64.47
  L 82.88 111.37
  Q 82.86 111.71 83.19 111.79
  L 83.43 111.86
  Q 81.91 112.32 83.73 114.30
  Q 84.08 114.68 84.04 115.19
  L 80.64 157.81
  Q 80.60 158.25 80.17 158.32
  L 77.98 158.63
  A 0.54 0.53 2.2 0 1 77.38 157.99
  C 79.98 146.50 79.54 137.71 80.45 127.25
  L 81.13 127.19
  Q 81.68 127.14 81.68 126.58
  C 81.69 118.85 81.58 111.76 81.97 103.54
  Q 82.30 96.86 82.27 90.18
  C 82.23 81.74 83.35 73.10 83.40 64.47
  Q 83.58 64.41 83.64 64.27
  Q 83.65 64.26 83.92 64.28
  Q 84.18 64.29 84.47 64.47
  Z"
/>
<path fill="#b1ac9b" d="
  M 208.32 83.90
  Q 203.74 85.67 198.42 86.07
  Q 193.98 84.98 189.48 85.61
  Q 188.92 85.69 188.89 86.27
  Q 188.78 88.41 186.15 88.78
  L 177.24 90.33
  L 143.76 70.52
  Q 161.01 66.76 172.74 64.72
  Q 175.53 64.24 178.15 65.78
  Q 192.75 74.38 207.41 82.85
  Q 207.96 83.17 208.32 83.90
  Z"
/>
<path fill="#0a0b0a" d="
  M 143.76 70.52
  L 177.24 90.33
  Q 176.93 98.85 176.06 108.24
  Q 176.05 108.40 175.66 108.62
  L 170.80 105.78
  Q 170.40 105.55 170.41 105.08
  Q 170.46 101.97 172.95 100.20
  Q 173.60 99.74 172.83 99.56
  L 171.44 99.24
  Q 171.16 97.73 167.88 97.10
  Q 167.37 97.01 167.07 97.43
  L 165.52 99.65
  Q 165.18 100.13 165.47 100.64
  Q 166.24 102.04 165.02 102.25
  Q 161.84 101.21 162.71 97.88
  L 164.72 96.04
  A 1.05 1.04 -51.8 0 0 164.52 94.35
  L 158.27 90.95
  Q 157.84 90.72 157.56 91.12
  Q 155.90 93.50 155.69 96.43
  L 153.04 94.89
  Q 152.71 93.99 153.13 92.70
  Q 153.23 90.92 155.29 90.50
  A 0.67 0.67 0.0 0 0 155.51 89.27
  L 148.71 85.10
  A 0.83 0.83 0.0 0 0 147.67 85.25
  Q 146.02 87.07 146.26 89.53
  Q 146.31 89.98 145.93 90.23
  Q 145.70 90.38 145.52 90.32
  Q 144.29 89.48 143.57 88.19
  L 144.29 84.91
  Q 144.40 84.43 144.88 84.33
  L 145.80 84.14
  A 0.44 0.44 0.0 0 0 145.94 83.33
  Q 142.57 81.32 142.61 78.06
  L 143.76 70.52
  Z"
/>
<path fill="#7f705f" d="
  M 142.61 78.06
  Q 142.57 81.32 145.94 83.33
  A 0.44 0.44 0.0 0 1 145.80 84.14
  L 144.88 84.33
  Q 144.40 84.43 144.29 84.91
  L 143.57 88.19
  Q 142.65 88.19 142.21 89.40
  Q 138.36 100.16 141.51 110.30
  Q 141.81 111.29 141.81 111.86
  Q 141.79 112.76 141.47 113.38
  A 0.62 0.62 0.0 0 1 140.32 113.24
  Q 136.53 97.77 139.86 82.29
  Q 140.02 81.56 141.25 81.11
  A 1.59 1.58 -83.5 0 0 142.00 80.51
  Q 142.74 79.36 142.61 78.06
  Z"
/>
<path fill="#3e403a" d="
  M 208.32 83.90
  Q 208.52 83.90 208.83 84.19
  A 1.38 1.31 19.9 0 1 209.25 85.03
  C 209.56 87.78 209.81 89.64 210.55 92.94
  Q 211.15 95.63 210.17 98.53
  Q 209.08 101.19 207.53 102.64
  Q 202.39 102.83 199.36 104.47
  Q 198.50 105.13 198.05 104.49
  L 187.92 106.67
  Q 186.94 107.31 186.43 106.96
  L 178.73 108.62
  L 177.58 108.91
  Q 176.61 109.01 175.66 108.62
  Q 176.05 108.40 176.06 108.24
  Q 176.93 98.85 177.24 90.33
  L 186.15 88.78
  Q 186.62 90.02 188.01 91.04
  C 190.44 92.85 195.08 91.54 197.51 90.27
  A 0.98 0.96 -10.9 0 0 198.02 89.53
  L 198.42 86.07
  Q 203.74 85.67 208.32 83.90
  Z"
/>
<path fill="#7f705f" d="
  M 153.13 92.70
  Q 152.71 91.89 151.43 92.91
  A 0.68 0.68 0.0 0 1 150.55 92.88
  L 148.00 90.58
  Q 147.71 90.32 147.32 90.32
  Q 146.69 90.32 146.08 90.71
  L 145.52 90.32
  Q 145.70 90.38 145.93 90.23
  Q 146.31 89.98 146.26 89.53
  Q 146.02 87.07 147.67 85.25
  A 0.83 0.83 0.0 0 1 148.71 85.10
  L 155.51 89.27
  A 0.67 0.67 0.0 0 1 155.29 90.50
  Q 153.23 90.92 153.13 92.70
  Z"
/>
<path fill="#0a0b0a" d="
  M 198.42 86.07
  L 198.02 89.53
  A 0.98 0.96 -10.9 0 1 197.51 90.27
  C 195.08 91.54 190.44 92.85 188.01 91.04
  Q 186.62 90.02 186.15 88.78
  Q 188.78 88.41 188.89 86.27
  Q 188.92 85.69 189.48 85.61
  Q 193.98 84.98 198.42 86.07
  Z"
/>
<path fill="#9d998a" d="
  M 153.13 92.70
  Q 152.71 93.99 153.04 94.89
  Q 152.72 94.81 152.37 94.91
  Q 151.87 95.06 151.74 95.57
  Q 148.98 106.22 150.55 117.13
  Q 150.60 117.51 150.51 117.84
  Q 150.46 118.03 150.41 118.17
  A 0.81 0.81 0.0 0 1 148.84 117.92
  Q 148.72 111.87 148.47 106.28
  C 148.27 102.01 146.69 97.13 146.72 92.25
  Q 146.73 91.59 146.08 90.71
  Q 146.69 90.32 147.32 90.32
  Q 147.71 90.32 148.00 90.58
  L 150.55 92.88
  A 0.68 0.68 0.0 0 0 151.43 92.91
  Q 152.71 91.89 153.13 92.70
  Z"
/>
<path fill="#7f705f" d="
  M 162.71 97.88
  Q 160.67 102.17 160.00 107.20
  C 159.87 108.16 159.53 108.61 158.88 109.24
  A 1.20 1.20 0.0 0 0 158.53 110.11
  L 158.66 125.66
  L 158.07 125.69
  C 156.39 121.79 157.10 115.60 157.10 111.35
  C 157.11 107.03 155.50 103.08 156.21 98.25
  Q 156.33 97.46 155.69 96.43
  Q 155.90 93.50 157.56 91.12
  Q 157.84 90.72 158.27 90.95
  L 164.52 94.35
  A 1.05 1.04 -51.8 0 1 164.72 96.04
  L 162.71 97.88
  Z"
/>
<path fill="#7f705f" d="
  M 171.44 99.24
  Q 166.59 112.66 165.59 128.45
  Q 165.14 127.28 165.17 131.65
  A 0.53 0.53 0.0 0 1 164.25 132.00
  Q 163.49 131.14 163.81 129.31
  Q 164.61 123.85 165.18 118.37
  Q 165.38 116.51 165.20 111.14
  Q 165.08 107.40 165.95 103.67
  A 0.91 0.89 27.5 0 0 165.66 102.79
  L 165.02 102.25
  Q 166.24 102.04 165.47 100.64
  Q 165.18 100.13 165.52 99.65
  L 167.07 97.43
  Q 167.37 97.01 167.88 97.10
  Q 171.16 97.73 171.44 99.24
  Z"
/>
<path fill="#ffffff" d="
  M 162.71 97.88
  Q 161.84 101.21 165.02 102.25
  L 165.66 102.79
  A 0.91 0.89 27.5 0 1 165.95 103.67
  Q 165.08 107.40 165.20 111.14
  Q 165.38 116.51 165.18 118.37
  Q 164.61 123.85 163.81 129.31
  L 158.81 130.21
  Q 158.26 130.30 158.14 129.76
  Q 157.67 127.78 158.66 125.66
  L 158.53 110.11
  A 1.20 1.20 0.0 0 1 158.88 109.24
  C 159.53 108.61 159.87 108.16 160.00 107.20
  Q 160.67 102.17 162.71 97.88
  Z"
/>
<path fill="#7f705f" d="
  M 210.17 98.53
  Q 210.32 110.90 207.38 123.01
  Q 207.14 122.84 206.61 122.95
  C 204.49 117.22 211.13 108.09 207.53 102.64
  Q 209.08 101.19 210.17 98.53
  Z"
/>
<path fill="#ffffff" d="
  M 171.44 99.24
  L 172.83 99.56
  Q 173.60 99.74 172.95 100.20
  Q 170.46 101.97 170.41 105.08
  Q 170.40 105.55 170.80 105.78
  L 175.66 108.62
  Q 176.61 109.01 177.58 108.91
  Q 175.54 118.09 175.87 127.50
  Q 175.97 130.33 173.50 130.20
  Q 171.56 130.10 165.59 128.45
  Q 166.59 112.66 171.44 99.24
  Z"
/>
<path fill="#ffffff" d="
  M 207.53 102.64
  C 211.13 108.09 204.49 117.22 206.61 122.95
  Q 206.09 130.18 206.09 137.51
  Q 206.09 140.04 202.78 148.06
  A 0.53 0.53 0.0 0 1 202.08 148.35
  C 199.05 147.12 197.91 145.30 197.90 141.82
  C 197.88 137.89 196.65 134.40 196.95 130.57
  Q 197.39 124.91 197.31 119.19
  Q 197.30 118.61 196.84 118.96
  Q 196.19 119.44 196.26 120.39
  Q 196.97 131.31 193.38 140.97
  A 0.68 0.67 -70.6 0 1 192.55 141.37
  L 188.55 140.15
  A 0.99 0.98 7.9 0 1 187.86 139.24
  C 187.60 132.33 186.30 125.40 187.05 118.52
  Q 187.69 112.70 187.92 106.67
  L 198.05 104.49
  Q 197.07 110.10 196.51 115.02
  Q 196.38 116.15 196.93 116.70
  A 0.60 0.60 0.0 0 0 197.95 116.34
  L 199.36 104.47
  Q 202.39 102.83 207.53 102.64
  Z"
/>
<path fill="#9d998a" d="
  M 198.05 104.49
  Q 198.50 105.13 199.36 104.47
  L 197.95 116.34
  A 0.60 0.60 0.0 0 1 196.93 116.70
  Q 196.38 116.15 196.51 115.02
  Q 197.07 110.10 198.05 104.49
  Z"
/>
<path fill="#d0ccc1" d="
  M 187.92 106.67
  Q 187.69 112.70 187.05 118.52
  C 186.30 125.40 187.60 132.33 187.86 139.24
  A 0.99 0.98 7.9 0 0 188.55 140.15
  L 192.55 141.37
  A 0.68 0.67 -70.6 0 0 193.38 140.97
  Q 196.97 131.31 196.26 120.39
  Q 196.19 119.44 196.84 118.96
  Q 197.30 118.61 197.31 119.19
  Q 197.39 124.91 196.95 130.57
  C 196.65 134.40 197.88 137.89 197.90 141.82
  C 197.91 145.30 199.05 147.12 202.08 148.35
  A 0.53 0.53 0.0 0 0 202.78 148.06
  Q 206.09 140.04 206.09 137.51
  Q 206.09 130.18 206.61 122.95
  Q 207.14 122.84 207.38 123.01
  Q 207.07 137.83 206.02 152.75
  C 205.90 154.39 205.12 158.73 202.88 159.00
  L 149.94 159.00
  C 146.77 157.94 141.70 155.59 139.02 152.61
  Q 137.99 151.46 137.64 149.08
  C 137.18 145.91 135.93 142.82 135.68 139.93
  C 134.93 131.58 137.48 123.78 139.94 116.06
  A 0.61 0.61 0.0 0 1 140.52 115.63
  Q 141.58 115.61 141.19 116.98
  Q 139.46 122.90 137.88 128.86
  C 137.42 130.60 137.45 132.28 137.58 134.01
  Q 137.72 135.83 139.53 135.60
  L 144.21 135.01
  Q 144.75 134.94 145.02 134.46
  C 146.08 132.55 147.09 131.17 147.33 128.90
  Q 147.76 124.66 148.80 120.56
  Q 149.00 119.75 149.56 119.85
  A 0.53 0.52 9.1 0 1 149.99 120.44
  L 148.38 131.68
  A 0.63 0.63 0.0 0 0 148.98 132.40
  Q 152.68 132.50 155.95 130.68
  Q 156.40 130.43 156.57 129.95
  L 158.07 125.69
  L 158.66 125.66
  Q 157.67 127.78 158.14 129.76
  Q 158.26 130.30 158.81 130.21
  L 163.81 129.31
  Q 163.49 131.14 164.25 132.00
  A 0.53 0.53 0.0 0 0 165.17 131.65
  Q 165.14 127.28 165.59 128.45
  Q 171.56 130.10 173.50 130.20
  Q 175.97 130.33 175.87 127.50
  Q 175.54 118.09 177.58 108.91
  L 178.73 108.62
  Q 178.53 111.05 177.95 113.44
  C 176.46 119.63 176.74 125.63 178.44 131.73
  C 179.10 134.11 181.07 135.55 183.41 134.60
  A 0.99 0.98 -7.8 0 0 184.02 133.81
  C 184.41 130.32 185.63 127.08 185.79 123.79
  Q 186.20 115.47 186.43 106.96
  Q 186.94 107.31 187.92 106.67
  Z"
/>
<path fill="#ffffff" d="
  M 186.43 106.96
  Q 186.20 115.47 185.79 123.79
  C 185.63 127.08 184.41 130.32 184.02 133.81
  A 0.99 0.98 -7.8 0 1 183.41 134.60
  C 181.07 135.55 179.10 134.11 178.44 131.73
  C 176.74 125.63 176.46 119.63 177.95 113.44
  Q 178.53 111.05 178.73 108.62
  L 186.43 106.96
  Z"
/>
<path fill="#9d998a" d="
  M 292.65 120.99
  Q 285.62 123.48 279.22 125.78
  C 277.31 126.47 275.94 126.06 274.23 125.25
  Q 265.04 120.87 255.60 117.05
  Q 255.21 116.89 254.91 116.99
  Q 254.50 117.12 254.32 117.45
  Q 254.15 116.35 254.86 116.10
  Q 261.63 113.66 267.65 111.50
  A 5.04 5.04 0.0 0 1 271.36 111.63
  L 292.65 120.99
  Z"
/>
<path fill="#0a0b0a" d="
  M 292.65 120.99
  Q 292.43 121.62 293.01 122.51
  L 292.84 124.25
  Q 292.79 124.71 292.33 124.68
  Q 287.88 124.38 282.85 127.58
  Q 281.95 128.15 278.31 128.69
  Q 277.81 128.77 277.45 129.11
  Q 275.36 131.10 277.28 133.53
  Q 275.27 133.80 273.92 132.54
  A 0.74 0.73 37.2 0 1 273.79 131.62
  L 274.89 129.82
  Q 275.15 129.40 274.69 129.22
  Q 274.04 128.97 273.23 129.15
  Q 272.66 128.37 271.84 128.40
  Q 271.37 128.42 271.34 128.89
  L 271.20 131.34
  L 267.30 129.61
  Q 266.77 129.38 267.09 128.91
  L 268.03 127.54
  A 0.67 0.66 26.4 0 0 267.69 126.54
  L 265.72 125.86
  A 0.34 0.34 0.0 0 0 265.42 126.47
  L 266.31 127.07
  Q 266.67 127.31 266.45 127.68
  C 265.37 129.50 262.21 127.42 260.89 126.77
  Q 260.21 126.43 260.73 125.89
  L 261.83 124.76
  A 0.53 0.52 32.0 0 0 261.63 123.91
  L 259.77 123.22
  Q 259.05 122.95 259.11 123.72
  Q 259.14 124.10 259.67 124.23
  Q 260.16 124.35 260.08 124.85
  L 259.89 126.04
  Q 259.83 126.41 259.99 126.74
  Q 260.31 127.37 259.81 127.96
  C 258.89 129.04 258.09 130.25 256.49 130.27
  A 0.39 0.39 0.0 0 1 256.29 129.54
  Q 258.14 128.44 258.86 126.41
  Q 259.03 125.94 258.60 125.69
  L 254.42 123.29
  Q 256.55 121.09 254.22 119.89
  Q 253.78 119.66 253.81 119.16
  L 253.86 118.24
  Q 254.13 118.34 254.32 117.45
  Q 254.50 117.12 254.91 116.99
  Q 255.21 116.89 255.60 117.05
  Q 265.04 120.87 274.23 125.25
  C 275.94 126.06 277.31 126.47 279.22 125.78
  Q 285.62 123.48 292.65 120.99
  Z"
/>
<path fill="#7f705f" d="
  M 253.86 118.24
  L 253.81 119.16
  Q 253.78 119.66 254.22 119.89
  Q 256.55 121.09 254.42 123.29
  L 252.53 126.03
  A 0.37 0.37 0.0 0 1 251.85 125.82
  L 251.82 124.06
  L 253.86 118.24
  Z"
/>
<path fill="#3e403a" d="
  M 293.01 122.51
  L 293.77 123.55
  L 292.73 127.06
  Q 292.58 127.57 292.08 127.76
  L 277.28 133.53
  Q 275.36 131.10 277.45 129.11
  Q 277.81 128.77 278.31 128.69
  Q 281.95 128.15 282.85 127.58
  Q 287.88 124.38 292.33 124.68
  Q 292.79 124.71 292.84 124.25
  L 293.01 122.51
  Z"
/>
<path fill="#d0ccc1" d="
  M 271.20 131.34
  Q 271.09 133.36 268.86 134.94
  Q 268.32 135.32 268.92 135.62
  L 269.38 135.85
  A 0.36 0.35 -50.4 0 0 269.76 135.81
  L 271.76 134.22
  Q 272.19 133.87 272.31 133.32
  L 273.23 129.15
  Q 274.04 128.97 274.69 129.22
  Q 275.15 129.40 274.89 129.82
  L 273.79 131.62
  A 0.74 0.73 37.2 0 0 273.92 132.54
  Q 275.27 133.80 277.28 133.53
  L 292.08 127.76
  Q 292.58 127.57 292.73 127.06
  L 293.77 123.55
  Q 294.48 123.93 294.38 125.02
  Q 294.34 125.44 294.73 125.62
  Q 295.32 125.89 295.53 126.43
  Q 295.70 126.88 295.44 127.29
  L 293.18 130.91
  A 0.31 0.27 -33.6 0 0 293.13 131.10
  C 293.30 135.92 291.06 138.25 286.53 139.87
  C 282.19 141.42 276.51 144.44 271.98 142.36
  Q 261.50 137.57 258.49 136.44
  Q 252.48 134.19 250.25 128.11
  Q 250.80 127.90 250.75 127.50
  Q 250.69 126.86 249.99 126.92
  L 251.82 124.06
  L 251.85 125.82
  A 0.37 0.37 0.0 0 0 252.53 126.03
  L 254.42 123.29
  L 258.60 125.69
  Q 259.03 125.94 258.86 126.41
  Q 258.14 128.44 256.29 129.54
  A 0.39 0.39 0.0 0 0 256.49 130.27
  C 258.09 130.25 258.89 129.04 259.81 127.96
  Q 260.31 127.37 259.99 126.74
  Q 259.83 126.41 259.89 126.04
  L 260.08 124.85
  Q 260.16 124.35 259.67 124.23
  Q 259.14 124.10 259.11 123.72
  Q 259.05 122.95 259.77 123.22
  L 261.63 123.91
  A 0.53 0.52 32.0 0 1 261.83 124.76
  L 260.73 125.89
  Q 260.21 126.43 260.89 126.77
  C 262.21 127.42 265.37 129.50 266.45 127.68
  Q 266.67 127.31 266.31 127.07
  L 265.42 126.47
  A 0.34 0.34 0.0 0 1 265.72 125.86
  L 267.69 126.54
  A 0.67 0.66 26.4 0 1 268.03 127.54
  L 267.09 128.91
  Q 266.77 129.38 267.30 129.61
  L 271.20 131.34
  Z
  M 263.44 131.75
  L 262.47 132.34
  A 0.42 0.41 17.0 0 0 262.86 133.07
  Q 264.75 132.22 266.13 130.64
  A 0.45 0.45 0.0 0 0 265.75 129.90
  Q 264.63 130.00 264.16 130.96
  Q 263.91 131.46 263.44 131.75
  Z"
/>
<path fill="#b1ac9b" d="
  M 46.72 126.52
  L 47.62 126.72
  Q 48.23 142.00 49.78 157.24
  Q 49.87 158.04 49.52 158.54
  A 0.63 0.63 0.0 0 1 48.37 158.22
  L 46.72 126.52
  Z"
/>
<path fill="#675848" d="
  M 249.99 126.92
  Q 250.69 126.86 250.75 127.50
  Q 250.80 127.90 250.25 128.11
  Q 249.51 127.95 249.99 126.92
  Z"
/>
<path fill="#514435" d="
  M 273.23 129.15
  L 272.31 133.32
  Q 272.19 133.87 271.76 134.22
  L 269.76 135.81
  A 0.36 0.35 -50.4 0 1 269.38 135.85
  L 268.92 135.62
  Q 268.32 135.32 268.86 134.94
  Q 271.09 133.36 271.20 131.34
  L 271.34 128.89
  Q 271.37 128.42 271.84 128.40
  Q 272.66 128.37 273.23 129.15
  Z"
/>
<path fill="#0a0b0a" d="
  M 264.16 130.96
  Q 264.63 130.00 265.75 129.90
  A 0.45 0.45 0.0 0 1 266.13 130.64
  Q 264.75 132.22 262.86 133.07
  A 0.42 0.41 17.0 0 1 262.47 132.34
  L 263.44 131.75
  Q 263.91 131.46 264.16 130.96
  Z"
/>
<rect fill="#d0ccc1" x="-0.43" y="-11.35" transform="translate(58.25,147.47) rotate(1.9)" width="0.86" height="22.70" rx="0.31"/>
</svg>
